<?xml version="1.0" encoding="UTF-8"?>
<!-- Generator: visioncortex VTracer 0.6.3 -->
<svg version="1.1" xmlns="http://www.w3.org/2000/svg" width="1280" height="1280">
<path d="M0 0 C0.97 0.26 1.95 0.52 2.95 0.78 C7.74 2.13 12.21 3.87 16.72 5.97 C19.1 7.05 21.5 8 23.94 8.94 C34.22 13.05 43.13 18.53 52.22 24.78 C53.86 25.91 55.52 27.02 57.18 28.13 C58.09 28.75 59 29.37 59.94 30 C60.73 30.54 61.52 31.07 62.34 31.62 C62.89 32.08 63.44 32.53 64 33 C64 33.66 64 34.32 64 35 C64.84 35.34 64.84 35.34 65.69 35.69 C68.01 37.01 69.65 38.5 71.48 40.43 C73.02 42.06 73.02 42.06 74.86 43.66 C80.48 48.83 84.75 54.6 89.06 60.88 C89.94 62.14 89.94 62.14 90.83 63.44 C91.65 64.64 91.65 64.64 92.47 65.87 C92.96 66.59 93.45 67.31 93.95 68.06 C95 70 95 70 95 73 C95.66 73 96.32 73 97 73 C102.54 84.12 105.95 95.77 108 108 C108.19 109.07 108.37 110.13 108.56 111.23 C111.62 130.32 110.25 150.56 103.99 168.9 C99.05 184.37 98.61 198.27 106 213 C107.8 216.47 109.63 219.93 111.49 223.37 C114.16 228.34 116.64 233.37 119 238.5 C121.64 244.23 124.45 249.82 127.44 255.38 C131.07 262.11 134.38 268.96 137.61 275.89 C140.54 282.13 143.7 288.2 146.96 294.26 C149.26 298.54 151.35 302.83 153.24 307.3 C154.03 309.17 154.03 309.17 155.5 311.44 C156.86 313.76 157.75 315.87 158.69 318.38 C160.41 322.82 162.52 326.96 164.81 331.12 C168.06 337.05 170.85 343.06 173.49 349.28 C175.59 354.18 177.97 358.85 180.64 363.47 C182.31 366.57 183.62 369.77 185 373 C186.13 375.28 187.28 377.55 188.44 379.81 C190.5 383.87 192.44 387.93 194.06 392.19 C195.44 395.81 197.1 399.12 199 402.5 C201.33 406.66 203.19 410.79 204.89 415.23 C207.03 420.57 209.56 425.74 212.02 430.94 C213.03 433.06 214.03 435.19 215.02 437.32 C218.02 443.74 221.04 450.13 224.25 456.44 C226.41 460.7 228.23 464.99 229.94 469.44 C231.15 472.37 232.56 475.17 234 478 C236.25 482.41 238.16 486.82 239.94 491.44 C241.15 494.37 242.56 497.17 244 500 C246.24 504.39 248.17 508.78 249.94 513.37 C251.19 516.47 252.59 519.48 254 522.5 C255.79 526.32 257.48 530.13 259 534.06 C260.46 537.81 262.16 541.36 264 544.94 C266.39 549.61 268.23 554.27 269.94 559.22 C271.1 562.27 272.51 565.1 274 568 C276.38 572.63 278.24 577.24 279.94 582.15 C281.96 587.58 284.53 592.77 287 598 C289.54 603.39 291.96 608.75 293.94 614.38 C295.33 618.3 296.91 622.05 298.69 625.81 C301.95 632.73 304.8 639.8 307.67 646.9 C310.19 653.09 312.88 659.15 315.73 665.2 C317.37 668.82 318.7 672.52 320.01 676.27 C322.24 682.44 324.9 688.46 327.51 694.48 C329.82 699.8 332.08 705.09 334 710.56 C335.4 714.55 337.05 718.31 338.88 722.12 C341.62 727.93 343.8 733.82 345.82 739.91 C347.24 744.14 348.97 748.02 351.01 751.98 C352.66 755.35 353.9 758.84 355.12 762.38 C355.38 763.12 355.64 763.86 355.9 764.62 C361.21 780.24 361.21 780.24 358 787 C357.67 787.66 357.34 788.32 357 789 C356.34 789 355.68 789 355 789 C355.58 789.68 356.16 790.36 356.76 791.05 C364.88 800.73 373.36 811.59 374.25 824.69 C374.13 825.83 374.13 825.83 374 827 C363.83 827.65 356.98 824.46 349.14 818.05 C342.76 811.94 339.54 805.31 337 797 C336.23 797.01 335.45 797.01 334.65 797.02 C316.58 797.12 299.3 797.01 281.52 793.62 C278.1 792.91 278.1 792.91 275 793 C278.32 798.75 281.75 804.21 285.9 809.41 C287 811 287 811 287 813 C287.66 813 288.32 813 289 813 C290.37 814.47 290.37 814.47 292 816.5 C299.49 825.3 308.21 831.91 319.75 833.78 C328.79 834.4 337.61 832.55 346.19 829.88 C353.26 827.74 361.39 825.8 368.37 829.13 C370.31 830.5 370.31 830.5 373 833 C372.82 835.34 372.82 835.34 372 838 C364.49 842.85 354.56 844.73 346 847 C345.29 847.2 344.59 847.41 343.86 847.62 C326.8 852.4 305.95 853.53 289 848 C287.65 847.56 287.65 847.56 286.27 847.12 C280.38 844.99 275.72 842.08 271 838 C270.33 837.45 269.66 836.9 268.97 836.33 C260.85 829.04 255.92 819.48 255 808.62 C254.84 801.71 255.01 795.37 258 789 C257.34 789 256.68 789 256 789 C256 788.34 256 787.68 256 787 C255.28 786.75 254.56 786.5 253.81 786.25 C250.72 784.88 248.49 783.28 246 781 C246 780.34 246 779.68 246 779 C245.24 778.73 244.47 778.46 243.69 778.19 C241.11 777.05 239.73 776.19 238 774 C238 773.34 238 772.68 238 772 C237.34 772 236.68 772 236 772 C234.38 770.62 234.38 770.62 233 769 C233 768.34 233 767.68 233 767 C232.34 767 231.68 767 231 767 C229.48 765.32 228.03 763.58 226.62 761.81 C225.85 760.85 225.08 759.89 224.29 758.89 C223.53 757.94 222.78 756.98 222 756 C221.24 755.1 220.49 754.19 219.71 753.26 C218 751 218 751 218 749 C217.34 749 216.68 749 216 749 C214.74 747.48 214.74 747.48 213.31 745.34 C212.78 744.55 212.25 743.76 211.71 742.95 C211.14 742.1 210.58 741.25 210 740.38 C208.83 738.63 207.66 736.89 206.49 735.15 C205.9 734.28 205.32 733.41 204.72 732.52 C201.87 728.34 198.9 724.26 195.9 720.19 C193 716.21 193 716.21 193 714 C192.34 714 191.68 714 191 714 C191 713.01 191 712.02 191 711 C190.34 711 189.68 711 189 711 C187.73 709.23 187.73 709.23 186.19 706.62 C182.88 701.26 179.28 696.16 175.56 691.06 C171.26 685.17 167.1 679.22 163.09 673.12 C160.45 669.18 157.73 665.31 155 661.44 C154.49 660.71 153.98 659.99 153.45 659.24 C151.15 655.99 148.84 652.76 146.45 649.57 C145.36 648.11 145.36 648.11 144.25 646.62 C143.62 645.79 142.98 644.96 142.33 644.1 C141 642 141 642 141 639 C140.34 639 139.68 639 139 639 C137.73 637.23 137.73 637.23 136.19 634.62 C132.35 628.4 128.11 622.53 123.8 616.64 C113 601.87 113 601.87 113 599 C112.34 599 111.68 599 111 599 C109.7 597.19 109.7 597.19 108.12 594.56 C104.97 589.45 101.61 584.52 98.12 579.62 C97.61 578.9 97.1 578.18 96.57 577.44 C95.55 575.99 94.52 574.54 93.49 573.1 C91.24 569.93 88.99 566.75 86.75 563.56 C86.02 562.53 85.3 561.5 84.55 560.44 C83 558 83 558 83 556 C82.34 556 81.68 556 81 556 C79.7 554.19 79.7 554.19 78.12 551.56 C74.37 545.44 70.24 539.64 66 533.84 C65.5 533.14 64.99 532.44 64.48 531.72 C64.02 531.1 63.57 530.48 63.1 529.84 C61.94 527.9 61.43 526.21 61 524 C60.34 524 59.68 524 59 524 C57.73 522.23 57.73 522.23 56.19 519.62 C52.35 513.4 48.11 507.53 43.8 501.64 C33 486.87 33 486.87 33 484 C32.34 484 31.68 484 31 484 C29.71 482.32 29.71 482.32 28.38 480.12 C27.93 479.41 27.48 478.69 27.02 477.95 C26 476 26 476 26 474 C25.34 474 24.68 474 24 474 C22.73 472.23 22.73 472.23 21.19 469.62 C17.26 463.22 12.85 457.21 8.36 451.2 C7.81 450.45 7.26 449.71 6.7 448.94 C6.2 448.28 5.71 447.62 5.2 446.93 C3.97 444.94 3.43 443.29 3 441 C2.34 441 1.68 441 1 441 C-0.3 439.19 -0.3 439.19 -1.88 436.56 C-5.1 431.35 -8.52 426.32 -12.06 421.31 C-12.56 420.61 -13.05 419.91 -13.56 419.19 C-16.57 414.96 -19.66 410.82 -22.9 406.75 C-24 405 -24 405 -24 402 C-24.66 402 -25.32 402 -26 402 C-27.27 400.23 -27.27 400.23 -28.81 397.62 C-32.74 391.22 -37.15 385.21 -41.64 379.2 C-42.19 378.45 -42.74 377.71 -43.3 376.94 C-43.8 376.28 -44.29 375.62 -44.8 374.93 C-46.03 372.94 -46.57 371.29 -47 369 C-47.66 369 -48.32 369 -49 369 C-52 364.62 -52 364.62 -52 362 C-52.66 362 -53.32 362 -54 362 C-54 361.01 -54 360.02 -54 359 C-54.66 359 -55.32 359 -56 359 C-57.27 357.23 -57.27 357.23 -58.81 354.62 C-62.74 348.22 -67.15 342.21 -71.64 336.2 C-72.19 335.45 -72.74 334.71 -73.3 333.94 C-73.8 333.28 -74.29 332.62 -74.8 331.93 C-76.03 329.94 -76.57 328.29 -77 326 C-77.66 326 -78.32 326 -79 326 C-80.29 324.32 -80.29 324.32 -81.62 322.12 C-82.07 321.41 -82.52 320.69 -82.98 319.95 C-84 318 -84 318 -84 316 C-84.66 316 -85.32 316 -86 316 C-87.13 314.38 -88.18 312.7 -89.19 311 C-94.35 302.29 -94.35 302.29 -102 296 C-102 295.34 -102 294.68 -102 294 C-102.58 293.86 -103.16 293.73 -103.76 293.59 C-105.86 293.04 -107.84 292.36 -109.88 291.62 C-113.85 290.28 -117.83 289.35 -121.94 288.5 C-130.12 286.8 -137.68 284.9 -145.08 280.96 C-146.98 280.01 -148.86 279.31 -150.88 278.62 C-155.16 277.09 -158.86 274.81 -162.7 272.4 C-164.76 271.15 -166.83 270.04 -169 269 C-169 268.34 -169 267.68 -169 267 C-170.18 266.54 -170.18 266.54 -171.38 266.06 C-174 265 -174 265 -176 264 C-176 263.34 -176 262.68 -176 262 C-176.62 261.69 -177.24 261.38 -177.88 261.06 C-179.25 260.38 -180.62 259.69 -182 259 C-182 258.34 -182 257.68 -182 257 C-182.81 256.68 -182.81 256.68 -183.64 256.34 C-186.82 254.54 -189.21 252.08 -191.75 249.5 C-192.26 249 -192.76 248.5 -193.29 247.99 C-197 244.25 -197 244.25 -197 242 C-197.66 242 -198.32 242 -199 242 C-201.92 238.53 -204.43 234.74 -207 231 C-207.59 230.15 -208.19 229.3 -208.8 228.42 C-228.98 198.22 -235.32 160.51 -229 125 C-227.57 118.09 -225.65 111.53 -223 105 C-222.53 103.8 -222.06 102.59 -221.58 101.35 C-221.06 100.01 -220.53 98.66 -220 97.31 C-219.75 96.67 -219.5 96.03 -219.24 95.37 C-217.78 91.68 -216.13 88.35 -214 85 C-213.43 84.04 -212.86 83.08 -212.27 82.09 C-206.06 71.77 -199.23 61.83 -191 53 C-190.34 53 -189.68 53 -189 53 C-188.73 52.36 -188.46 51.72 -188.19 51.06 C-187 49 -187 49 -184 48 C-184 47.34 -184 46.68 -184 46 C-182.43 44.41 -182.43 44.41 -180.31 42.62 C-179.58 42.01 -178.86 41.39 -178.11 40.75 C-177.41 40.18 -176.72 39.6 -176 39 C-175.05 38.2 -174.1 37.39 -173.12 36.56 C-171 35 -171 35 -169 35 C-169 34.34 -169 33.68 -169 33 C-166.93 31.32 -164.87 29.77 -162.69 28.25 C-162.05 27.8 -161.4 27.35 -160.74 26.88 C-155.36 23.15 -149.82 20 -144 17 C-142.65 16.26 -141.31 15.52 -139.96 14.78 C-131.8 10.3 -123.95 6.65 -115 4 C-113.6 3.49 -112.2 2.97 -110.81 2.44 C-109.54 1.96 -108.27 1.48 -107 1 C-106.35 0.75 -105.71 0.51 -105.04 0.25 C-97.88 -2.32 -90.48 -3.7 -83 -5 C-81.83 -5.21 -80.66 -5.42 -79.46 -5.63 C-52.87 -9.68 -25.85 -6.88 0 0 Z M-88 10 C-89.14 10.34 -90.27 10.68 -91.44 11.02 C-105.15 15.28 -117.51 22.01 -130 29 C-130 29.66 -130 30.32 -130 31 C-130.56 31.27 -131.12 31.54 -131.7 31.81 C-134.16 33.08 -136.44 34.49 -138.75 36 C-139.95 36.77 -139.95 36.77 -141.17 37.56 C-141.78 38.04 -142.38 38.51 -143 39 C-143 39.66 -143 40.32 -143 41 C-143.54 41.22 -144.08 41.43 -144.64 41.66 C-147.82 43.46 -150.21 45.92 -152.75 48.5 C-153.26 49 -153.76 49.5 -154.29 50.01 C-157.13 52.53 -157.13 52.53 -158 56 C-158.99 56.33 -159.98 56.66 -161 57 C-162.22 59.5 -162.22 59.5 -163 62 C-163.66 62 -164.32 62 -165 62 C-165.33 63.32 -165.66 64.64 -166 66 C-166.66 66 -167.32 66 -168 66 C-169.71 68.41 -171.28 70.8 -172.81 73.31 C-173.26 74.04 -173.71 74.78 -174.18 75.53 C-179.35 84.05 -183.07 92.68 -186.1 102.18 C-186.64 103.87 -187.2 105.56 -187.81 107.23 C-192.31 119.65 -193.5 131.97 -193.39 145.06 C-193.38 147.43 -193.39 149.8 -193.41 152.17 C-193.45 177.63 -185.48 200.96 -173 223 C-172.21 224.43 -172.21 224.43 -171.41 225.88 C-170.95 226.58 -170.48 227.28 -170 228 C-169.34 228 -168.68 228 -168 228 C-167.69 228.78 -167.38 229.57 -167.06 230.38 C-166.07 232.92 -166.07 232.92 -165 235 C-164.34 235 -163.68 235 -163 235 C-162 237 -161 239 -160 241 C-159.34 241 -158.68 241 -158 241 C-158 241.66 -158 242.32 -158 243 C-157.34 243 -156.68 243 -156 243 C-155.67 243.99 -155.34 244.98 -155 246 C-154.34 246 -153.68 246 -153 246 C-153 246.66 -153 247.32 -153 248 C-152.34 248 -151.68 248 -151 248 C-150.67 248.99 -150.34 249.98 -150 251 C-149.34 251 -148.68 251 -148 251 C-148 251.66 -148 252.32 -148 253 C-145.76 254.8 -143.53 256.48 -141.19 258.12 C-140.54 258.59 -139.9 259.06 -139.24 259.54 C-135.49 262.31 -135.49 262.31 -131 263 C-131 263.66 -131 264.32 -131 265 C-109.02 275.34 -90.55 279.43 -66.29 279.04 C-64.38 279.01 -62.47 278.99 -60.56 278.98 C-50.79 278.63 -41.63 275.61 -32.35 272.73 C-30.41 272.13 -28.46 271.56 -26.51 271 C-10.29 266.1 6.14 255.82 19 245 C19 244.34 19 243.68 19 243 C19.56 242.75 20.11 242.5 20.69 242.25 C23.42 240.77 25.68 239.07 28 237 C28 236.34 28 235.68 28 235 C28.57 234.76 29.14 234.52 29.73 234.28 C37.72 229.77 44.16 219.6 49 212 C49 211.34 49 210.68 49 210 C49.66 210 50.32 210 51 210 C51.39 209.29 51.77 208.57 52.17 207.84 C52.69 206.88 53.21 205.92 53.75 204.94 C54.57 203.42 54.57 203.42 55.41 201.88 C56.61 199.7 57.85 197.57 59.12 195.44 C62.99 188.36 65.5 180.73 68.12 173.12 C68.51 172.05 68.51 172.05 68.89 170.95 C72.72 159.6 73.35 148.35 73.32 136.48 C73.31 134.14 73.34 131.79 73.36 129.44 C73.4 119.86 72.44 111.31 70 102 C69.69 100.69 69.39 99.38 69.08 98.06 C66.74 89.43 63.23 81.86 59 74 C58.53 73.07 58.05 72.13 57.57 71.17 C54.69 65.59 51.36 60.44 47.75 55.31 C47.31 54.69 46.88 54.06 46.43 53.42 C45.34 51.91 44.17 50.45 43 49 C42.34 49 41.68 49 41 49 C40.79 48.46 40.59 47.93 40.38 47.38 C38.47 44.08 35.95 41.41 33 39 C32.34 39 31.68 39 31 39 C31 38.34 31 37.68 31 37 C27.86 34.1 24.4 31.58 21 29 C20.23 28.41 19.46 27.81 18.67 27.2 C-10.98 5.26 -52.91 -1.32 -88 10 Z M87 209 C84.74 212.25 84.74 212.25 84 216 C83.34 216 82.68 216 82 216 C82 216.99 82 217.98 82 219 C81.34 219 80.68 219 80 219 C79.03 220.41 78.06 221.82 77.15 223.27 C75.24 226.15 73 228.75 70.75 231.38 C70.27 231.94 69.79 232.5 69.3 233.08 C59.11 244.94 59.11 244.94 55 247 C55 247.66 55 248.32 55 249 C54.42 249.27 53.85 249.54 53.25 249.81 C50.94 251.03 48.98 252.3 47 254 C47 254.66 47 255.32 47 256 C46.49 256.23 45.97 256.46 45.44 256.7 C42.11 258.47 39.05 260.62 35.94 262.75 C13.97 277.5 -10.35 287.49 -36.5 291.54 C-38.99 291.88 -38.99 291.88 -41 293 C-43.62 293.3 -46.22 293.54 -48.85 293.75 C-49.63 293.82 -50.4 293.88 -51.2 293.95 C-53.67 294.16 -56.15 294.36 -58.62 294.56 C-60.3 294.7 -61.98 294.84 -63.66 294.98 C-67.77 295.33 -71.89 295.66 -76 296 C-76.23 298.25 -76.23 298.25 -73.94 300.12 C-73.25 300.79 -73.25 300.79 -72.55 301.46 C-67.41 306.56 -62.94 312.26 -58.58 318.02 C-58.06 318.67 -57.54 319.33 -57 320 C-56.6 320.57 -56.21 321.15 -55.8 321.74 C-52.82 323.83 -49.5 323.44 -46 323.38 C-45.24 323.37 -44.48 323.36 -43.69 323.35 C-37.45 323.19 -31.88 322.14 -26 320 C-25.03 319.66 -25.03 319.66 -24.05 319.31 C-22.78 318.84 -21.52 318.36 -20.26 317.86 C-18.51 317.19 -16.74 316.58 -14.96 315.98 C-7.39 313.42 -0.4 310.38 6.67 306.68 C9.77 305.06 12.59 303.75 16 303 C16 302.34 16 301.68 16 301 C16.55 300.84 17.11 300.68 17.68 300.51 C23.37 298.74 28.24 296.41 33.31 293.31 C34.05 292.87 34.78 292.43 35.54 291.98 C41.82 288.18 47.95 284.17 54 280 C54.98 279.35 55.95 278.69 56.96 278.02 C57.88 277.39 58.8 276.77 59.75 276.12 C60.57 275.57 61.39 275.02 62.23 274.45 C62.82 273.97 63.4 273.49 64 273 C64 272.34 64 271.68 64 271 C64.6 270.71 65.2 270.42 65.81 270.12 C68.19 268.95 68.19 268.95 71 267 C71 266.34 71 265.68 71 265 C71.6 264.73 72.2 264.46 72.81 264.19 C75 263 76.41 261.9 78 260 C78 259.34 78 258.68 78 258 C78.99 257.67 79.98 257.34 81 257 C82.44 255.44 82.44 255.44 83.69 253.56 C84.12 252.95 84.56 252.33 85.01 251.69 C86.17 250.04 86.17 250.04 86 248 C86.66 248 87.32 248 88 248 C89.7 246.28 89.7 246.28 91.44 244.12 C93.58 241.54 95.17 239.89 98 238 C96.99 232.37 95.46 227.45 93.01 222.28 C91.65 219.21 90.67 216.06 89.71 212.85 C89.06 210.79 89.06 210.79 87 209 Z M105 262 C104.31 262.98 103.63 263.95 102.92 264.96 C102.01 266.24 101.1 267.53 100.19 268.81 C99.51 269.78 99.51 269.78 98.82 270.76 C98.16 271.69 98.16 271.69 97.48 272.64 C96.88 273.5 96.88 273.5 96.26 274.37 C95 276 95 276 93.34 277.58 C91.77 278.92 91.77 278.92 92 281 C91.01 281.33 90.02 281.66 89 282 C89 282.66 89 283.32 89 284 C88.34 284 87.68 284 87 284 C84.33 286.33 84.33 286.33 82 289 C82 289.66 82 290.32 82 291 C81.43 291.27 80.86 291.54 80.27 291.81 C77.92 293.04 75.88 294.43 73.75 296 C72.69 296.77 72.69 296.77 71.61 297.56 C71.08 298.04 70.55 298.51 70 299 C70 299.66 70 300.32 70 301 C69.23 301.35 69.23 301.35 68.45 301.71 C65.8 303.1 63.33 304.7 60.82 306.32 C35.97 322.38 7.99 331.59 -21 336.6 C-23.19 337 -23.19 337 -26 338 C-29.06 338.31 -32.12 338.51 -35.19 338.72 C-38.08 338.9 -38.08 338.9 -41 340 C-40.45 343.72 -39.55 346.07 -37.3 349.07 C-36.48 350.19 -36.48 350.19 -35.64 351.33 C-35.06 352.11 -34.48 352.89 -33.88 353.69 C-32.69 355.29 -31.5 356.9 -30.32 358.5 C-29.74 359.27 -29.17 360.05 -28.58 360.84 C-26.04 364.31 -23.65 367.87 -21.27 371.45 C-20.64 372.21 -20.64 372.21 -20 373 C-19.34 373 -18.68 373 -18 373 C-17.79 373.66 -17.59 374.32 -17.38 375 C-15.51 379.07 -13.02 382.69 -10 386 C-9.34 386 -8.68 386 -8 386 C-7.73 386.56 -7.46 387.11 -7.19 387.69 C-5.89 390.21 -4.58 392.64 -3 395 C-2.34 395 -1.68 395 -1 395 C-0.67 395.99 -0.34 396.98 0 398 C0.33 398 0.66 398 1 398 C1.11 393.28 1.11 393.28 0.51 388.61 C-0.43 383.76 -0.18 378.81 -0.19 373.88 C-0.2 372.78 -0.21 371.68 -0.22 370.55 C-0.23 369.5 -0.23 368.45 -0.23 367.37 C-0.23 366.41 -0.24 365.45 -0.24 364.46 C0 362 0 362 2 359 C4.94 358.5 4.94 358.5 8 359 C10.48 362.41 11.72 365.85 12.88 369.88 C15.57 378.95 18.31 388.06 21.94 396.81 C24.75 403.64 26.95 410.7 29.25 417.71 C30.4 421.23 31.58 424.74 32.75 428.25 C34.17 432.5 35.58 436.75 37 441 C37.33 441 37.66 441 38 441 C38.03 439.42 38.05 437.83 38.06 436.25 C38.07 435.37 38.09 434.49 38.1 433.58 C38.1 431.1 38.1 431.1 37.52 429.16 C36.46 424.75 36.52 420.15 36.31 415.62 C36.25 414.6 36.19 413.57 36.13 412.51 C35.88 407.27 35.68 402.85 38 398 C40 396 40 396 43.38 395.5 C47 396 47 396 49.1 398.6 C51.02 402.04 52.08 405.07 53.06 408.88 C54.56 414.51 54.56 414.51 56.5 420 C57.91 423.56 58.92 427.19 59.94 430.88 C61.1 435.03 62.33 439.03 64 443 C66.12 448.05 67.55 453.22 68.97 458.51 C69.9 461.66 71.01 464.68 72.18 467.74 C74.18 473.24 75.73 478.9 77.39 484.51 C79.07 490.1 80.91 495.55 83 501 C83.72 503.32 84.36 505.65 85 508 C85.33 508 85.66 508 86 508 C86.2 502.45 86.09 497.48 84.58 492.12 C82.56 484.73 80.98 476.67 82 469 C84 467 84 467 86.44 466.81 C89 467 89 467 92 468 C93.05 470.26 93.05 470.26 94 473 C94.74 474.61 95.49 476.21 96.25 477.81 C99.28 484.43 101.79 491.22 104.28 498.06 C104.76 499.34 105.24 500.62 105.73 501.89 C107.88 507.45 109.61 513.1 111.31 518.81 C113.8 527.06 116.33 535.29 118.95 543.5 C120.31 547.8 121.61 552.11 122.88 556.44 C127.2 570.51 133.16 583.99 140 597 C140.67 598.33 141.34 599.66 142 601 C142.66 601 143.32 601 144 601 C143.57 595.26 142.97 589.66 141.88 584 C140.89 578.25 140.47 572.7 142 567 C144.19 564.69 144.19 564.69 147 564 C151.01 564.8 153.34 565.96 156 569 C160.8 576.69 163.42 585.52 166.32 594.04 C167.2 596.57 168.16 599.06 169.12 601.56 C170.96 606.58 172.25 611.7 173.5 616.88 C174.86 622.53 176.44 628.11 178.07 633.69 C178.96 636.86 179.74 640.04 180.5 643.25 C181.63 647.87 183.12 652.14 184.98 656.52 C186.04 659.08 186.92 661.68 187.81 664.31 C190.9 672.88 195.13 681.02 201 688 C200.39 684.1 199.62 680.32 198.62 676.5 C197.21 670.94 196 665.35 194.83 659.73 C194.24 657.07 193.61 654.46 192.92 651.84 C192.74 651.13 192.55 650.43 192.36 649.71 C191.84 647.73 191.31 645.76 190.77 643.79 C189.93 639.68 189.87 636.18 190 632 C191.81 630.94 191.81 630.94 194 630 C197 631 197 631 198.94 634.19 C201.18 638.97 202.49 643.94 203.87 649.02 C205.08 653.4 206.54 657.7 208 662 C210.17 668.41 212.12 674.85 213.94 681.38 C215.41 686.4 217.1 691.35 218.78 696.31 C220.76 702.16 222.47 708.06 224.13 714.02 C224.86 716.53 225.68 718.94 226.62 721.38 C228.09 725.23 229.07 728.99 230 733 C230.66 733 231.32 733 232 733 C232 734.65 232 736.3 232 738 C232.33 738 232.66 738 233 738 C232.93 737.14 232.86 736.28 232.78 735.39 C232.3 729.23 231.89 723.06 231.75 716.88 C231.72 715.84 231.7 714.81 231.67 713.74 C232.04 710.63 232.92 709.29 235 707 C237.31 707.33 239.62 707.66 242 708 C242.2 708.63 242.41 709.25 242.62 709.9 C242.89 710.72 243.16 711.53 243.44 712.38 C243.84 713.59 243.84 713.59 244.25 714.84 C244.95 717.01 244.95 717.01 246 719 C246.2 720.52 246.34 722.05 246.46 723.59 C246.54 724.51 246.62 725.44 246.7 726.39 C246.78 727.38 246.86 728.36 246.94 729.38 C247.95 744.02 247.95 744.02 252 758 C252.66 758 253.32 758 254 758 C254.4 759.18 254.4 759.18 254.81 760.38 C255.85 763.28 255.85 763.28 259 765 C258.86 763.33 258.71 761.67 258.56 760 C258.43 758.5 258.43 758.5 258.3 756.96 C258.05 754.49 257.71 752.07 257.31 749.62 C257 745.95 257.03 744.1 259 741 C260.81 740 260.81 740 263 740 C267.22 741.85 268.9 743.98 271 748 C271.69 750.21 272.31 752.44 272.88 754.69 C275.61 764.48 277.96 771.48 286.82 777.04 C289.21 778.27 289.21 778.27 293 778 C293 777.34 293 776.68 293 776 C291.5 774.76 289.99 773.52 288.47 772.29 C286.61 770.66 285.67 769.39 285 767 C285.35 764.15 286.09 761.73 287 759 C290.06 757.81 290.06 757.81 293 757 C296.22 759.93 298.6 762.81 300.94 766.5 C306 774.21 312.13 777.82 321 780 C324.37 780.28 327.63 780.26 331 780 C331.33 779.01 331.66 778.02 332 777 C331.2 776.44 330.39 775.89 329.56 775.31 C326.76 772.78 326.31 771.67 326 768 C328.64 768 331.28 768 334 768 C334 768.66 334 769.32 334 770 C335.32 770.33 336.64 770.66 338 771 C337.08 767.18 336.32 764.48 334.12 761.19 C331.9 757.84 330.61 754.67 329.18 750.94 C327.83 747.57 326.31 744.29 324.75 741 C322.06 735.31 319.47 729.58 316.94 723.81 C314.23 717.66 311.35 711.63 308.29 705.64 C306.71 702.42 305.42 699.12 304.13 695.77 C301.07 688.26 297.51 680.9 293.81 673.69 C292.41 670.93 291.24 668.14 290.12 665.25 C288.62 661.38 286.89 657.7 285 654 C282.78 649.64 280.87 645.29 279.11 640.73 C277.5 636.78 275.67 632.95 273.85 629.1 C271.46 624.04 269.19 618.93 266.94 613.81 C264.23 607.66 261.35 601.63 258.29 595.64 C256.71 592.42 255.42 589.12 254.13 585.77 C251.07 578.26 247.51 570.9 243.81 563.69 C242.41 560.93 241.24 558.14 240.12 555.25 C238.62 551.38 236.89 547.7 235 544 C232.75 539.59 230.84 535.18 229.06 530.56 C227.85 527.63 226.44 524.83 225 522 C222.79 517.66 220.88 513.31 219.13 508.77 C216.07 501.26 212.51 493.9 208.81 486.69 C207.41 483.93 206.24 481.14 205.12 478.25 C203.62 474.38 201.89 470.7 200 467 C197.79 462.66 195.88 458.31 194.13 453.77 C191.07 446.26 187.51 438.9 183.81 431.69 C182.41 428.93 181.24 426.14 180.12 423.25 C178.62 419.38 176.89 415.7 175 412 C172.79 407.66 170.88 403.31 169.13 398.77 C166.07 391.26 162.51 383.9 158.81 376.69 C157.41 373.93 156.24 371.14 155.12 368.25 C153.62 364.38 151.89 360.7 150 357 C147.75 352.59 145.84 348.18 144.06 343.56 C142.85 340.63 141.44 337.83 140 335 C137.79 330.66 135.88 326.31 134.13 321.77 C131.07 314.26 127.51 306.9 123.81 299.69 C122.41 296.93 121.24 294.14 120.12 291.25 C118.62 287.39 116.89 283.74 115 280.06 C112.49 275.18 110.6 270.31 108.96 265.08 C108.48 264.05 108.48 264.05 108 263 C107.01 262.67 106.02 262.34 105 262 Z M87 511 C88 514 88 514 88 514 Z " fill="#000000" transform="translate(486,174)"/>
<path d="M0 0 C0.83 0 1.65 0 2.5 0 C15.26 0.05 27.69 0.59 40.19 3.31 C40.93 3.47 41.66 3.63 42.42 3.8 C47.05 4.84 51.62 6.04 56.19 7.31 C57.07 7.54 57.96 7.76 58.87 7.99 C87.12 15.54 114.55 35.79 129.64 60.72 C130.88 62.89 132.04 65.09 133.19 67.31 C133.55 67.96 133.9 68.6 134.27 69.26 C139.72 79.35 140.67 89.37 140.56 100.69 C140.57 101.91 140.59 103.14 140.6 104.4 C140.56 115.53 138.58 125.62 134.22 135.86 C133.13 138.44 132.19 141.05 131.25 143.69 C129.5 148.56 127.54 153.33 125.54 158.1 C122.14 166.2 118.84 174.29 116.04 182.61 C111.47 196.1 105.29 208.58 97.19 220.31 C96.67 221.07 96.15 221.83 95.61 222.61 C94.91 223.45 94.91 223.45 94.19 224.31 C93.53 224.31 92.87 224.31 92.19 224.31 C92.19 224.97 92.19 225.63 92.19 226.31 C91.53 226.31 90.87 226.31 90.19 226.31 C89.86 227.3 89.53 228.29 89.19 229.31 C88.53 229.31 87.87 229.31 87.19 229.31 C87.19 229.97 87.19 230.63 87.19 231.31 C85.3 232.83 83.44 234.21 81.44 235.56 C80.85 235.96 80.25 236.37 79.64 236.78 C71.49 242.21 63.19 246.21 53.81 249.06 C53.17 249.26 52.52 249.46 51.85 249.67 C39.68 253.13 27.43 253.64 14.87 253.57 C12.43 253.56 9.98 253.57 7.54 253.59 C-0.51 253.59 -7.96 253.31 -15.81 251.31 C-16.52 259.31 -16.89 267.28 -17.14 275.3 C-17.63 291.49 -18.74 307.38 -21.38 323.37 C-21.82 326.37 -22.09 329.35 -22.31 332.38 C-22.77 338.43 -23.74 344.34 -24.81 350.31 C-25.83 356.05 -26.81 361.68 -27.12 367.5 C-28.28 381.01 -32.36 392.95 -42.81 401.88 C-53.23 406.89 -68.49 402.48 -79.39 400.69 C-83 400.13 -86.62 399.68 -90.25 399.25 C-123.57 395.14 -123.57 395.14 -133.81 388.31 C-134.68 386.13 -134.68 386.13 -135.35 383.43 C-135.6 382.44 -135.85 381.45 -136.1 380.42 C-137.24 375.45 -138.25 370.46 -139.19 365.44 C-139.4 364.33 -139.61 363.23 -139.82 362.09 C-142.31 348.86 -144.58 335.59 -146.81 322.31 C-147 321.24 -147.18 320.17 -147.37 319.06 C-148.29 313.61 -149.14 308.17 -149.81 302.69 C-149.93 301.71 -149.93 301.71 -150.06 300.71 C-150.51 296.95 -150.94 293.19 -151.35 289.43 C-151.44 288.62 -151.52 287.81 -151.62 286.97 C-151.78 285.4 -151.95 283.83 -152.12 282.25 C-152.53 278.23 -152.53 278.23 -153.33 274.26 C-154.02 271.5 -154.09 268.78 -154.25 265.94 C-154.65 259.9 -155.38 253.99 -156.27 248 C-157.86 237.11 -158.92 226.25 -159.54 215.26 C-159.86 210.7 -160.42 206.19 -161.01 201.66 C-164.16 177.27 -164.36 154.68 -160.81 130.31 C-160.62 128.95 -160.43 127.58 -160.24 126.22 C-159.17 118.9 -157.72 111.75 -155.83 104.6 C-154.75 100.27 -154.12 95.92 -153.5 91.5 C-150.59 72.05 -145.47 44.82 -128.81 32.31 C-125.88 30.88 -125.88 30.88 -123.81 30.31 C-123.81 29.65 -123.81 28.99 -123.81 28.31 C-110.61 20.86 -97.4 15.8 -82.7 12.11 C-79.94 11.6 -79.94 11.6 -78.81 10.31 C-76.73 9.83 -74.65 9.35 -72.57 8.91 C-70.71 8.51 -68.87 8.08 -67.03 7.62 C-60.43 6 -53.83 4.76 -47.12 3.75 C-46.37 3.64 -45.62 3.52 -44.85 3.4 C-42.17 3.01 -39.49 2.66 -36.81 2.31 C-35.87 2.19 -35.87 2.19 -34.9 2.06 C-23.24 0.54 -11.76 -0.05 0 0 Z M-61.56 21.81 C-62.54 22.01 -63.51 22.21 -64.52 22.42 C-69.73 23.52 -74.73 24.86 -79.76 26.61 C-83.9 28.02 -88.16 29.05 -92.38 30.15 C-95.09 31.07 -97.1 31.96 -99.53 33.39 C-100.61 34.02 -101.7 34.66 -102.81 35.31 C-102.76 36.33 -102.7 37.35 -102.64 38.4 C-102.39 43.19 -102.13 47.97 -101.88 52.75 C-101.83 53.61 -101.78 54.47 -101.74 55.36 C-101.11 67.12 -100.53 78.88 -100.15 90.65 C-100 95.2 -99.67 99.63 -99.05 104.15 C-98.53 108.89 -98.51 113.67 -98.38 118.44 C-98 129.49 -97.16 140.44 -96.08 151.44 C-94.72 165.93 -93.75 180.43 -93.21 194.97 C-92.92 202.23 -92.29 209.42 -91.55 216.65 C-90.86 223.43 -90.43 230.2 -90.15 237.01 C-90.01 240.26 -89.8 243.38 -89.31 246.6 C-88.61 251.83 -88.53 257.04 -88.38 262.31 C-88.09 270.89 -87.63 279.4 -86.81 287.94 C-85.95 296.98 -85.46 305.99 -85.14 315.06 C-84.92 321.09 -84.58 327.05 -83.9 333.04 C-83.8 335.61 -84.22 337.82 -84.81 340.31 C-70.78 340.52 -70.78 340.52 -56.81 339.31 C-51.55 334.05 -53.37 315.02 -53.15 308.08 C-53.12 307.13 -53.09 306.19 -53.06 305.21 C-53.03 304.36 -53.01 303.51 -52.99 302.64 C-52.82 300.41 -52.37 298.47 -51.81 296.31 C-51.63 294.77 -51.48 293.22 -51.35 291.67 C-51.27 290.77 -51.19 289.88 -51.12 288.95 C-51 287.52 -51 287.52 -50.88 286.06 C-49.62 271.82 -47.89 257.96 -44.82 243.98 C-44.02 240.35 -43.32 236.71 -42.67 233.05 C-41.59 227 -40.37 221.02 -38.88 215.06 C-38.43 213.26 -38.43 213.26 -37.97 211.42 C-36.72 208.06 -35.63 206.49 -32.81 204.31 C-30.77 203.59 -30.77 203.59 -28.62 203.25 C-25.45 202.66 -22.49 201.94 -19.44 200.88 C-12.08 198.34 -4.62 196.45 3 194.88 C8.98 193.62 14.81 192.08 20.66 190.35 C23.07 189.64 25.48 188.96 27.9 188.31 C33.65 186.74 39.02 185.18 44.26 182.32 C46.55 181.12 48.9 180.19 51.31 179.25 C67.06 173.04 80.92 162.88 91.19 149.31 C91.19 148.65 91.19 147.99 91.19 147.31 C91.85 147.31 92.51 147.31 93.19 147.31 C100.33 134.83 106.91 122.02 107.19 107.31 C107.21 106.13 107.24 104.94 107.27 103.72 C107.31 99.91 107.27 96.12 107.19 92.31 C107.18 91.02 107.18 91.02 107.17 89.69 C106.59 77.32 100.33 65.15 93.19 55.31 C92.6 54.49 92.01 53.67 91.4 52.82 C88.06 48.34 84.73 44.59 80.19 41.31 C79.53 41.31 78.87 41.31 78.19 41.31 C78.19 40.65 78.19 39.99 78.19 39.31 C74.97 37 74.97 37 71.19 36.31 C71.19 35.65 71.19 34.99 71.19 34.31 C63.99 30.62 56.85 27 49.27 24.14 C47.19 23.31 47.19 23.31 45.31 22.34 C30.25 15.03 11.8 15.81 -4.5 15.81 C-5.49 15.81 -6.48 15.8 -7.51 15.8 C-25.9 15.77 -43.59 17.94 -61.56 21.81 Z M-134.81 115.31 C-136.95 124.97 -136.95 124.97 -138.25 134.75 C-138.64 139.04 -139.69 143.15 -140.75 147.31 C-140.93 148.02 -141.11 148.72 -141.29 149.44 C-142.01 152.26 -142.74 155.06 -143.55 157.85 C-145.1 163.49 -144.7 168.64 -144.16 174.43 C-143.85 177.86 -143.65 181.26 -143.48 184.7 C-143.15 191.56 -142.48 198.23 -141.35 205.01 C-139.89 213.97 -138.84 222.94 -138.31 232 C-137.97 237.73 -137.28 243.29 -136.35 248.95 C-134.75 258.96 -133.71 268.9 -133.2 279.02 C-132.82 286.18 -131.85 293.22 -130.81 300.31 C-129.8 307.42 -128.82 314.45 -128.5 321.62 C-127.85 332 -125.48 342.15 -123.42 352.32 C-122.9 354.87 -122.4 357.42 -121.92 359.97 C-120.32 372.02 -120.32 372.02 -114.81 382.31 C-105.37 385.06 -95.63 386.01 -85.88 386.88 C-78.61 387.52 -71.78 388.15 -64.81 390.31 C-62.02 390.48 -62.02 390.48 -59.81 390.31 C-57.74 382.8 -55.74 375.28 -54 367.69 C-53.75 366.58 -53.49 365.48 -53.23 364.34 C-52.81 361.29 -53.14 359.28 -53.81 356.31 C-54.39 356.31 -54.97 356.31 -55.56 356.31 C-61.61 356.29 -67.66 356.23 -73.72 356.16 C-75.97 356.14 -78.22 356.12 -80.47 356.12 C-83.73 356.11 -86.98 356.07 -90.24 356.02 C-91.73 356.03 -91.73 356.03 -93.25 356.03 C-100.45 355.88 -106.73 354.33 -112.81 350.31 C-115.14 344.22 -113.22 338.06 -112.23 331.74 C-111.66 327.05 -112.13 322.96 -112.81 318.31 C-113.13 315.52 -113.44 312.73 -113.75 309.94 C-113.84 309.18 -113.92 308.42 -114.01 307.64 C-114.49 303.38 -114.94 299.11 -115.35 294.84 C-115.44 293.94 -115.53 293.04 -115.62 292.11 C-115.79 290.36 -115.95 288.61 -116.11 286.86 C-116.19 286.06 -116.27 285.27 -116.35 284.45 C-116.41 283.74 -116.48 283.04 -116.55 282.32 C-116.82 280.26 -117.3 278.32 -117.81 276.31 C-117.99 274.31 -118.13 272.31 -118.25 270.31 C-118.63 264.93 -119.34 259.71 -120.27 254.41 C-121.64 246.55 -122.77 238.7 -123.31 230.75 C-123.68 225.37 -124.42 220.13 -125.27 214.81 C-126.9 204.25 -127.92 193.72 -128.42 183.05 C-128.71 177.21 -129.34 171.46 -130.08 165.66 C-130.81 159.79 -131.2 153.93 -131.47 148.02 C-131.61 145.14 -131.81 142.35 -132.3 139.5 C-133.05 134.83 -133.18 130.16 -133.38 125.44 C-133.42 124.46 -133.46 123.49 -133.51 122.48 C-133.61 120.09 -133.71 117.7 -133.81 115.31 C-134.14 115.31 -134.47 115.31 -134.81 115.31 Z M83.12 187.06 C74.61 191.82 65.63 194.91 56.45 198.15 C53.91 199.05 51.39 199.98 48.88 200.94 C47.05 201.62 47.05 201.62 45.19 202.31 C44.58 202.55 43.97 202.78 43.34 203.02 C37.44 205.15 31.38 206.45 25.26 207.75 C21.5 208.56 17.77 209.4 14.06 210.42 C3.43 213.35 -6.78 214.31 -17.81 214.31 C-17.87 215.9 -17.91 217.48 -17.94 219.06 C-17.96 219.94 -17.98 220.83 -18.01 221.73 C-17.72 227 -16.75 232.13 -15.81 237.31 C-10.66 237.19 -5.5 237.07 -0.35 236.94 C1.4 236.9 3.15 236.86 4.9 236.82 C32.71 236.17 52.33 232.4 72.71 211.87 C80.42 203.73 85.88 194.09 91.19 184.31 C87.6 184.31 86.21 185.27 83.12 187.06 Z " fill="#000000" transform="translate(780.8125,51.6875)"/>
<path d="M0 0 C1.84 0.94 3.68 1.86 5.54 2.77 C12.02 5.94 18.31 9.32 24.51 13.01 C28.31 15.22 32.14 16.93 36.24 18.53 C46.13 22.43 50.24 26.91 54.51 36.61 C56.08 40.37 57.5 44.17 58.91 47.98 C59.64 49.76 60.37 51.53 61.1 53.3 C62.72 57.33 64 61.4 65.2 65.57 C65.86 67.8 66.59 69.98 67.35 72.17 C71.93 85.75 74.92 99.52 76.04 113.8 C76.17 115.28 76.17 115.28 76.3 116.8 C77.38 130.04 76.75 142.84 75.27 156.03 C75.17 157.13 75.07 158.23 74.96 159.36 C74.86 160.35 74.75 161.33 74.64 162.35 C74.69 165.11 74.69 165.11 76.7 167.19 C78.55 168.69 80.33 170.04 82.37 171.27 C82.99 171.66 83.6 172.04 84.24 172.44 C85.54 173.23 86.84 174.02 88.13 174.81 C89.76 175.82 91.34 176.9 92.91 177.98 C92.91 178.64 92.91 179.3 92.91 179.98 C93.43 180.06 93.96 180.13 94.49 180.21 C97.96 181.32 100.72 183.35 103.66 185.42 C104.27 185.83 104.87 186.24 105.49 186.66 C107 187.71 108.46 188.84 109.91 189.98 C109.91 190.64 109.91 191.3 109.91 191.98 C110.46 192.23 111.01 192.47 111.58 192.72 C114.44 194.27 116.73 196.2 119.23 198.3 C122.44 200.98 125.64 203.56 129.1 205.92 C130.03 206.6 130.96 207.28 131.91 207.98 C131.91 208.64 131.91 209.3 131.91 209.98 C132.84 210.45 132.84 210.45 133.79 210.92 C135.16 211.61 136.54 212.3 137.91 212.98 C137.91 213.64 137.91 214.3 137.91 214.98 C138.59 215.2 139.27 215.41 139.97 215.63 C143.84 217.41 146.78 219.9 150.04 222.61 C157.17 228.43 164.5 233.88 172.04 239.18 C173.05 239.9 174.06 240.62 175.1 241.36 C176.48 242.33 176.48 242.33 177.89 243.32 C178.89 244.14 178.89 244.14 179.91 244.98 C179.91 245.64 179.91 246.3 179.91 246.98 C180.51 247.23 181.11 247.48 181.73 247.73 C184.73 249.45 186.42 251.44 187.48 254.76 C190.3 269.15 185.78 285.85 177.91 297.98 C173.98 302.93 169.89 304.75 163.72 305.69 C159.51 306.13 155.3 306.43 151.08 306.71 C147.47 307.02 144.03 307.65 140.5 308.43 C119.13 313.05 96.7 315.24 74.91 312.98 C73.63 312.86 72.34 312.73 71.02 312.6 C63.99 311.75 57.4 310.11 50.63 308.06 C45.81 306.67 40.94 305.55 36.04 304.47 C31.7 303.49 27.53 302.24 23.32 300.79 C18.86 299.29 14.35 297.97 9.85 296.61 C7.82 295.99 5.78 295.38 3.75 294.76 C2.26 294.31 2.26 294.31 0.75 293.85 C-3.18 292.65 -7.1 291.45 -11.02 290.23 C-12.21 289.87 -13.39 289.5 -14.61 289.13 C-17.76 288.09 -20.84 286.96 -23.93 285.78 C-27.97 284.29 -32.06 282.96 -36.15 281.61 C-37.07 281.31 -37.98 281 -38.93 280.69 C-43.13 279.29 -47.33 277.9 -51.54 276.52 C-52.21 276.3 -52.88 276.08 -53.57 275.86 C-55.33 275.28 -57.1 274.7 -58.86 274.13 C-61.07 273.34 -63.25 272.48 -65.41 271.55 C-69.74 269.71 -74.13 268.19 -78.59 266.67 C-85.94 264.14 -93.15 261.4 -100.35 258.46 C-105.2 256.51 -110.15 254.82 -115.1 253.16 C-118.56 251.98 -121.81 250.67 -125.06 248.99 C-129.11 246.9 -133.26 245.42 -137.59 243.98 C-142.71 242.29 -147.51 240.37 -152.31 237.89 C-154.44 236.81 -156.61 235.91 -158.84 235.05 C-169.08 231.03 -179.15 226.71 -189.09 221.98 C-190.74 221.23 -190.74 221.23 -192.43 220.45 C-193.75 219.73 -193.75 219.73 -195.09 218.98 C-195.48 217.33 -195.81 215.66 -196.09 213.98 C-196.83 213.32 -197.57 212.66 -198.34 211.98 C-207.9 203 -208.92 184.65 -209.32 172.27 C-209.93 147.93 -208.94 122.34 -198.04 100.03 C-196.94 97.67 -196.12 95.27 -195.27 92.8 C-189.55 76.85 -180.32 61.73 -170.59 47.92 C-170.16 47.32 -169.74 46.72 -169.31 46.1 C-168.29 44.69 -167.19 43.33 -166.09 41.98 C-165.43 41.98 -164.77 41.98 -164.09 41.98 C-163.83 41.41 -163.57 40.83 -163.3 40.23 C-162 37.83 -160.54 36.06 -158.71 34.05 C-156.63 31.74 -154.67 29.45 -152.77 26.98 C-151.94 25.99 -151.94 25.99 -151.09 24.98 C-150.43 24.98 -149.77 24.98 -149.09 24.98 C-148.76 23.99 -148.43 23 -148.09 21.98 C-147.43 21.98 -146.77 21.98 -146.09 21.98 C-146.09 21.32 -146.09 20.66 -146.09 19.98 C-143.62 17.44 -140.81 15.25 -138.09 12.98 C-137.35 12.36 -136.61 11.74 -135.86 11.1 C-118.04 -3.61 -101.14 -10.02 -78.61 -14.51 C-76.59 -14.91 -74.58 -15.34 -72.57 -15.77 C-46.45 -20.95 -22.88 -11.89 0 0 Z M-107.09 15.98 C-107.09 16.64 -107.09 17.3 -107.09 17.98 C-107.61 18.19 -108.14 18.4 -108.68 18.62 C-112.1 20.56 -114.74 23.17 -117.59 25.86 C-118.15 26.39 -118.72 26.92 -119.31 27.47 C-120.91 28.96 -122.5 30.47 -124.09 31.98 C-124.88 32.73 -125.67 33.48 -126.49 34.24 C-128.31 35.84 -128.31 35.84 -128.09 37.98 C-128.75 37.98 -129.41 37.98 -130.09 37.98 C-133.72 41.46 -133.72 41.46 -135.09 45.98 C-135.75 45.98 -136.41 45.98 -137.09 45.98 C-139.4 49.21 -139.4 49.21 -140.09 52.98 C-140.75 52.98 -141.41 52.98 -142.09 52.98 C-143.71 55.12 -143.71 55.12 -145.34 57.86 C-145.96 58.87 -146.58 59.87 -147.22 60.91 C-147.83 61.92 -148.45 62.94 -149.09 63.98 C-149.62 64.86 -150.15 65.73 -150.7 66.63 C-152.18 69.07 -153.64 71.52 -155.09 73.98 C-155.53 74.74 -155.97 75.49 -156.43 76.26 C-159.54 81.66 -161.87 87.17 -164.09 92.98 C-164.75 94.63 -165.42 96.28 -166.09 97.92 C-168.21 103.23 -170.17 108.6 -172.09 113.98 C-172.34 114.67 -172.6 115.35 -172.86 116.05 C-175.27 122.7 -176.63 129.61 -178.11 136.51 C-178.89 140.14 -179.76 143.75 -180.65 147.36 C-185.47 168.59 -186.53 190.34 -188.09 211.98 C-187.32 212.1 -186.55 212.21 -185.76 212.32 C-179.45 213.29 -173.66 214.56 -167.71 216.86 C-161.22 219.26 -154.75 221.28 -148.08 223.13 C-145.07 223.99 -142.19 225.01 -139.28 226.16 C-134.41 227.99 -129.45 229.55 -124.51 231.18 C-121.75 232.1 -118.99 233.02 -116.23 233.95 C-103.73 238.16 -103.73 238.16 -91.15 242.11 C-85.49 243.81 -79.94 245.78 -74.38 247.77 C-70.14 249.28 -65.9 250.69 -61.59 251.98 C-56.53 253.5 -51.56 255.2 -46.59 256.98 C-39.48 259.53 -32.32 261.81 -25.09 263.98 C-22.31 264.83 -19.54 265.69 -16.77 266.55 C-15.8 266.84 -15.8 266.84 -14.82 267.15 C-11.62 268.14 -8.47 269.2 -5.34 270.39 C-0.08 272.39 5.26 274.15 10.6 275.92 C11.67 276.28 12.74 276.63 13.84 277 C19.22 278.79 24.61 280.53 30.04 282.17 C41.61 285.68 52.91 289.93 63.93 294.9 C69.78 297.52 76.45 299.97 82.91 298.98 C88.78 295.04 92.32 289.87 95.7 283.75 C98.45 278.91 101.84 274.57 105.2 270.15 C107.95 266.92 107.95 266.92 108.91 262.98 C109.57 262.98 110.23 262.98 110.91 262.98 C112.27 261.43 112.27 261.43 113.54 259.48 C113.99 258.84 114.43 258.19 114.89 257.52 C115.23 257.01 115.57 256.51 115.91 255.98 C114.43 251.44 110.81 249.81 106.91 247.55 C96.79 241.46 87.06 234.66 77.8 227.31 C76.03 225.79 76.03 225.79 73.91 225.98 C73.91 225.32 73.91 224.66 73.91 223.98 C70.69 221.67 70.69 221.67 66.91 220.98 C66.91 220.32 66.91 219.66 66.91 218.98 C65.5 217.71 65.5 217.71 63.62 216.48 C62.91 215.99 62.21 215.5 61.48 215 C60.72 214.48 59.95 213.96 59.16 213.42 C57.59 212.33 56.01 211.23 54.43 210.14 C53.66 209.6 52.88 209.06 52.08 208.5 C49.29 206.55 46.57 204.53 43.85 202.48 C42.91 201.78 41.98 201.07 41.01 200.34 C38.66 198.55 36.31 196.75 33.97 194.94 C24.43 187.56 24.43 187.56 13.73 182.05 C11.42 180.7 10.82 179.48 9.91 176.98 C10.17 173.87 11.08 171.61 12.35 168.73 C16.72 158.72 17.13 147.62 14.91 136.98 C14.79 135.07 14.69 133.15 14.6 131.23 C14.14 124.16 13.11 117.23 11.98 110.23 C11.72 108.66 11.72 108.66 11.46 107.04 C8.69 90.26 5.63 74.26 -2.09 58.98 C-2.64 57.75 -2.64 57.75 -3.2 56.48 C-6.95 48.21 -12.58 41.16 -18.09 33.98 C-18.82 33.01 -19.55 32.04 -20.3 31.04 C-20.89 30.36 -21.48 29.68 -22.09 28.98 C-22.75 28.98 -23.41 28.98 -24.09 28.98 C-24.35 28.35 -24.62 27.71 -24.9 27.05 C-25.97 24.65 -25.97 24.65 -29.09 23.98 C-29.09 23.32 -29.09 22.66 -29.09 21.98 C-32.14 18.96 -32.14 18.96 -36.09 17.98 C-36.09 17.32 -36.09 16.66 -36.09 15.98 C-58.16 -1.57 -85.51 -1.2 -107.09 15.98 Z M-0.09 13.98 C1.29 15.53 1.29 15.53 2.91 16.98 C3.57 16.98 4.23 16.98 4.91 16.98 C4.91 17.64 4.91 18.3 4.91 18.98 C6.6 20.65 6.6 20.65 8.73 22.36 C10.98 24.22 12.82 25.85 14.55 28.21 C15.23 29.09 15.23 29.09 15.91 29.98 C16.57 29.98 17.23 29.98 17.91 29.98 C18.57 31.63 19.23 33.28 19.91 34.98 C20.57 34.98 21.23 34.98 21.91 34.98 C23.12 37.32 24.08 39.48 24.91 41.98 C25.57 41.98 26.23 41.98 26.91 41.98 C27.14 42.62 27.37 43.26 27.6 43.92 C28.7 46.47 29.88 48.67 31.29 51.05 C34.34 56.44 36.09 62.09 37.91 67.98 C38.7 70.31 39.5 72.63 40.3 74.95 C48.35 101.66 46.99 137.05 37.06 162.98 C34.01 170.38 34.01 170.38 34.91 177.98 C37.2 179.86 37.2 179.86 40.04 181.48 C40.97 182.05 41.9 182.62 42.86 183.2 C45.01 184.46 47.17 185.69 49.33 186.91 C53.04 189.02 56.57 191.35 60.1 193.73 C61.43 194.63 62.76 195.52 64.09 196.41 C64.74 196.85 65.39 197.29 66.06 197.74 C68.63 199.46 71.21 201.16 73.79 202.86 C79.59 206.72 85.28 210.74 90.95 214.77 C92.94 216.18 94.92 217.59 96.91 218.98 C97.5 219.4 98.08 219.81 98.68 220.23 C101.53 222.35 101.53 222.35 104.91 222.98 C104.91 223.64 104.91 224.3 104.91 224.98 C105.9 224.98 106.89 224.98 107.91 224.98 C107.91 225.64 107.91 226.3 107.91 226.98 C111.14 229.3 111.14 229.3 114.91 229.98 C114.91 230.64 114.91 231.3 114.91 231.98 C116.6 233.18 118.34 234.29 120.1 235.36 C123.11 237.19 125.91 238.98 128.65 241.21 C130.7 243.19 130.7 243.19 132.91 242.98 C132.91 243.64 132.91 244.3 132.91 244.98 C134.67 246.76 134.67 246.76 136.85 248.55 C137.58 249.17 138.31 249.79 139.07 250.43 C139.68 250.94 140.29 251.45 140.91 251.98 C141.91 252.98 141.91 252.98 142.29 255.3 C141.91 257.98 141.91 257.98 139.66 259.73 C135.77 262.92 134.7 266.35 132.91 270.98 C132.04 273.24 131.16 275.5 130.29 277.75 C129.67 279.34 129.07 280.92 128.46 282.51 C127.17 285.91 125.83 289.15 124.2 292.41 C122.77 294.8 122.77 294.8 122.91 296.98 C132.53 297.51 144.63 297.77 152.72 291.61 C154.12 289.71 154.71 288.06 155.35 285.8 C156.53 282.02 157.99 278.66 159.8 275.15 C165.23 265.07 165.23 265.07 166.91 253.98 C164.42 250.72 162.81 249.28 158.91 247.98 C158.91 247.32 158.91 246.66 158.91 245.98 C157.92 245.98 156.93 245.98 155.91 245.98 C155.91 245.32 155.91 244.66 155.91 243.98 C152.69 241.67 152.69 241.67 148.91 240.98 C148.91 240.32 148.91 239.66 148.91 238.98 C147.04 237.61 147.04 237.61 144.54 236.17 C130.9 227.74 117.54 217.99 105.21 207.74 C103.13 205.78 103.13 205.78 100.91 205.98 C100.91 205.32 100.91 204.66 100.91 203.98 C99.2 202.4 99.2 202.4 97.04 200.86 C96.32 200.32 95.6 199.78 94.86 199.23 C93.02 197.81 93.02 197.81 90.91 197.98 C90.91 197.32 90.91 196.66 90.91 195.98 C89.88 195.41 88.85 194.83 87.79 194.23 C85.31 192.83 82.94 191.35 80.6 189.73 C78.17 187.8 78.17 187.8 75.91 187.98 C75.91 187.32 75.91 186.66 75.91 185.98 C74.27 185.03 74.27 185.03 72.6 184.05 C71.99 183.69 71.37 183.33 70.74 182.96 C68.78 181.85 68.78 181.85 65.91 180.98 C65.91 180.32 65.91 179.66 65.91 178.98 C63.96 177.24 63.96 177.24 61.54 175.48 C59.19 173.72 56.99 172.07 54.91 169.98 C54.38 165.64 54.91 162.66 56.79 158.8 C61.41 149.15 61.24 138.35 61.17 127.86 C61.16 125.75 61.17 123.64 61.19 121.54 C61.2 109.03 60.19 96.66 56.91 84.55 C55.84 80.5 54.77 76.47 53.98 72.36 C50.89 58.26 44.35 44.18 38.29 31.11 C37.95 30.37 37.6 29.63 37.25 28.87 C33.62 23.75 26.72 22.39 21.04 20.48 C11.17 17.15 11.17 17.15 7.03 15.27 C3.86 13.73 3.86 13.73 -0.09 13.98 Z " fill="#000000" transform="translate(263.0859375,427.01513671875)"/>
<path d="M0 0 C1.29 -0.01 2.58 -0.02 3.91 -0.03 C8.15 0.6 9.76 1.19 12.5 4.5 C14.14 10.3 13.44 16.24 12.62 22.12 C12.43 23.71 12.23 25.29 12.04 26.87 C11.9 28.04 11.9 28.04 11.75 29.23 C11.38 32.57 11.19 35.9 11 39.25 C10.43 48.57 9 57.69 7.38 66.88 C6.58 71.5 6.32 75.81 6.5 80.5 C11.15 81.87 15.47 82.64 20.31 82.94 C26.07 83.32 31.73 84.02 37.44 84.88 C38.64 85.05 38.64 85.05 39.88 85.22 C45.91 86.16 50.39 88.09 55.5 91.5 C56.64 94.51 56.73 95.94 55.5 98.94 C50.13 105.82 43.19 109.59 35.5 113.5 C34.22 114.15 34.22 114.15 32.92 114.81 C30.45 116.05 27.98 117.28 25.5 118.5 C23.01 119.74 20.52 120.99 18.03 122.24 C16.27 123.11 14.51 123.99 12.75 124.86 C11.87 125.3 10.98 125.73 10.06 126.19 C9.26 126.58 8.46 126.98 7.63 127.39 C5.3 128.56 5.3 128.56 2.5 130.5 C2.05 132.72 2.05 132.72 2.14 135.32 C2.14 136.32 2.14 137.32 2.13 138.35 C2.16 139.97 2.16 139.97 2.19 141.62 C2.2 142.73 2.21 143.84 2.22 144.98 C2.38 164.4 2.38 164.4 5.5 183.5 C5.68 185.56 5.82 187.62 5.94 189.69 C6.19 193.83 6.53 197.91 7.11 202.02 C7.22 202.78 7.32 203.53 7.43 204.31 C7.64 205.79 7.86 207.26 8.1 208.73 C8.58 212.17 8.64 214.2 7.16 217.39 C3.62 221.9 0.09 223.31 -5.5 224.5 C-13.09 225.31 -19.87 224.25 -26.04 219.58 C-34.72 211.97 -42.22 203.19 -48.5 193.5 C-48.5 192.84 -48.5 192.18 -48.5 191.5 C-49.16 191.5 -49.82 191.5 -50.5 191.5 C-51.04 190.55 -51.57 189.6 -52.12 188.62 C-53.85 185.6 -55.63 182.61 -57.44 179.62 C-60.24 174.98 -62.9 170.26 -65.5 165.5 C-69.33 167.39 -73.16 169.3 -76.97 171.23 C-79.85 172.68 -82.74 174.09 -85.66 175.46 C-93.94 179.45 -98.84 183.43 -103.5 191.5 C-105.04 193.86 -106.65 196.18 -108.25 198.5 C-108.99 199.59 -109.72 200.69 -110.48 201.81 C-112.5 204.5 -112.5 204.5 -115.5 206.5 C-118.24 206.29 -119.97 205.86 -122.25 204.31 C-124.73 200.72 -124.54 196.6 -124.5 192.38 C-124.5 189.32 -124.69 187.34 -125.5 184.5 C-124.98 184.17 -124.46 183.84 -123.93 183.5 C-119.18 180.27 -116.47 177.36 -113.91 172.25 C-112.11 168.74 -110.1 165.38 -108.06 162 C-107.67 161.35 -107.28 160.71 -106.88 160.04 C-99.65 148.1 -99.65 148.1 -97.5 145.5 C-96.84 145.5 -96.18 145.5 -95.5 145.5 C-95.42 144.95 -95.33 144.4 -95.25 143.84 C-93.94 139.76 -91.01 136.7 -88.41 133.35 C-85.84 129.52 -84.27 126.27 -84.88 121.62 C-85.08 120.92 -85.29 120.22 -85.5 119.5 C-86.16 119.5 -86.82 119.5 -87.5 119.5 C-87.73 119 -87.96 118.51 -88.2 117.99 C-94.58 104.29 -101.16 90.81 -109.06 77.9 C-111.19 74.34 -113.16 70.69 -115.11 67.03 C-116.27 64.91 -117.51 62.91 -118.81 60.88 C-120.86 56.78 -121.9 53.1 -121.5 48.5 C-119.06 45.14 -116.88 43.73 -112.8 43.05 C-98.66 42.1 -86.62 48.75 -74.64 55.71 C-72.02 57.2 -69.57 58.38 -66.75 59.44 C-61.99 61.25 -57.48 63.43 -52.95 65.74 C-50.58 66.73 -50.58 66.73 -48.57 65.88 C-45.81 64.04 -44.64 61.99 -42.93 59.14 C-42.26 58.05 -41.6 56.96 -40.92 55.84 C-40.21 54.67 -39.51 53.49 -38.81 52.31 C-38.09 51.11 -37.37 49.91 -36.64 48.71 C-35.22 46.36 -33.8 44.01 -32.39 41.65 C-30.87 39.12 -29.33 36.61 -27.77 34.11 C-23.09 26.61 -19.19 18.96 -15.68 10.84 C-12.18 3.02 -8.98 -0.07 0 0 Z M-23.5 61.5 C-24.96 63.28 -24.96 63.28 -26.38 65.56 C-26.91 66.38 -27.44 67.21 -27.99 68.05 C-29.24 70.08 -30.42 72.11 -31.56 74.19 C-33.69 77.83 -35.44 80.59 -38.5 83.5 C-47.06 82.8 -55.41 79.09 -63.14 75.51 C-69.04 72.99 -75.25 70.97 -81.5 69.5 C-80.84 73.24 -79.17 75.9 -77.15 79.09 C-76.46 80.18 -75.78 81.26 -75.08 82.39 C-74.71 82.96 -74.35 83.53 -73.98 84.12 C-70.77 89.21 -67.64 94.36 -64.5 99.5 C-64 100.31 -63.51 101.12 -63 101.96 C-57.3 111.45 -57.3 111.45 -57.71 115.65 C-58.71 117.89 -59.99 119.57 -61.5 121.5 C-62.62 123.33 -63.72 125.16 -64.81 127 C-67.64 131.55 -70.5 136.08 -73.36 140.61 C-74.04 141.69 -74.72 142.77 -75.42 143.88 C-76.8 146.07 -78.18 148.26 -79.57 150.45 C-80.21 151.46 -80.84 152.47 -81.5 153.51 C-82.08 154.42 -82.65 155.34 -83.25 156.28 C-84.66 158.37 -84.66 158.37 -84.5 160.5 C-79.71 159.14 -75.9 157.02 -71.81 154.25 C-66.61 150.81 -61.35 147.69 -55.84 144.78 C-53.83 143.68 -51.99 142.51 -50.12 141.19 C-47.49 139.49 -45.59 138.86 -42.5 138.5 C-42 140.26 -42 140.26 -41.5 142.06 C-39.94 146.75 -37.81 151.02 -35.5 155.38 C-35.16 156.03 -34.81 156.68 -34.46 157.36 C-32.78 160.46 -31.22 163.21 -28.5 165.5 C-28.34 161 -28.34 161 -28.99 156.58 C-30.03 152.33 -29.68 147.85 -29.69 143.5 C-29.7 142.5 -29.71 141.5 -29.72 140.48 C-29.73 139.51 -29.73 138.55 -29.73 137.56 C-29.73 136.69 -29.74 135.81 -29.74 134.91 C-29.48 132.3 -28.92 130.7 -27.5 128.5 C-25.22 127.45 -25.22 127.45 -22.5 126.5 C-20.63 125.45 -18.78 124.36 -16.94 123.25 C-10.93 119.69 -4.77 116.56 1.5 113.5 C3.5 112.5 5.5 111.5 7.5 110.5 C7.5 109.84 7.5 109.18 7.5 108.5 C8.19 108.42 8.88 108.34 9.59 108.25 C13.21 107.32 16.02 105.52 19.12 103.5 C25.16 99.61 25.16 99.61 28.5 98.5 C28.5 97.84 28.5 97.18 28.5 96.5 C23.22 94.7 18.27 94.17 12.72 93.77 C7.27 93.31 1.9 92.39 -3.5 91.5 C-5.07 91.26 -6.65 91.01 -8.22 90.77 C-9.85 90.52 -11.49 90.26 -13.12 90 C-13.91 89.88 -14.69 89.76 -15.5 89.64 C-19.11 89.06 -21.42 88.56 -24.5 86.5 C-25 82.32 -24.11 78.83 -23.01 74.8 C-22.04 70.43 -21.81 65.96 -21.5 61.5 C-22.16 61.5 -22.82 61.5 -23.5 61.5 Z " fill="#000000" transform="translate(967.5,328.5)"/>
<path d="M0 0 C0.01 0.68 0.03 1.36 0.04 2.06 C0.35 14.99 0.73 27.42 4 40 C4.23 40.92 4.45 41.84 4.69 42.79 C13.72 77.65 27.88 112.99 49.04 142.34 C50 144 50 144 50 147 C50.66 147 51.32 147 52 147 C53.2 148.68 54.31 150.42 55.38 152.19 C57.21 155.2 59 158 61.23 160.74 C63 163 63 163 63 165 C63.66 165 64.32 165 65 165 C66.19 166.49 67.3 168.05 68.38 169.62 C72.3 175.2 76.61 180.31 81.14 185.4 C85 189.79 85 189.79 85 192 C85.99 192.33 86.98 192.66 88 193 C88 193.66 88 194.32 88 195 C88.66 195 89.32 195 90 195 C91.34 196.36 91.34 196.36 92.94 198.31 C96.08 202.02 99.38 205.5 102.81 208.94 C103.29 209.42 103.77 209.91 104.27 210.41 C106.88 213.03 106.88 213.03 110 215 C110 215.66 110 216.32 110 217 C110.99 217.33 111.98 217.66 113 218 C113 218.66 113 219.32 113 220 C113.55 220.25 114.1 220.49 114.67 220.75 C117.45 222.24 119.78 224.04 122.25 226 C123.14 226.7 124.03 227.4 124.95 228.12 C125.97 229.05 125.97 229.05 127 230 C127 230.66 127 231.32 127 232 C127.62 232.31 128.24 232.62 128.88 232.94 C130.25 233.62 131.62 234.31 133 235 C133 235.66 133 236.32 133 237 C134.32 237.33 135.64 237.66 137 238 C137 238.66 137 239.32 137 240 C137.72 240.25 138.43 240.5 139.17 240.75 C142.3 242.13 144.57 243.82 147.25 245.94 C152.32 249.82 157.51 253.41 162.88 256.88 C163.59 257.34 164.3 257.8 165.04 258.28 C168.92 260.78 172.82 263.02 177 265 C177 265.66 177 266.32 177 267 C177.73 267.11 178.46 267.22 179.21 267.33 C182.19 268.05 184.11 269.1 186.69 270.75 C193.95 275.25 201.41 278.88 209.37 281.97 C212.26 283.1 215.13 284.3 218 285.5 C222.51 287.39 227.04 289.24 231.59 291.04 C233.18 291.67 234.77 292.33 236.35 293 C242.33 295.5 248.39 297.28 254.64 299 C257.47 299.84 260.1 300.79 262.81 301.94 C274.74 306.91 287.53 309.7 300.09 312.56 C302.82 313.19 305.54 313.87 308.25 314.56 C317.81 316.96 327.34 319.1 337.05 320.73 C344.16 321.96 351.16 323.59 358.16 325.29 C363.4 326.53 368.45 327.34 373.83 327.66 C377.29 328.2 379.32 329.81 382 332 C381.63 334.69 381.25 335.78 379.19 337.62 C374.65 340.48 371.7 341.27 366.24 341.34 C365.59 341.34 364.93 341.35 364.25 341.36 C362.13 341.38 360 341.38 357.88 341.38 C356.79 341.38 356.79 341.38 355.68 341.38 C345.02 341.36 335.22 340.42 324.95 337.51 C321.65 336.65 318.3 336.16 314.94 335.62 C303.49 333.72 292.25 330.82 281 328 C280.25 327.81 279.51 327.63 278.74 327.43 C267.73 324.64 256.86 321.32 246 318 C245.23 317.77 244.46 317.53 243.66 317.29 C241.5 316.64 239.34 315.98 237.19 315.31 C235.96 314.94 234.74 314.56 233.48 314.18 C229.89 312.96 226.48 311.5 223 310 C221.13 309.37 219.26 308.77 217.38 308.19 C211.73 306.35 206.46 303.99 201.11 301.45 C198.31 300.14 195.5 298.98 192.62 297.88 C189.71 296.74 187.01 295.52 184.31 293.94 C181.58 292.34 178.92 291.11 176 289.9 C168.89 286.7 162.2 282.56 155.55 278.51 C152.8 276.88 150.01 275.38 147.19 273.88 C143.46 271.87 140.24 269.74 137 267 C136.01 266.67 135.02 266.34 134 266 C134 265.34 134 264.68 134 264 C133.03 263.69 133.03 263.69 132.04 263.38 C127.76 261.44 124.17 258.74 120.38 256 C118.86 254.92 117.35 253.83 115.84 252.75 C115.17 252.27 114.51 251.79 113.82 251.3 C112.24 250.17 110.62 249.08 109 248 C109 247.34 109 246.68 109 246 C107.94 245.66 107.94 245.66 106.86 245.32 C103.36 243.7 101.1 241.58 98.31 238.94 C94.93 235.58 94.93 235.58 91 233 C91 232.34 91 231.68 91 231 C90.41 230.73 89.81 230.46 89.2 230.18 C87.05 229.03 85.55 227.86 83.79 226.2 C82.89 225.36 82.89 225.36 81.97 224.51 C81.34 223.91 80.71 223.31 80.06 222.69 C79.41 222.07 78.75 221.45 78.07 220.81 C73.62 216.59 69.22 212.32 64.88 208 C64.36 207.49 63.84 206.97 63.3 206.44 C54 197.1 54 197.1 54 194 C53.01 193.67 52.02 193.34 51 193 C51 192.34 51 191.68 51 191 C50.34 191 49.68 191 49 191 C47.2 188.91 45.53 186.82 43.88 184.62 C43.41 184.02 42.94 183.42 42.46 182.8 C39 178.26 39 178.26 39 176 C38.34 176 37.68 176 37 176 C35.74 174.59 35.74 174.59 34.31 172.59 C33.78 171.85 33.25 171.12 32.71 170.36 C32.15 169.56 31.58 168.76 31 167.94 C30.13 166.71 30.13 166.71 29.23 165.46 C17.57 148.99 6.79 132.2 -2 114 C-3.14 111.73 -4.29 109.46 -5.44 107.19 C-13.04 91.92 -20.09 76.71 -24 60 C-24.17 59.28 -24.34 58.57 -24.51 57.83 C-25.91 51.53 -26.35 45.51 -26.31 39.06 C-26.31 38.1 -26.3 37.13 -26.3 36.13 C-26.1 24.09 -22.98 10.72 -14 2 C-8.72 -1.65 -6.15 -2.46 0 0 Z " fill="#000000" transform="translate(243,862)"/>
<path d="M0 0 C0.76 0.5 1.53 0.99 2.31 1.5 C2.31 2.16 2.31 2.82 2.31 3.5 C2.97 3.5 3.63 3.5 4.31 3.5 C10.85 14.19 4.79 34.9 2.75 46.59 C2 51.54 1.65 56.51 1.31 61.5 C1.82 61.6 2.32 61.7 2.84 61.8 C6.3 62.78 9.53 64.24 12.81 65.69 C13.88 66.16 13.88 66.16 14.96 66.63 C20.26 68.98 25.42 71.53 30.58 74.16 C33.92 75.8 37.32 77.15 40.78 78.49 C45.36 80.32 49.83 82.42 54.31 84.5 C54.31 85.16 54.31 85.82 54.31 86.5 C55.3 86.83 56.29 87.16 57.31 87.5 C57.69 90.25 57.69 90.25 57.31 93.5 C53.67 96.78 50.19 97.85 45.5 98.97 C41.91 99.84 38.37 100.87 34.81 101.88 C27.47 103.94 20.09 105.83 12.67 107.61 C9.43 108.39 9.43 108.39 6.93 109.49 C3.16 110.95 -0.74 111.69 -4.69 112.5 C-5.78 136.36 -5.78 136.36 -0.07 159.25 C1.41 162.74 1.58 164 0.31 167.5 C-0.35 168.49 -1.01 169.48 -1.69 170.5 C-2.35 170.5 -3.01 170.5 -3.69 170.5 C-3.69 171.16 -3.69 171.82 -3.69 172.5 C-11.34 174.41 -17.66 173.92 -24.69 170.5 C-27.19 168.94 -27.19 168.94 -28.69 167.5 C-28.69 166.84 -28.69 166.18 -28.69 165.5 C-29.31 165.19 -29.92 164.88 -30.56 164.56 C-31.94 163.88 -33.31 163.19 -34.69 162.5 C-34.69 161.84 -34.69 161.18 -34.69 160.5 C-35.27 160.24 -35.85 159.98 -36.44 159.71 C-38.84 158.42 -40.61 156.95 -42.62 155.12 C-44.94 153.05 -47.22 151.09 -49.69 149.19 C-50.35 148.63 -51.01 148.07 -51.69 147.5 C-51.69 146.84 -51.69 146.18 -51.69 145.5 C-52.68 145.17 -53.67 144.84 -54.69 144.5 C-54.69 143.84 -54.69 143.18 -54.69 142.5 C-55.35 142.5 -56.01 142.5 -56.69 142.5 C-56.69 141.84 -56.69 141.18 -56.69 140.5 C-57.68 140.17 -58.67 139.84 -59.69 139.5 C-59.69 138.84 -59.69 138.18 -59.69 137.5 C-60.35 137.5 -61.01 137.5 -61.69 137.5 C-61.69 136.84 -61.69 136.18 -61.69 135.5 C-65.38 133.13 -68.37 133.08 -72.69 133.5 C-74.59 134.21 -74.59 134.21 -76.56 135.19 C-89.16 141.2 -103.27 143.63 -116.89 146.1 C-118.78 146.44 -118.78 146.44 -120.69 147.5 C-142.72 150.45 -142.72 150.45 -150.69 146.5 C-151.35 145.84 -152.01 145.18 -152.69 144.5 C-152.69 138.55 -149.64 135.71 -145.69 131.75 C-141.74 127.96 -141.74 127.96 -138.69 123.5 C-138.03 123.5 -137.37 123.5 -136.69 123.5 C-136.44 122.95 -136.19 122.4 -135.94 121.83 C-134.45 119.05 -132.65 116.72 -130.69 114.25 C-129.64 112.91 -129.64 112.91 -128.56 111.55 C-127.94 110.87 -127.32 110.2 -126.69 109.5 C-126.03 109.5 -125.37 109.5 -124.69 109.5 C-124.38 108.88 -124.07 108.26 -123.75 107.62 C-123.06 106.25 -122.38 104.88 -121.69 103.5 C-121.03 103.5 -120.37 103.5 -119.69 103.5 C-119.42 102.93 -119.15 102.36 -118.88 101.77 C-117.65 99.42 -116.26 97.38 -114.69 95.25 C-114.17 94.54 -113.66 93.84 -113.12 93.11 C-112.65 92.58 -112.18 92.05 -111.69 91.5 C-111.03 91.5 -110.37 91.5 -109.69 91.5 C-109 90.18 -108.34 88.84 -107.69 87.5 C-107.22 86.8 -106.75 86.11 -106.26 85.39 C-105.57 81.89 -106.05 81.39 -107.95 78.5 C-109.07 76.96 -110.21 75.44 -111.38 73.94 C-111.97 73.14 -112.56 72.35 -113.17 71.53 C-117.68 65.57 -122.53 60.04 -127.74 54.69 C-129.69 52.5 -129.69 52.5 -129.69 50.5 C-130.35 50.5 -131.01 50.5 -131.69 50.5 C-133.24 48.93 -133.24 48.93 -135 46.81 C-137.09 44.35 -139.15 42.03 -141.44 39.75 C-146.52 34.67 -146.52 34.67 -147.19 30.06 C-146.54 25.46 -145.34 24.32 -141.69 21.5 C-138.83 20.82 -136.05 20.8 -133.12 20.81 C-126.64 20.82 -126.64 20.82 -120.69 18.5 C-114.68 17.88 -110.69 19.04 -105.18 21.42 C-98.55 24.29 -91.67 26.04 -84.67 27.75 C-79.45 29.06 -74.28 30.57 -69.21 32.39 C-68.02 32.82 -68.02 32.82 -66.81 33.25 C-66.11 33.51 -65.42 33.78 -64.7 34.05 C-62.25 34.6 -61.02 34.41 -58.69 33.5 C-56.73 32.13 -56.73 32.13 -54.88 30.38 C-53.83 29.43 -53.83 29.43 -52.77 28.46 C-50.26 26.1 -47.84 23.66 -45.42 21.21 C-37.61 13.5 -37.61 13.5 -34.69 13.5 C-34.69 12.84 -34.69 12.18 -34.69 11.5 C-32.7 9.76 -30.72 8.15 -28.62 6.56 C-27.78 5.9 -27.78 5.9 -26.92 5.22 C-18.77 -1.03 -9.96 -4.05 0 0 Z M-20.69 20.5 C-20.69 21.16 -20.69 21.82 -20.69 22.5 C-21.35 22.5 -22.01 22.5 -22.69 22.5 C-22.69 23.16 -22.69 23.82 -22.69 24.5 C-23.22 24.75 -23.76 25 -24.31 25.25 C-27.27 26.81 -29.98 28.53 -32.69 30.5 C-32.69 31.16 -32.69 31.82 -32.69 32.5 C-34.69 33.5 -36.69 34.5 -38.69 35.5 C-38.69 36.16 -38.69 36.82 -38.69 37.5 C-39.35 37.5 -40.01 37.5 -40.69 37.5 C-40.69 38.16 -40.69 38.82 -40.69 39.5 C-42.17 40 -42.17 40 -43.69 40.5 C-43.69 41.16 -43.69 41.82 -43.69 42.5 C-44.35 42.5 -45.01 42.5 -45.69 42.5 C-49.32 45.98 -49.32 45.98 -50.69 50.5 C-51.35 50.5 -52.01 50.5 -52.69 50.5 C-52.69 51.16 -52.69 51.82 -52.69 52.5 C-58.07 52.12 -61.71 51.17 -66.42 48.61 C-70.08 46.82 -73.94 45.68 -77.82 44.43 C-80.12 43.68 -82.37 42.88 -84.62 42 C-89.22 40.24 -93.93 38.87 -98.64 37.46 C-101.69 36.5 -101.69 36.5 -104.25 35.45 C-106.83 34.45 -109.28 33.88 -112 33.38 C-113.32 33.12 -113.32 33.12 -114.68 32.87 C-115.34 32.75 -116 32.62 -116.69 32.5 C-115.23 37.03 -112.67 40.13 -109.56 43.62 C-105.1 48.73 -101.09 53.95 -97.25 59.55 C-96.73 60.19 -96.22 60.84 -95.69 61.5 C-95.03 61.5 -94.37 61.5 -93.69 61.5 C-93.45 62.05 -93.22 62.6 -92.97 63.16 C-90.79 67.13 -87.64 70.34 -84.68 73.75 C-81.52 78.11 -81.52 78.11 -81.69 81.5 C-83.25 84.46 -85.26 87.04 -87.31 89.69 C-88.52 91.3 -89.72 92.9 -90.93 94.51 C-91.55 95.33 -92.17 96.16 -92.81 97.01 C-95.21 100.2 -97.53 103.44 -99.85 106.69 C-104.52 113.23 -109.26 119.66 -114.39 125.85 C-115.79 127.28 -115.79 127.28 -115.69 128.5 C-110.83 127.91 -106.37 126.88 -101.69 125.5 C-100.33 125.11 -98.96 124.71 -97.6 124.32 C-90.89 122.36 -84.2 120.38 -77.59 118.11 C-75.02 117.28 -72.42 116.66 -69.79 116.04 C-67.35 115.41 -64.97 114.64 -62.56 113.88 C-58.82 112.73 -55.63 112.19 -51.69 112.5 C-51.36 113.16 -51.03 113.82 -50.69 114.5 C-50.03 114.5 -49.37 114.5 -48.69 114.5 C-48.43 115.08 -48.18 115.66 -47.92 116.25 C-46.55 118.75 -45.02 120.43 -43 122.44 C-42.36 123.09 -41.71 123.73 -41.05 124.4 C-38.09 127.03 -34.94 129.24 -31.69 131.5 C-31.6 130.64 -31.52 129.77 -31.43 128.89 C-31.1 125.68 -30.74 122.48 -30.36 119.27 C-30.21 117.89 -30.06 116.5 -29.92 115.12 C-29.5 110.8 -28.98 106.65 -27.69 102.5 C-24.47 100.16 -24.47 100.16 -20.69 99.5 C-19.59 99.27 -18.48 99.04 -17.35 98.8 C-16.16 98.62 -14.97 98.44 -13.75 98.25 C-6.29 97 0.92 95.05 8.19 92.94 C9.25 92.63 10.32 92.33 11.41 92.01 C12.41 91.72 13.4 91.42 14.43 91.12 C15.32 90.86 16.22 90.59 17.14 90.32 C19.48 89.61 19.48 89.61 21.31 87.5 C15.62 84.55 9.92 81.86 3.95 79.53 C-3.44 76.64 -10.74 73.54 -17.95 70.2 C-19.68 69.38 -19.68 69.38 -21.69 69.5 C-21.55 66.42 -21.4 63.33 -21.25 60.25 C-21.21 59.38 -21.17 58.5 -21.13 57.61 C-21.09 56.76 -21.05 55.92 -21 55.05 C-20.97 54.27 -20.93 53.5 -20.89 52.7 C-20.69 50.54 -20.24 48.6 -19.69 46.5 C-18.78 37.84 -18.54 29.2 -18.69 20.5 C-19.35 20.5 -20.01 20.5 -20.69 20.5 Z " fill="#000000" transform="translate(543.6875,810.5)"/>
<path d="M0 0 C0.76 0.01 1.51 0.01 2.29 0.02 C14.31 0.41 24.85 5.98 34.06 13.5 C34.06 14.16 34.06 14.82 34.06 15.5 C35.08 15.78 35.08 15.78 36.12 16.06 C39.62 17.77 41.69 19.96 44.35 22.75 C46.18 24.69 46.18 24.69 49 26.81 C49.68 27.37 50.36 27.93 51.06 28.5 C51.06 29.16 51.06 29.82 51.06 30.5 C51.72 30.5 52.38 30.5 53.06 30.5 C54.47 31.9 54.47 31.9 56.12 33.88 C59.75 38.16 63.52 42.28 67.34 46.4 C69.06 48.5 69.06 48.5 69.06 50.5 C69.72 50.5 70.38 50.5 71.06 50.5 C72.86 52.59 74.53 54.68 76.19 56.88 C76.89 57.78 76.89 57.78 77.61 58.7 C81.06 63.24 81.06 63.24 81.06 65.5 C81.72 65.5 82.38 65.5 83.06 65.5 C84.57 67.18 84.57 67.18 86.19 69.38 C86.73 70.09 87.27 70.81 87.82 71.55 C89.06 73.5 89.06 73.5 89.06 75.5 C89.72 75.5 90.38 75.5 91.06 75.5 C92.68 77.33 92.68 77.33 94.5 79.75 C95.1 80.54 95.69 81.33 96.31 82.14 C96.89 82.92 97.47 83.7 98.06 84.5 C98.63 85.22 99.2 85.93 99.79 86.67 C101.06 88.5 101.06 88.5 101.06 90.5 C101.72 90.5 102.38 90.5 103.06 90.5 C104.57 92.18 104.57 92.18 106.19 94.38 C106.73 95.09 107.27 95.81 107.82 96.55 C109.06 98.5 109.06 98.5 109.06 100.5 C109.72 100.5 110.38 100.5 111.06 100.5 C112.86 102.59 114.53 104.68 116.19 106.88 C116.66 107.48 117.12 108.08 117.61 108.7 C121.06 113.24 121.06 113.24 121.06 115.5 C121.72 115.5 122.38 115.5 123.06 115.5 C124.51 117.24 125.87 119.04 127.19 120.88 C127.91 121.87 128.64 122.87 129.38 123.9 C131.06 126.5 131.06 126.5 131.06 128.5 C131.72 128.5 132.38 128.5 133.06 128.5 C133.39 129.82 133.72 131.14 134.06 132.5 C134.72 132.5 135.38 132.5 136.06 132.5 C136.06 133.49 136.06 134.48 136.06 135.5 C136.72 135.5 137.38 135.5 138.06 135.5 C139.3 136.94 139.3 136.94 140.66 138.93 C141.15 139.64 141.64 140.36 142.15 141.09 C142.66 141.84 143.16 142.6 143.69 143.38 C144.2 144.12 144.72 144.87 145.25 145.64 C149.06 151.23 149.06 151.23 149.06 153.5 C149.72 153.5 150.38 153.5 151.06 153.5 C152.2 154.99 152.2 154.99 153.45 157.09 C153.91 157.85 154.37 158.61 154.84 159.39 C155.33 160.21 155.81 161.03 156.31 161.88 C157.06 163.12 157.06 163.12 157.82 164.39 C158.81 166.03 159.79 167.68 160.77 169.32 C162.25 171.81 163.75 174.28 165.25 176.75 C171.26 186.82 176.9 196.96 182.06 207.5 C182.71 208.78 183.35 210.07 184 211.35 C195.09 233.31 195.09 233.31 199.14 244.91 C200.02 247.37 200.99 249.77 202 252.19 C207.23 265.19 210.71 278.92 214.06 292.5 C214.24 293.2 214.41 293.89 214.59 294.61 C216.17 301.19 216.94 307.84 217.69 314.56 C217.89 316.26 217.89 316.26 218.09 317.99 C219.83 333.2 219.83 333.2 218.06 338.5 C215.26 339.9 213.16 339.75 210.06 339.5 C207.15 337.25 206 334.53 204.57 331.2 C204.12 330.14 203.66 329.09 203.19 328.01 C202.72 326.89 202.24 325.77 201.75 324.62 C200.76 322.34 199.78 320.06 198.79 317.79 C198.32 316.69 197.85 315.6 197.36 314.48 C195.84 310.98 194.25 307.52 192.62 304.06 C190.63 299.79 188.83 295.47 187.11 291.07 C184.96 285.8 182.48 280.66 180.06 275.5 C179.24 273.74 178.42 271.97 177.6 270.21 C176.42 267.67 175.24 265.14 174.05 262.61 C172.98 260.32 171.92 258.04 170.86 255.75 C167.17 247.81 163.44 240.01 158.86 232.53 C157.28 229.87 155.79 227.19 154.32 224.46 C150.87 218.11 147.29 211.83 143.69 205.56 C143.07 204.47 142.44 203.38 141.8 202.26 C138 195.65 134 189.31 129.64 183.06 C128.23 180.77 127.5 179.12 127.06 176.5 C126.4 176.5 125.74 176.5 125.06 176.5 C124.49 175.47 123.91 174.44 123.31 173.38 C121.91 170.9 120.43 168.53 118.81 166.19 C117.06 163.5 117.06 163.5 117.06 161.5 C116.4 161.5 115.74 161.5 115.06 161.5 C113.72 159.62 113.72 159.62 112.12 156.94 C108.6 151.2 104.69 145.82 100.62 140.45 C97.06 135.71 97.06 135.71 97.06 133.5 C96.4 133.5 95.74 133.5 95.06 133.5 C92.06 129.12 92.06 129.12 92.06 126.5 C91.4 126.5 90.74 126.5 90.06 126.5 C88.62 124.76 87.25 122.96 85.94 121.12 C85.21 120.13 84.49 119.13 83.74 118.1 C82.06 115.5 82.06 115.5 82.06 113.5 C81.4 113.5 80.74 113.5 80.06 113.5 C78.57 111.66 78.57 111.66 76.75 109 C72.12 102.46 67.09 96.29 62.02 90.1 C61.51 89.48 61 88.86 60.48 88.23 C59.22 86.69 57.95 85.17 56.67 83.65 C55.06 81.5 55.06 81.5 55.06 79.5 C54.4 79.5 53.74 79.5 53.06 79.5 C51.46 77.77 49.92 75.96 48.44 74.12 C47.62 73.13 46.8 72.13 45.96 71.1 C44.06 68.5 44.06 68.5 44.06 66.5 C43.4 66.5 42.74 66.5 42.06 66.5 C41.4 64.85 40.74 63.2 40.06 61.5 C39.4 61.5 38.74 61.5 38.06 61.5 C36.5 59.81 35.01 58.04 33.56 56.25 C32.77 55.28 31.97 54.3 31.16 53.3 C29.48 51.05 28.18 49.05 27.06 46.5 C26.4 46.5 25.74 46.5 25.06 46.5 C20.06 41.02 20.06 41.02 20.06 38.5 C19.4 38.5 18.74 38.5 18.06 38.5 C16.55 37.04 16.55 37.04 14.94 35.12 C14.4 34.5 13.86 33.87 13.3 33.23 C12.06 31.5 12.06 31.5 12.06 29.5 C11.4 29.5 10.74 29.5 10.06 29.5 C8.44 27.86 8.44 27.86 6.62 25.69 C4.09 22.68 4.09 22.68 1.34 19.86 C0.06 18.5 0.06 18.5 0.06 16.5 C-0.51 16.24 -1.08 15.98 -1.67 15.71 C-4.12 14.4 -6.07 12.92 -8.19 11.12 C-9.25 10.25 -9.25 10.25 -10.33 9.35 C-11.94 7.5 -11.94 7.5 -11.94 3.5 C-8.68 -0.22 -4.62 -0.04 0 0 Z " fill="#000000" transform="translate(1001.9375,216.5)"/>
<path d="M0 0 C5.92 4.48 7.78 9.7 9.31 16.75 C9.72 20.84 9.74 24.89 9.69 29 C9.68 30.69 9.68 30.69 9.67 32.41 C9.42 47.57 7.47 62.79 3.27 77.38 C2.3 80.79 1.66 84.14 1.06 87.62 C-0.82 98.17 -3.46 108.54 -6.02 118.94 C-6.63 121.5 -7.2 124.06 -7.75 126.63 C-8.51 130.1 -9.52 133.39 -10.69 136.75 C-11.11 138.16 -11.53 139.56 -11.95 140.97 C-14.61 150 -17.36 159 -20.31 167.94 C-20.59 168.79 -20.87 169.63 -21.15 170.51 C-22.78 175.4 -24.67 180.09 -26.81 184.78 C-27.84 187.08 -28.65 189.42 -29.44 191.81 C-31.92 198.8 -35.34 205.28 -38.73 211.86 C-39.57 213.51 -40.36 215.18 -41.15 216.84 C-47.62 230.49 -56.46 242.85 -65.69 254.75 C-66.22 255.52 -66.76 256.28 -67.31 257.07 C-67.77 257.63 -68.22 258.18 -68.69 258.75 C-69.35 258.75 -70.01 258.75 -70.69 258.75 C-70.92 259.29 -71.15 259.83 -71.39 260.39 C-74.3 265.69 -78.78 270.15 -82.69 274.75 C-83.28 275.48 -83.86 276.2 -84.47 276.95 C-87.49 280.65 -90.38 283.5 -94.69 285.75 C-98 286.06 -98 286.06 -100.69 285.75 C-101.69 284.75 -101.69 284.75 -102.06 282 C-101.96 275 -98.21 268.34 -95.52 262.02 C-89.67 248.23 -84.45 234.17 -80.55 219.7 C-79.75 216.95 -78.79 214.39 -77.69 211.75 C-75.63 206.83 -74.24 201.8 -72.82 196.66 C-71.58 192.26 -70.1 187.95 -68.62 183.62 C-66.56 177.55 -64.74 171.5 -63.33 165.23 C-62.69 162.75 -62.69 162.75 -61.73 160.42 C-60.39 156.98 -59.61 153.46 -58.81 149.88 C-57.58 144.47 -56.27 139.1 -54.81 133.75 C-52.97 126.97 -51.32 120.15 -49.69 113.31 C-46.07 98.16 -46.07 98.16 -44.44 91.56 C-44.14 90.37 -43.85 89.18 -43.55 87.96 C-42.98 85.85 -42.35 83.76 -41.66 81.69 C-40.69 78.76 -40.04 75.9 -39.44 72.88 C-38.02 66.06 -36.38 59.31 -34.69 52.56 C-34.44 51.57 -34.19 50.57 -33.93 49.54 C-32.71 44.69 -31.45 39.84 -30.12 35.02 C-29.25 31.86 -28.42 28.71 -27.7 25.53 C-24.09 9.83 -24.09 9.83 -19.69 3.75 C-18.7 3.42 -17.71 3.09 -16.69 2.75 C-16.69 2.09 -16.69 1.43 -16.69 0.75 C-10.59 -2.36 -6.49 -3.02 0 0 Z " fill="#000000" transform="translate(1216.6875,709.25)"/>
<path d="M0 0 C1.26 3.77 0.5 4.96 -0.88 8.62 C-2.72 13.85 -3.63 18.48 -4 24 C-0.37 24 3.26 24 7 24 C7.39 23.28 7.77 22.55 8.17 21.8 C13.13 12.6 17.21 5.86 26 0 C28.69 0.38 28.69 0.38 31 1 C31.42 5.42 30.84 7.5 28.23 11.03 C25.08 16.08 21.61 22.9 22.36 28.9 C22.57 29.59 22.78 30.29 23 31 C23.69 31.21 24.38 31.42 25.1 31.63 C41.79 36.89 63.01 45.1 72.56 60.69 C73.97 63.94 74.84 66.46 75 70 C74.06 72.38 74.06 72.38 73 74 C69.82 73.66 68.98 72.98 66.75 70.56 C65 68 65 68 65 66 C64.44 65.74 63.87 65.48 63.29 65.21 C60.78 63.89 58.65 62.32 56.38 60.62 C48.19 54.86 38.93 52.26 29.51 49.17 C26.72 48.24 23.98 47.26 21.25 46.19 C18.11 44.83 18.11 44.83 15 45 C14.01 48.3 13.02 51.6 12 55 C13.2 55.39 14.39 55.78 15.62 56.19 C17.42 56.79 19.21 57.39 21 58 C22.11 58.38 23.22 58.75 24.36 59.14 C50.17 68.08 50.17 68.08 57.69 78.12 C59 81 59 81 58.88 83.75 C58 86 58 86 56 88 C52.11 88.56 49.39 87.47 45.87 85.85 C39.97 83.16 33.99 81.36 27.69 79.94 C27 79.78 26.32 79.62 25.62 79.45 C19.78 78.1 13.9 77.04 8 76 C7.96 76.67 7.92 77.34 7.88 78.03 C7.69 81.09 7.47 84.14 7.25 87.19 C7.16 88.77 7.16 88.77 7.06 90.38 C6.32 100.23 6.32 100.23 2 104 C-0.62 104.94 -0.62 104.94 -3 105 C-9.58 98.42 -7.66 82.77 -8 74 C-9.92 73.72 -9.92 73.72 -11.88 73.44 C-12.59 73.33 -13.31 73.23 -14.05 73.12 C-16.08 72.83 -16.08 72.83 -18 74 C-18.58 76.51 -18.58 76.51 -18.94 79.5 C-19.94 86.03 -21.05 92.07 -24.75 97.62 C-27 99 -27 99 -30.69 98.88 C-31.78 98.59 -32.87 98.3 -34 98 C-35.26 95.49 -35.19 93.62 -35.28 90.81 C-35.32 89.78 -35.36 88.76 -35.39 87.7 C-35.46 85.52 -35.54 83.34 -35.61 81.17 C-35.66 79.63 -35.66 79.63 -35.72 78.06 C-35.75 77.11 -35.78 76.17 -35.81 75.19 C-35.76 73.02 -35.76 73.02 -37 72 C-39.19 71.93 -41.38 71.92 -43.56 71.94 C-44.76 71.95 -45.96 71.96 -47.19 71.96 C-48.58 71.98 -48.58 71.98 -50 72 C-50.23 72.87 -50.46 73.74 -50.7 74.63 C-53.01 82.79 -54.77 88.18 -62 93 C-64.62 92.75 -64.62 92.75 -67 92 C-70.13 85.73 -68 78.01 -68 71 C-80.54 71 -93.08 71 -106 71 C-106.66 69.35 -107.32 67.7 -108 66 C-105.87 61.18 -101.83 57.04 -97 55 C-89.41 52.35 -81.74 51.32 -73.8 50.43 C-70.18 50.02 -66.6 49.53 -63 49 C-61.35 44.71 -59.7 40.42 -58 36 C-65.59 36 -73.18 36 -81 36 C-81.5 33.53 -81.5 33.53 -82 31 C-72.83 21.89 -62.29 21.28 -50 20 C-49.74 19.28 -49.48 18.56 -49.22 17.82 C-47.93 14.84 -46.38 12.45 -44.5 9.81 C-43.89 8.95 -43.28 8.09 -42.66 7.21 C-41 5 -41 5 -39 3 C-36.38 3.38 -36.38 3.38 -34 4 C-33.76 9.68 -34.64 14.48 -36 20 C-30.72 20 -25.44 20 -20 20 C-19.67 18.68 -19.34 17.36 -19 16 C-8.95 -2.12 -8.95 -2.12 0 0 Z M-41 36 C-44.01 41.01 -44.29 44.33 -44 50 C-42.04 50.08 -40.08 50.14 -38.12 50.19 C-37.03 50.22 -35.94 50.26 -34.82 50.29 C-33.42 50.15 -33.42 50.15 -32 50 C-29.02 45.52 -28 41.36 -28 36 C-32.29 36 -36.58 36 -41 36 Z M-9 39 C-11.11 42.16 -11.34 43.51 -11.62 47.19 C-11.7 48.09 -11.77 48.99 -11.85 49.92 C-11.93 50.95 -11.93 50.95 -12 52 C-7.38 53.04 -7.38 53.04 -3 52 C-2.05 50.26 -2.05 50.26 -1.31 48.19 C-1.04 47.5 -0.77 46.81 -0.49 46.11 C0.07 43.68 -0.17 42.32 -1 40 C-2.17 38.61 -2.17 38.61 -5.44 38.75 C-6.61 38.83 -7.79 38.91 -9 39 Z " fill="#000000" transform="translate(452,192)"/>
<path d="M0 0 C4.28 4.57 3.38 10.57 3.29 16.43 C3.29 17.53 3.28 18.63 3.28 19.77 C3.26 23.28 3.23 26.8 3.19 30.31 C3.17 32.7 3.16 35.08 3.15 37.47 C3.11 43.31 3.06 49.16 3 55 C3.95 54.99 4.91 54.98 5.89 54.97 C9.43 54.93 12.97 54.91 16.51 54.89 C18.04 54.88 19.57 54.87 21.1 54.85 C23.3 54.82 25.51 54.81 27.71 54.8 C28.39 54.79 29.08 54.78 29.78 54.77 C33.43 54.77 34.87 54.91 38 57 C38.94 59.19 38.94 59.19 39 62 C37.88 64.53 36.51 66.66 35 69 C34.34 69 33.68 69 33 69 C33 69.66 33 70.32 33 71 C32.34 71 31.68 71 31 71 C30.51 72.49 30.51 72.49 30 74 C29.34 74 28.68 74 28 74 C28 74.66 28 75.32 28 76 C26.36 77.62 26.36 77.62 24.19 79.44 C21.18 81.97 21.18 81.97 18.36 84.72 C17 86 17 86 15 86 C15 86.66 15 87.32 15 88 C13.5 89.62 13.5 89.62 12 91 C12.75 93.13 13.5 95.25 14.25 97.38 C14.47 98.01 14.7 98.65 14.93 99.31 C16.26 103.05 17.71 106.68 19.31 110.31 C21.19 114.89 21.65 119.09 21 124 C20.67 124.66 20.34 125.32 20 126 C19.34 126 18.68 126 18 126 C17.5 127.48 17.5 127.48 17 129 C16.34 129 15.68 129 15 129 C15 129.66 15 130.32 15 131 C7.06 136.23 -0.6 137.29 -10 136 C-12.95 134.59 -12.95 134.59 -15 133 C-15 132.34 -15 131.68 -15 131 C-15.54 130.77 -16.07 130.55 -16.62 130.31 C-19.79 128.57 -22.27 126.36 -25 124 C-25 124.66 -25 125.32 -25 126 C-27.12 127.95 -27.12 127.95 -29.88 130.12 C-31.23 131.21 -31.23 131.21 -32.62 132.32 C-35 134 -35 134 -37 134 C-37 134.66 -37 135.32 -37 136 C-39.32 137.82 -41.62 139.48 -44.06 141.12 C-44.72 141.59 -45.38 142.06 -46.05 142.54 C-50.62 145.63 -53.5 146.56 -59 146 C-63.23 139.09 -63.67 133.39 -63.56 125.38 C-63.56 124.22 -63.55 123.07 -63.54 121.88 C-63.34 113.06 -62.03 105.94 -58 98 C-57.42 96.84 -57.42 96.84 -56.84 95.65 C-56.56 95.1 -56.28 94.56 -56 94 C-56.55 93.77 -57.1 93.53 -57.67 93.29 C-60.61 91.66 -62.79 89.61 -65.25 87.31 C-68.6 84.21 -71.96 81.15 -75.44 78.19 C-81.01 73.3 -81.01 73.3 -83 70 C-82.9 66.04 -81.27 63.19 -79 60 C-75.59 57 -75.59 57 -73 57 C-73 56.34 -73 55.68 -73 55 C-65.67 51.51 -59.02 51.65 -51 51.81 C-49.12 51.83 -49.12 51.83 -47.21 51.85 C-44.14 51.89 -41.07 51.94 -38 52 C-38.02 51.22 -38.03 50.44 -38.05 49.63 C-38 46.79 -37.44 45.28 -36.19 42.75 C-34.78 39.76 -33.56 36.84 -32.56 33.69 C-30.17 26.25 -27.44 18.47 -23 12 C-22.34 12 -21.68 12 -21 12 C-20.67 10.68 -20.34 9.36 -20 8 C-19.34 8 -18.68 8 -18 8 C-17.67 7.01 -17.34 6.02 -17 5 C-11.72 0.89 -6.63 -1.14 0 0 Z M-19 59 C-19.31 60.13 -19.62 61.27 -19.94 62.44 C-21 66 -21 66 -22 67 C-23.34 67.16 -24.69 67.25 -26.04 67.32 C-26.84 67.36 -27.65 67.4 -28.49 67.44 C-29.76 67.5 -29.76 67.5 -31.06 67.56 C-32.34 67.63 -32.34 67.63 -33.65 67.69 C-35.77 67.8 -37.88 67.9 -40 68 C-36.61 71.6 -36.61 71.6 -32 73 C-32 73.66 -32 74.32 -32 75 C-30.04 76.64 -30.04 76.64 -28 78 C-29.37 85.58 -32.06 92.84 -35 99.94 C-38.28 107.98 -41.19 116.32 -42 125 C-40.68 125 -39.36 125 -38 125 C-38 124.34 -38 123.68 -38 123 C-37.31 122.79 -36.61 122.57 -35.89 122.35 C-32.22 120.63 -29.58 118.15 -26.69 115.38 C-26.12 114.84 -25.54 114.31 -24.95 113.75 C-21.71 110.7 -18.61 107.56 -15.56 104.31 C-13.07 101.76 -12.16 101.05 -8.62 100 C-7.08 100 -5.54 100 -4 100 C-4.02 99.24 -4.04 98.47 -4.06 97.69 C-4 95 -4 95 -3 92 C-2.34 92 -1.68 92 -1 92 C-1 91.34 -1 90.68 -1 90 C-0.01 89.67 0.98 89.34 2 89 C2 88.34 2 87.68 2 87 C2.66 87 3.32 87 4 87 C4 86.34 4 85.68 4 85 C4.99 84.67 5.98 84.34 7 84 C7 83.34 7 82.68 7 82 C7.66 82 8.32 82 9 82 C9 81.34 9 80.68 9 80 C9.99 79.67 10.98 79.34 12 79 C12 78.34 12 77.68 12 77 C12.66 77 13.32 77 14 77 C15.36 75.48 15.36 75.48 16.62 73.56 C17.29 72.61 17.29 72.61 17.98 71.63 C19.09 70.18 19.09 70.18 19 69 C1.67 68.5 1.67 68.5 -16 68 C-16.66 65.03 -17.32 62.06 -18 59 C-18.33 59 -18.66 59 -19 59 Z " fill="#000000" transform="translate(995,897)"/>
<path d="M0 0 C8.29 -0.35 15.23 0.04 23 3 C23.74 3.27 24.48 3.53 25.24 3.81 C27.86 4.8 30.43 5.89 33 7 C33.93 7.4 33.93 7.4 34.87 7.8 C43.07 11.34 50.77 15.18 58.06 20.38 C58.66 20.8 59.27 21.23 59.89 21.67 C61.3 22.73 62.66 23.86 64 25 C64 25.66 64 26.32 64 27 C65.18 27.46 65.18 27.46 66.38 27.94 C69 29 69 29 71 30 C71 30.66 71 31.32 71 32 C71.69 32.24 72.37 32.47 73.08 32.72 C76.59 34.26 79.61 36.32 82.75 38.5 C88.47 42.39 94.29 46.06 100.25 49.56 C100.98 49.99 101.7 50.42 102.45 50.86 C105.27 52.51 107.89 53.96 111 55 C111 55.66 111 56.32 111 57 C111.73 57.11 112.46 57.22 113.21 57.33 C116.16 58.04 118.03 59.05 120.56 60.69 C126.19 64.19 132.04 67.11 138 70 C138 70.66 138 71.32 138 72 C138.58 72.12 139.15 72.25 139.75 72.38 C142.02 73.01 143.93 73.89 146 75 C146 75.66 146 76.32 146 77 C146.99 77.28 146.99 77.28 148 77.56 C153.32 80.11 158.09 83.56 160.19 89.19 C159.96 92.53 159.39 93.69 157 96 C151.26 99.59 143.78 98.69 137.37 97.52 C129.16 94.98 122.08 89.81 114.93 85.17 C104.94 78.7 94.72 72.7 84 67.52 C78.2 64.59 72.61 61.27 67 58 C67 57.34 67 56.68 67 56 C66.45 55.91 65.91 55.81 65.34 55.71 C62.35 54.8 60.11 53.29 57.5 51.56 C54.39 49.52 51.37 47.58 48 46 C48 45.34 48 44.68 48 44 C47.3 43.75 46.6 43.5 45.88 43.25 C42.6 41.83 39.86 40.13 37 38 C37 37.34 37 36.68 37 36 C36.3 35.76 35.59 35.52 34.87 35.28 C31.49 33.77 28.97 31.85 26.06 29.56 C25.51 29.13 24.96 28.69 24.39 28.25 C23.21 27.32 22.03 26.39 20.86 25.46 C18.93 23.95 16.99 22.45 15.04 20.96 C13.76 19.98 12.47 18.99 11.19 18 C10.57 17.53 9.95 17.06 9.32 16.58 C7.84 15.43 6.42 14.22 5 13 C5 12.34 5 11.68 5 11 C4.4 10.75 3.8 10.5 3.19 10.25 C0.6 8.77 -0.63 7.66 -2 5 C-1.07 2.36 -1.07 2.36 0 0 Z " fill="#000000" transform="translate(932,737)"/>
<path d="M0 0 C0.87 -0.01 1.74 -0.01 2.63 -0.02 C4.88 0.25 4.88 0.25 6.88 2.25 C7.67 6.77 7.77 8.93 5.16 12.78 C3.15 15.08 1.18 17.25 -1.12 19.25 C-1.78 19.25 -2.44 19.25 -3.12 19.25 C-3.12 19.91 -3.12 20.57 -3.12 21.25 C-5.28 22.85 -5.28 22.85 -8.27 24.73 C-9.87 25.73 -9.87 25.73 -11.51 26.76 C-12.07 27.1 -12.63 27.45 -13.21 27.81 C-14.93 28.87 -16.63 29.94 -18.33 31.02 C-26.74 36.25 -26.74 36.25 -30.12 36.25 C-30.12 36.91 -30.12 37.57 -30.12 38.25 C-45.69 47.29 -61.12 54.3 -78.12 60.25 C-78.94 60.54 -79.76 60.83 -80.6 61.13 C-93.66 65.66 -106.18 67.28 -119.94 67.44 C-120.64 67.45 -121.35 67.46 -122.07 67.48 C-126.84 67.48 -130.66 66.73 -135.12 65.25 C-135.46 63.93 -135.78 62.61 -136.12 61.25 C-131.91 58.25 -127.94 56.22 -123.06 54.38 C-115.94 51.62 -109.03 48.51 -102.12 45.25 C-96.92 42.83 -91.72 40.45 -86.38 38.38 C-81.66 36.52 -77.08 34.4 -72.5 32.24 C-67.67 29.96 -62.81 27.74 -57.93 25.55 C-49.82 21.89 -41.78 18.15 -33.85 14.11 C-28.03 11.17 -22.12 8.42 -16.23 5.62 C-14.94 5.01 -14.94 5.01 -13.62 4.39 C-12.46 3.84 -12.46 3.84 -11.28 3.28 C-9.84 2.59 -8.42 1.88 -7 1.13 C-4.58 -0.01 -2.66 -0.02 0 0 Z " fill="#000000" transform="translate(991.125,1101.75)"/>
<path d="M0 0 C1.13 -0.03 1.13 -0.03 2.28 -0.06 C7.17 -0.1 10.52 0.52 14.75 3.25 C15.94 5.62 15.94 5.62 15.75 8.25 C12.17 12.58 8.4 14.58 3.19 16.38 C2.49 16.63 1.78 16.88 1.06 17.14 C-4.12 18.97 -9.34 20.43 -14.7 21.61 C-17.34 22.27 -19.72 23.23 -22.25 24.25 C-24.3 24.88 -26.37 25.48 -28.44 26.06 C-30.3 26.59 -30.3 26.59 -32.2 27.12 C-33.55 27.5 -34.9 27.87 -36.25 28.25 C-37.63 28.64 -39.01 29.02 -40.39 29.41 C-44.18 30.47 -47.97 31.52 -51.76 32.56 C-53.46 33.03 -55.16 33.5 -56.86 33.98 C-69.52 37.5 -82.2 40.75 -95 43.72 C-97.17 44.23 -99.32 44.77 -101.48 45.32 C-106.7 46.61 -111.94 47.44 -117.25 48.25 C-118.08 48.39 -118.92 48.53 -119.77 48.67 C-124.79 49.4 -128.38 49 -133.25 47.25 C-134.24 46.92 -135.23 46.59 -136.25 46.25 C-136.25 44.6 -136.25 42.95 -136.25 41.25 C-127.92 36.18 -119.36 33.02 -110.18 29.92 C-106.91 28.78 -103.71 27.46 -100.52 26.11 C-97.48 24.96 -94.38 24.11 -91.25 23.25 C-89.4 22.73 -87.55 22.22 -85.7 21.7 C-84.68 21.42 -83.66 21.13 -82.61 20.84 C-74.21 18.5 -65.81 16.15 -57.44 13.69 C-56.77 13.49 -56.11 13.3 -55.43 13.1 C-51.75 12.01 -48.09 10.89 -44.43 9.75 C-34.33 6.62 -24.28 4.04 -13.9 2.01 C-4.4 0.03 -4.4 0.03 0 0 Z " fill="#000000" transform="translate(1066.25,641.75)"/>
<path d="M0 0 C3.07 1.84 3.94 4.82 4.88 8.12 C5.29 11.83 5.27 15.5 5.24 19.22 C5.24 20.28 5.24 21.35 5.24 22.44 C5.24 24.69 5.23 26.94 5.21 29.19 C5.19 32.59 5.19 35.98 5.2 39.38 C5.18 53.81 4.04 67.28 1.3 81.45 C0.84 84.36 0.63 87.24 0.44 90.19 C-0.1 97.2 -1.27 103.32 -5.19 109.25 C-9.46 111.98 -13.19 111.88 -18.12 111.12 C-21.19 109.81 -21.19 109.81 -23.12 108.12 C-28.74 91.27 -22.07 65.26 -18.06 48.5 C-17.33 45.37 -16.91 42.33 -16.62 39.12 C-16.19 34.32 -15.31 29.8 -14.12 25.12 C-13.82 23.92 -13.52 22.71 -13.21 21.47 C-8.87 4.56 -8.87 4.56 -4.69 1.12 C-2.12 0.12 -2.12 0.12 0 0 Z " fill="#000000" transform="translate(643.125,968.875)"/>
<path d="M0 0 C1.2 0.01 1.2 0.01 2.42 0.01 C8.14 0.12 12.99 0.8 18.19 3.31 C19.26 3.77 20.33 4.22 21.44 4.69 C25.89 7.32 29.23 10.49 31.19 15.31 C31.98 22 31.35 27.38 28.19 33.31 C27.53 33.31 26.87 33.31 26.19 33.31 C26.19 34.3 26.19 35.29 26.19 36.31 C25.53 36.31 24.87 36.31 24.19 36.31 C24.19 36.97 24.19 37.63 24.19 38.31 C17.04 45.66 7 48.41 -2.81 50.31 C-3.8 50.81 -3.8 50.81 -4.81 51.31 C-9.51 51.96 -12.76 52.06 -16.69 49.25 C-21.57 42.5 -22.95 35.92 -23 27.75 C-23.01 26.63 -23.03 25.52 -23.04 24.37 C-22.82 21.37 -22.24 19.89 -20.81 17.31 C-20.81 16.32 -20.81 15.33 -20.81 14.31 C-21.47 13.98 -22.13 13.65 -22.81 13.31 C-22.74 10.29 -22.58 8.1 -20.4 5.87 C-13.97 1.13 -7.84 -0.05 0 0 Z M-7.81 11.31 C-8.8 12.8 -8.8 12.8 -9.81 14.31 C-9.36 14.7 -8.9 15.1 -8.44 15.5 C-4.34 20.07 -3.88 26.47 -2.81 32.31 C-1.82 32.31 -0.83 32.31 0.19 32.31 C0.19 31.65 0.19 30.99 0.19 30.31 C0.85 30.31 1.51 30.31 2.19 30.31 C5.19 25.3 6 22.02 5.19 16.31 C2.05 12.64 0.24 11.45 -4.56 10.81 C-5.63 10.98 -6.71 11.14 -7.81 11.31 Z " fill="#000000" transform="translate(756.8125,104.6875)"/>
<path d="M0 0 C7.45 4.78 8.95 12.65 10.91 20.69 C12.81 29.75 12.35 39.04 11.92 48.24 C11.26 48.24 10.6 48.24 9.92 48.24 C9.59 49.23 9.26 50.22 8.92 51.24 C8.26 51.24 7.6 51.24 6.92 51.24 C7.2 52.14 7.2 52.14 7.48 53.05 C7.92 55.24 7.92 55.24 6.92 58.24 C-7.07 59.1 -17.06 56.71 -27.94 47.26 C-28.65 46.6 -29.35 45.93 -30.08 45.24 C-30.65 44.71 -31.22 44.18 -31.81 43.63 C-35.81 39.11 -35.68 34.29 -35.43 28.46 C-34.24 17.68 -29.21 9.64 -21.04 2.69 C-15.07 -1.7 -7.05 -2.57 0 0 Z M-13.08 13.24 C-13.59 14.17 -14.11 15.1 -14.64 16.05 C-17.12 20.45 -19.95 24.61 -22.79 28.79 C-23.43 30 -23.43 30 -24.08 31.24 C-22.87 34.86 -22.02 35.15 -18.77 36.93 C-17.99 37.37 -17.21 37.8 -16.4 38.25 C-13.89 39.5 -13.89 39.5 -10.08 39.24 C-10.08 30.99 -10.08 22.74 -10.08 14.24 C-11.07 13.91 -12.06 13.58 -13.08 13.24 Z " fill="#000000" transform="translate(191.078125,509.7578125)"/>
<path d="M0 0 C3.35 2.76 4.86 4.22 5.63 8.57 C5.5 16.54 4.86 23.12 1.88 30.64 C0.83 33.05 0.83 33.05 1 36 C1.97 36.36 2.93 36.73 3.93 37.1 C25.47 45.35 25.47 45.35 30 54 C23.46 61.67 14.19 65.2 4.78 68.13 C2.43 68.86 0.16 69.67 -2.12 70.56 C-16.32 75.95 -16.32 75.95 -22 75 C-24.38 73 -24.38 73 -26 71 C-24.64 66.25 -22.05 63.64 -18 61 C-10.72 57.09 -2.34 53.7 6 54 C6 53.01 6 52.02 6 51 C4.95 50.71 3.9 50.42 2.81 50.12 C-0.23 49.23 -3.09 48.24 -6 47 C-6 46.34 -6 45.68 -6 45 C-6.99 44.67 -7.98 44.34 -9 44 C-10.98 41.04 -11.26 40.32 -11.41 36.99 C-11.45 36.23 -11.49 35.47 -11.53 34.69 C-11.56 33.91 -11.59 33.12 -11.62 32.31 C-11.66 31.52 -11.7 30.72 -11.74 29.9 C-11.84 27.93 -11.92 25.97 -12 24 C-12.72 24.41 -13.45 24.82 -14.2 25.24 C-27.74 32.79 -27.74 32.79 -35 32 C-38.15 30.47 -38.84 29.4 -40.12 26.12 C-40 23 -40 23 -37.51 20.53 C-33.88 17.69 -29.97 16.03 -25.69 14.38 C-24.94 14.08 -24.19 13.78 -23.42 13.47 C-9.55 8 -9.55 8 -6 8 C-6 7.34 -6 6.68 -6 6 C-5.34 6 -4.68 6 -4 6 C-3.67 4.35 -3.34 2.7 -3 1 C-2.01 0.67 -1.02 0.34 0 0 Z " fill="#000000" transform="translate(753,558)"/>
<path d="M0 0 C2.94 1 2.94 1 5 2 C5 2.66 5 3.32 5 4 C5.96 4.4 5.96 4.4 6.94 4.81 C9 6 9 6 10 9 C10.66 9 11.32 9 12 9 C15.12 14.15 16.31 19.02 16 25 C14.67 30.1 13.47 34.02 9 37 C6.62 37.12 6.62 37.12 4 36 C1.13 32.72 -1.04 29.62 -0.94 25.19 C0 23 0 23 2 20 C2.17 17.37 2.17 17.37 2 15 C0.68 15 -0.64 15 -2 15 C-2.17 15.98 -2.34 16.96 -2.52 17.96 C-4.43 28.52 -6.77 39.33 -15.06 46.88 C-20.68 49.03 -27.23 48.98 -32.88 46.81 C-38.88 43.33 -41.84 38.98 -45 33 C-45.36 32.38 -45.71 31.75 -46.08 31.11 C-47.93 26.87 -47.83 22.49 -47 18 C-44.28 13.44 -40.41 9.92 -36 7 C-32.83 7.08 -31.5 7.5 -29.25 9.75 C-27.31 13.24 -26.64 15.66 -27.69 19.56 C-29 22 -29 22 -31.19 24 C-33.32 25.88 -33.32 25.88 -32.88 28.62 C-32.14 31.14 -32.14 31.14 -30 33 C-27.93 33.64 -27.93 33.64 -26 34 C-26 33.34 -26 32.68 -26 32 C-25.34 32 -24.68 32 -24 32 C-23.73 30.76 -23.46 29.52 -23.19 28.25 C-22.79 26.5 -22.4 24.75 -22 23 C-21.77 21.99 -21.54 20.98 -21.3 19.94 C-18.12 6.53 -18.12 6.53 -14.32 3.79 C-12.6 2.78 -10.8 1.88 -9 1 C-5.97 -0.52 -3.35 -0.17 0 0 Z " fill="#000000" transform="translate(816,690)"/>
<path d="M0 0 C3.41 0.79 4.67 1.83 6.73 4.64 C7.12 7 7.12 7 6.98 9.39 C6.95 10.19 6.91 10.99 6.88 11.81 C6.83 12.41 6.78 13.02 6.73 13.64 C7.79 13.76 8.84 13.88 9.92 14.01 C17.32 15.22 17.32 15.22 19.73 17.64 C20.23 19.89 20.23 19.89 19.73 22.64 C16.09 26.33 11.71 28.3 6.73 29.64 C6.77 30.32 6.8 31.01 6.84 31.72 C6.87 32.62 6.89 33.52 6.92 34.45 C6.97 35.79 6.97 35.79 7.03 37.16 C6.73 39.64 6.73 39.64 5.47 41.34 C1.64 44.21 -1.08 44.9 -5.89 44.82 C-6.85 44.82 -7.81 44.81 -8.8 44.8 C-11.27 44.64 -11.27 44.64 -13.27 43.64 C-15.1 43.54 -16.93 43.51 -18.77 43.51 C-19.75 43.51 -20.73 43.51 -21.73 43.5 C-24.26 43.47 -24.26 43.47 -26.27 44.64 C-30.37 45.05 -34.05 45.2 -37.83 43.45 C-39.27 41.64 -39.27 41.64 -39.7 39.14 C-39.2 36.27 -38.59 35.34 -36.27 33.64 C-35.61 33.64 -34.95 33.64 -34.27 33.64 C-34.27 32.65 -34.27 31.66 -34.27 30.64 C-33.61 30.64 -32.95 30.64 -32.27 30.64 C-29.85 25.5 -29.9 21.54 -30.95 16.01 C-31.27 12.64 -31.27 12.64 -30.11 10.45 C-28.27 8.64 -28.27 8.64 -25.85 8.27 C-24.93 8.29 -24.02 8.31 -23.08 8.32 C-18.45 8.11 -16.52 7.43 -13.33 4.07 C-9.19 -0.09 -5.69 -0.1 0 0 Z " fill="#000000" transform="translate(731.265625,1183.36328125)"/>
<path d="M0 0 C1.91 2.62 1.85 4.82 2.03 8.03 C2.09 9.11 2.16 10.2 2.23 11.32 C2.28 12.57 2.28 12.57 2.34 13.84 C3.04 14.03 3.74 14.23 4.46 14.43 C5.37 14.69 6.28 14.95 7.21 15.21 C8.57 15.6 8.57 15.6 9.96 15.99 C12.34 16.84 12.34 16.84 14.34 18.84 C14.4 21.65 14.4 21.65 13.34 24.84 C10.79 27.29 7.98 29.84 4.34 29.84 C4.69 30.56 5.04 31.28 5.4 32.03 C6.47 35.24 6.5 36.68 5.34 39.84 C2.51 42.39 0.12 43.38 -3.6 44.09 C-4.43 44.26 -5.27 44.43 -6.12 44.61 C-8.89 44.86 -10.96 44.44 -13.66 43.84 C-15.41 43.75 -17.16 43.71 -18.91 43.71 C-19.78 43.71 -20.65 43.71 -21.55 43.71 C-23.65 43.61 -23.65 43.61 -24.66 44.84 C-26.16 44.94 -27.66 44.97 -29.16 44.96 C-29.97 44.97 -30.79 44.97 -31.63 44.97 C-33.66 44.84 -33.66 44.84 -34.66 43.84 C-34.76 41.78 -34.79 39.72 -34.79 37.65 C-34.79 36.52 -34.79 35.4 -34.79 34.23 C-34.66 30.84 -34.66 30.84 -34.05 27.7 C-33.62 24.53 -34.05 23.15 -35.35 20.28 C-36.2 17.96 -36.2 17.96 -36.66 15.84 C-34.81 11.88 -33.24 11.06 -29.16 9.53 C-25.66 8.84 -25.66 8.84 -21.66 8.84 C-21.41 7.75 -21.17 6.65 -20.91 5.53 C-19.66 1.84 -19.66 1.84 -17.97 -0.04 C-12.71 -2.6 -5.03 -3.52 0 0 Z " fill="#000000" transform="translate(1206.66015625,608.16015625)"/>
<path d="M0 0 C2.69 0.62 2.69 0.62 4.69 1.62 C4.69 2.29 4.69 2.94 4.69 3.62 C5.68 3.95 6.67 4.29 7.69 4.62 C7.69 5.29 7.69 5.94 7.69 6.62 C8.35 6.62 9.01 6.62 9.69 6.62 C10.18 8.11 10.18 8.11 10.69 9.62 C13.1 10.83 14.88 10.8 17.56 10.94 C20.9 11.26 22.45 11.47 25.31 13.31 C27.23 16.54 27.39 17.9 26.69 21.62 C25.7 23.02 24.67 24.4 23.62 25.75 C20.72 29.73 20.42 32.06 21 36.94 C21.18 37.92 21.36 38.91 21.55 39.93 C21.69 42.62 21.69 42.62 20.44 44.95 C18.69 46.62 18.69 46.62 15.31 47.06 C11.69 46.62 11.69 46.62 9.19 45.06 C5.74 43.08 3.47 43.81 -0.31 44.62 C-0.31 45.29 -0.31 45.94 -0.31 46.62 C-1.69 48.25 -1.69 48.25 -3.31 49.62 C-3.97 49.62 -4.63 49.62 -5.31 49.62 C-5.64 50.62 -5.97 51.61 -6.31 52.62 C-8.19 53.44 -8.19 53.44 -10.31 53.62 C-13.31 51.62 -13.31 51.62 -13.75 49.75 C-14.16 47.43 -14.16 47.43 -16.31 45.75 C-18.9 43 -19.24 41.38 -19.31 37.62 C-18.38 35.59 -17.38 33.59 -16.31 31.62 C-16.31 30.31 -16.31 28.98 -16.31 27.62 C-17.21 27.32 -17.21 27.32 -18.12 27 C-21.12 25.12 -21.93 22.81 -23.31 19.62 C-17.81 15.62 -17.81 15.62 -13.31 15.62 C-13.31 14.96 -13.31 14.31 -13.31 13.62 C-12.65 13.62 -11.99 13.62 -11.31 13.62 C-11.21 13.06 -11.11 12.5 -11.01 11.92 C-9.38 6.57 -5.59 1.06 0 0 Z " fill="#000000" transform="translate(1058.3125,1033.375)"/>
<path d="M0 0 C0.66 1.32 1.32 2.64 2 4 C-4.83 11.74 -14.43 15.82 -23.55 20.28 C-26.5 21.73 -29.26 23.18 -32 25 C-31.67 28.63 -31.34 32.26 -31 36 C-19.4 40.03 -8.72 37.32 2.75 33.88 C6.72 32.81 10.87 31.7 15 32 C17.26 33.74 17.91 34.56 18.5 37.38 C17.77 41.2 15.92 42.46 13 45 C10.34 46.6 7.58 47.9 4.75 49.19 C3.68 49.7 3.68 49.7 2.59 50.22 C-7.95 55.11 -17.58 56.36 -28.7 52.85 C-30.9 52.04 -32.93 51.09 -35 50 C-35 49.34 -35 48.68 -35 48 C-35.58 47.77 -36.15 47.55 -36.75 47.31 C-42.28 44.09 -45.2 37.96 -47 32 C-47.71 26.85 -48.01 21.92 -45.19 17.38 C-43 15 -43 15 -40 14 C-40 13.34 -40 12.68 -40 12 C-38.35 11.67 -36.7 11.34 -35 11 C-35 10.34 -35 9.68 -35 9 C-23.55 4.24 -12.57 -0.25 0 0 Z " fill="#000000" transform="translate(792,628)"/>
<path d="M0 0 C1.5 1.17 1.5 1.17 2.5 4.17 C3.16 4.17 3.82 4.17 4.5 4.17 C6.51 8.31 6.91 11.58 6.5 16.17 C5.09 19.66 3.71 23.06 0.5 25.17 C-2.2 25.96 -4.68 26.38 -7.5 26.17 C-10 24.23 -10 24.23 -11.5 22.17 C-11.19 21.49 -10.88 20.81 -10.56 20.11 C-9.36 16.78 -8.83 13.68 -8.5 10.17 C-8.99 9.67 -8.99 9.67 -9.5 9.17 C-19.3 10 -28.66 12.8 -35.5 20.17 C-36.16 20.17 -36.82 20.17 -37.5 20.17 C-38.16 22.81 -38.82 25.45 -39.5 28.17 C-38.8 28.22 -38.1 28.27 -37.38 28.32 C-36.47 28.39 -35.56 28.47 -34.62 28.54 C-33.72 28.61 -32.81 28.68 -31.88 28.75 C-29.5 29.17 -29.5 29.17 -27.5 31.17 C-27.06 33.54 -27.06 33.54 -27.5 36.17 C-29.59 38.59 -31.23 39.94 -34.43 40.52 C-38.88 40.7 -41.94 40.06 -45.5 37.17 C-45.5 36.51 -45.5 35.85 -45.5 35.17 C-46.49 34.84 -47.48 34.51 -48.5 34.17 C-51.4 28.26 -51.94 24.57 -50.5 18.17 C-49.07 14.88 -47.48 12.14 -45.5 9.17 C-44.84 9.17 -44.18 9.17 -43.5 9.17 C-43.17 8.18 -42.84 7.19 -42.5 6.17 C-31.23 -3.44 -13.4 -6.64 0 0 Z " fill="#000000" transform="translate(860.49609375,782.83203125)"/>
<path d="M0 0 C2 3 2 3 1.89 5.02 C-0.23 12.41 -4.53 15.24 -11 19 C-12.14 19.69 -12.14 19.69 -13.3 20.4 C-17.88 23.08 -22.58 25.14 -27.53 27.02 C-29.94 27.97 -32.23 29.06 -34.56 30.19 C-38.95 32.15 -43.16 33.24 -48 33 C-51.07 31.78 -52.45 31.03 -54 28.12 C-54 24.49 -51.97 22.11 -49.65 19.45 C-47.76 17.79 -46.19 17.15 -43.81 16.31 C-39.12 14.53 -34.71 12.4 -30.25 10.12 C-7.61 -1.32 -7.61 -1.32 0 0 Z " fill="#000000" transform="translate(843,744)"/>
</svg>
