<?xml version="1.0" encoding="UTF-8"?>
<!-- Generator: visioncortex VTracer 0.6.3 -->
<svg version="1.1" xmlns="http://www.w3.org/2000/svg" width="1280" height="1280">
<path d="M0 0 C1.6 0.34 3.2 0.68 4.8 1.02 C6.43 1.36 8.06 1.71 9.69 2.06 C10.82 2.31 10.82 2.31 11.98 2.55 C15.83 3.41 19.36 4.5 23 6 C24.89 6.49 26.79 6.94 28.69 7.38 C33.4 8.52 37.74 9.96 42.2 11.85 C44.95 12.98 47.73 13.97 50.54 14.96 C59.52 18.17 67.78 22.33 76.11 26.96 C78.71 28.39 81.32 29.79 83.94 31.19 C85.63 32.12 87.32 33.06 89 34 C90.17 34.65 90.17 34.65 91.36 35.31 C96.8 38.44 101.91 41.97 107 45.62 C107.66 46.09 108.32 46.56 109 47.04 C109.62 47.49 110.24 47.95 110.88 48.41 C111.71 49.02 111.71 49.02 112.55 49.63 C114.26 51.25 115 52.89 116 55 C93.38 77.64 70.75 100.29 48.12 122.93 C45.45 125.6 42.78 128.27 40.11 130.94 C39.58 131.47 39.05 132 38.5 132.55 C29.89 141.17 21.28 149.79 12.67 158.41 C3.84 167.25 -4.99 176.09 -13.83 184.92 C-19.28 190.38 -24.74 195.84 -30.19 201.3 C-34.36 205.48 -38.54 209.66 -42.72 213.83 C-44.44 215.55 -46.15 217.27 -47.87 218.99 C-50.2 221.33 -52.54 223.67 -54.88 226 C-55.57 226.69 -56.25 227.38 -56.95 228.08 C-57.58 228.71 -58.21 229.33 -58.85 229.97 C-59.39 230.51 -59.93 231.05 -60.49 231.61 C-63.85 234.7 -66.12 235.29 -70.56 235.53 C-71.67 235.6 -72.78 235.67 -73.92 235.74 C-76.23 235.87 -78.54 236 -80.85 236.12 C-95.49 237.06 -110.1 240.89 -123 248 C-124.9 249.04 -126.79 250.08 -128.69 251.12 C-130.02 251.87 -130.02 251.87 -131.39 252.63 C-133.88 253.94 -136.37 255.01 -139 256 C-139 256.66 -139 257.32 -139 258 C-143.38 261 -143.38 261 -146 261 C-146 261.66 -146 262.32 -146 263 C-151.48 268 -151.48 268 -154 268 C-154.27 268.64 -154.54 269.28 -154.81 269.94 C-156 272 -156 272 -159 273 C-159.72 274.31 -160.37 275.65 -161 277 C-162.3 278.94 -163.64 280.85 -165 282.75 C-165.7 283.73 -166.4 284.72 -167.12 285.73 C-167.74 286.48 -168.36 287.23 -169 288 C-169.66 288 -170.32 288 -171 288 C-171.12 288.58 -171.25 289.15 -171.38 289.75 C-172.01 292.02 -172.89 293.93 -174 296 C-174.66 296 -175.32 296 -176 296 C-176.11 296.71 -176.21 297.43 -176.32 298.16 C-177.07 301.29 -178.27 303.62 -179.81 306.44 C-183.22 313.09 -185.18 319.78 -187 327 C-187.29 328.01 -187.58 329.03 -187.88 330.07 C-192.96 349.16 -192.23 371.06 -187 390 C-186.69 391.21 -186.38 392.42 -186.05 393.67 C-184.34 400.06 -182.53 405.42 -179 411 C-178.56 412.07 -178.12 413.14 -177.67 414.24 C-176 418.22 -173.77 421.68 -171.38 425.25 C-167.12 431.62 -167.12 431.62 -166 435 C-165.34 435 -164.68 435 -164 435 C-162.64 436.6 -161.33 438.26 -160.06 439.94 C-155.86 445.23 -151.49 449.13 -146.09 453.22 C-145.4 453.81 -144.71 454.4 -144 455 C-144 455.66 -144 456.32 -144 457 C-143.22 457.31 -142.43 457.62 -141.62 457.94 C-139 459 -139 459 -137 460 C-137 460.66 -137 461.32 -137 462 C-136.01 462 -135.02 462 -134 462 C-134 462.66 -134 463.32 -134 464 C-132.35 464.33 -130.7 464.66 -129 465 C-129 465.66 -129 466.32 -129 467 C-128.46 467.12 -127.93 467.25 -127.38 467.38 C-124.54 468.12 -121.78 469.05 -119 470 C-119 470.66 -119 471.32 -119 472 C-118.34 472.1 -117.68 472.21 -117 472.31 C-114 473 -114 473 -110.47 474.38 C-96.17 479.78 -81.13 481.49 -65.94 481.5 C-64.68 481.51 -63.42 481.51 -62.12 481.52 C-50.87 481.37 -39.85 479.67 -29.23 475.8 C-27.56 475.2 -25.87 474.65 -24.18 474.13 C-16.9 471.88 -10.53 468.91 -4 465 C-3.08 464.45 -2.16 463.9 -1.22 463.34 C4.51 459.81 9.76 455.93 14.91 451.6 C17 450 17 450 20 449 C20 448.34 20 447.68 20 447 C20.66 447 21.32 447 22 447 C22.33 446.01 22.66 445.02 23 444 C23.66 444 24.32 444 25 444 C25.24 443.46 25.48 442.91 25.73 442.35 C27.3 439.44 29.23 436.99 31.25 434.38 C44.37 417.17 55.18 395.42 56.39 373.49 C56.44 372.57 56.49 371.64 56.54 370.69 C56.64 368.81 56.72 366.92 56.77 365.04 C56.83 364.11 56.89 363.19 56.95 362.24 C56.98 361.43 57.02 360.61 57.05 359.77 C59.5 352.61 67.07 346.78 72.34 341.51 C73.05 340.8 73.76 340.09 74.48 339.36 C76.83 337 79.17 334.65 81.52 332.3 C83.21 330.61 84.9 328.91 86.59 327.22 C91.63 322.15 96.69 317.09 101.74 312.03 C104.12 309.64 106.5 307.25 108.88 304.87 C116.8 296.93 124.72 289 132.65 281.06 C134.7 279.01 136.75 276.96 138.79 274.91 C139.3 274.4 139.81 273.89 140.34 273.37 C148.61 265.08 156.88 256.79 165.14 248.5 C173.63 239.97 182.13 231.46 190.63 222.95 C195.41 218.17 200.18 213.4 204.94 208.61 C209.41 204.12 213.89 199.63 218.37 195.15 C220.02 193.51 221.67 191.86 223.31 190.2 C225.54 187.95 227.79 185.71 230.04 183.48 C230.69 182.81 231.34 182.15 232.01 181.46 C232.62 180.87 233.22 180.28 233.84 179.66 C234.36 179.15 234.88 178.63 235.41 178.09 C237 177 237 177 241 177 C242.48 178.43 242.48 178.43 243.75 180.31 C244.18 180.93 244.61 181.54 245.05 182.18 C246 184 246 184 246 187 C246.66 187 247.32 187 248 187 C249.29 188.78 249.29 188.78 250.76 191.29 C251.3 192.2 251.84 193.12 252.39 194.06 C252.97 195.05 253.54 196.04 254.12 197.06 C255 198.56 255 198.56 255.89 200.08 C269 222.7 269 222.7 269 227 C269.66 227 270.32 227 271 227 C271.33 227.86 271.33 227.86 271.66 228.73 C273.6 233.69 275.7 238.51 278 243.31 C281 249.72 283.04 256.22 285 263 C285.51 264.59 286.03 266.17 286.56 267.75 C286.8 268.46 287.04 269.17 287.28 269.89 C287.77 271.33 288.27 272.77 288.78 274.2 C292.04 283.53 293.33 293.01 294.54 302.78 C294.9 306.01 294.9 306.01 296 309 C296.12 311.47 296.19 313.91 296.2 316.39 C296.21 317.12 296.21 317.86 296.22 318.61 C296.23 320.18 296.24 321.74 296.24 323.3 C296.25 325.63 296.28 327.97 296.31 330.3 C296.47 352.66 290.43 372.38 280 392 C279.33 393.33 278.66 394.66 278 396 C277.34 396 276.68 396 276 396 C275.81 396.9 275.81 396.9 275.62 397.81 C275 400 275 400 273 403 C272.34 403 271.68 403 271 403 C270.75 403.73 270.51 404.47 270.25 405.22 C268.86 408.3 267.32 410.05 264.94 412.43 C264.14 413.22 263.34 414.02 262.52 414.84 C261.69 415.65 260.86 416.47 260 417.31 C259.17 418.15 258.33 418.98 257.48 419.85 C251.27 426 251.27 426 249 426 C249 426.66 249 427.32 249 428 C247.36 429.69 247.36 429.69 245.19 431.56 C244.48 432.18 243.77 432.8 243.04 433.44 C241 435 241 435 238 436 C238 436.66 238 437.32 238 438 C236.63 439.27 236.63 439.27 234.56 440.81 C233.75 441.43 232.93 442.04 232.09 442.68 C231.07 443.45 230.05 444.21 229 445 C227.68 446.02 226.36 447.05 225.04 448.07 C201.91 466 201.91 466 198 466 C198 466.66 198 467.32 198 468 C197.02 468.55 196.05 469.1 195.04 469.66 C191.51 471.68 188.05 473.81 184.6 475.96 C177.91 480.11 171.25 484 164.15 487.39 C159.26 489.89 154.57 492.73 149.87 495.57 C146.33 497.7 142.92 499.62 139 501 C139 501.66 139 502.32 139 503 C138.01 503 137.02 503 136 503 C136 503.66 136 504.32 136 505 C131.62 508 131.62 508 129 508 C129 508.66 129 509.32 129 510 C127.4 511.39 125.75 512.72 124.06 514 C120.49 516.54 120.49 516.54 118 520 C117.34 520 116.68 520 116 520 C115.67 520.99 115.34 521.98 115 523 C114.34 523 113.68 523 113 523 C112.73 523.58 112.46 524.15 112.19 524.75 C110.97 527.06 109.7 529.02 108 531 C107.34 531 106.68 531 106 531 C105.69 531.78 105.38 532.57 105.06 533.38 C104 536 104 536 103 538 C102.34 538 101.68 538 101 538 C101 538.99 101 539.98 101 541 C100.34 541 99.68 541 99 541 C98.81 541.88 98.81 541.88 98.61 542.78 C97.62 546.37 95.66 549.5 93.88 552.75 C87.85 563.93 82.67 575.28 78.83 587.39 C78.1 589.69 77.3 591.94 76.44 594.19 C73.34 602.35 71.05 610.59 68.97 619.07 C68.18 622.31 67.33 625.53 66.44 628.75 C63.05 641 63.05 641 61.24 653.55 C60.73 658.75 59.73 663.88 58.03 668.82 C56.47 673.63 55.69 678.57 54.78 683.54 C54.12 686.48 53.37 688.38 52 691 C51.31 693.33 50.65 695.66 50 698 C42.73 721.61 32.2 743.76 19.3 764.81 C18.1 766.83 17.02 768.88 16 771 C15.34 771 14.68 771 14 771 C13.83 771.86 13.83 771.86 13.65 772.73 C12.94 775.21 11.93 777.06 10.56 779.25 C10.13 779.96 9.7 780.66 9.25 781.39 C8.63 782.19 8.63 782.19 8 783 C7.34 783 6.68 783 6 783 C5.79 783.66 5.59 784.32 5.38 785 C3.51 789.07 1.02 792.69 -2 796 C-2.66 796 -3.32 796 -4 796 C-4.26 796.58 -4.51 797.16 -4.77 797.76 C-6.13 800.23 -7.64 801.9 -9.62 803.89 C-10.33 804.6 -11.04 805.31 -11.77 806.04 C-12.5 806.77 -13.24 807.5 -14 808.25 C-14.74 809 -15.47 809.74 -16.23 810.51 C-17.29 811.56 -17.29 811.56 -18.38 812.64 C-19.02 813.29 -19.67 813.93 -20.34 814.59 C-22 816 -22 816 -24 816 C-24 816.66 -24 817.32 -24 818 C-26.05 819.73 -28.1 821.34 -30.25 822.94 C-30.84 823.38 -31.42 823.82 -32.03 824.28 C-33.17 825.14 -34.31 826 -35.46 826.85 C-36.74 827.81 -37.99 828.81 -39.23 829.82 C-41 831 -41 831 -44 831 C-44 831.66 -44 832.32 -44 833 C-45.4 834.07 -45.4 834.07 -47.37 835.21 C-48.08 835.63 -48.8 836.05 -49.54 836.48 C-50.31 836.92 -51.08 837.36 -51.88 837.81 C-52.66 838.26 -53.44 838.71 -54.24 839.18 C-62.41 843.86 -70.42 847.92 -79.33 851.03 C-81.88 851.96 -84.34 853 -86.81 854.12 C-91.36 856.18 -95.59 857.8 -100.56 858.5 C-103.77 858.97 -106.02 859.8 -109 861 C-114.6 862.54 -120.15 863.31 -125.93 863.75 C-128.06 863.89 -128.06 863.89 -130 865 C-131.69 865.1 -133.38 865.13 -135.08 865.13 C-136.13 865.13 -137.19 865.14 -138.28 865.14 C-139.43 865.14 -140.57 865.13 -141.75 865.13 C-143.51 865.13 -143.51 865.13 -145.3 865.14 C-147.78 865.14 -150.26 865.13 -152.74 865.13 C-156.55 865.13 -160.36 865.13 -164.17 865.14 C-166.57 865.14 -168.98 865.13 -171.38 865.13 C-172.53 865.13 -173.67 865.14 -174.86 865.14 C-175.91 865.14 -176.97 865.13 -178.05 865.13 C-178.99 865.13 -179.92 865.13 -180.88 865.13 C-183 865 -183 865 -184 864 C-185.56 863.86 -187.12 863.77 -188.69 863.69 C-195.77 863.1 -202.24 861.1 -209 859 C-210.17 858.65 -211.33 858.31 -212.54 857.95 C-218.2 856.26 -223.58 854.37 -229 852 C-231 851.34 -233 850.7 -235 850.06 C-238.45 848.94 -241.59 847.83 -244.69 845.94 C-247.42 844.34 -249.53 843.42 -252.5 842.5 C-256.02 841.4 -258.96 839.97 -262.12 838.04 C-264.37 836.8 -266.66 835.91 -269.06 835 C-273.12 833.44 -276.41 831.47 -280 829 C-281.63 828.32 -283.26 827.63 -284.9 826.97 C-288.72 825.21 -292.27 822.97 -295.88 820.83 C-298.77 819.14 -301.68 817.52 -304.62 815.94 C-320.66 807.24 -335.51 796.75 -350.34 786.17 C-351.87 785.09 -353.44 784.04 -355 783 C-355 782.34 -355 781.68 -355 781 C-355.53 780.77 -356.06 780.54 -356.61 780.3 C-359.74 778.6 -362.46 776.45 -365.25 774.25 C-366.4 773.35 -367.56 772.45 -368.71 771.55 C-369.27 771.11 -369.83 770.67 -370.41 770.22 C-373.13 768.13 -375.91 766.14 -378.71 764.16 C-379.13 763.77 -379.56 763.39 -380 763 C-380 762.34 -380 761.68 -380 761 C-380.99 760.67 -381.98 760.34 -383 760 C-383 759.34 -383 758.68 -383 758 C-383.82 757.66 -383.82 757.66 -384.66 757.3 C-387.68 755.62 -389.94 753.49 -392.48 751.14 C-393 750.65 -393.53 750.17 -394.06 749.67 C-399.41 744.67 -404.61 739.54 -409.77 734.36 C-411.33 732.8 -412.88 731.25 -414.44 729.7 C-419.32 724.82 -424.08 719.89 -428.57 714.64 C-431.04 711.8 -433.78 709.26 -436.5 706.66 C-438 705 -438 705 -438 703 C-438.66 703 -439.32 703 -440 703 C-440 702.34 -440 701.68 -440 701 C-440.99 700.67 -441.98 700.34 -443 700 C-443 699.34 -443 698.68 -443 698 C-443.66 698 -444.32 698 -445 698 C-445 697.34 -445 696.68 -445 696 C-445.99 695.67 -446.98 695.34 -448 695 C-448 694.34 -448 693.68 -448 693 C-448.66 693 -449.32 693 -450 693 C-455 687.52 -455 687.52 -455 685 C-455.66 685 -456.32 685 -457 685 C-458.51 683.54 -458.51 683.54 -460.12 681.62 C-460.66 681 -461.2 680.37 -461.76 679.73 C-463 678 -463 678 -463 676 C-463.66 676 -464.32 676 -465 676 C-470 670.52 -470 670.52 -470 668 C-470.66 668 -471.32 668 -472 668 C-473.51 666.32 -473.51 666.32 -475.12 664.12 C-475.66 663.41 -476.2 662.69 -476.76 661.95 C-478 660 -478 660 -478 658 C-478.66 658 -479.32 658 -480 658 C-481.95 655.88 -481.95 655.88 -484.12 653.12 C-485.21 651.77 -485.21 651.77 -486.32 650.38 C-488 648 -488 648 -488 646 C-488.66 646 -489.32 646 -490 646 C-490 645.01 -490 644.02 -490 643 C-490.66 643 -491.32 643 -492 643 C-493.45 641.26 -494.81 639.46 -496.12 637.62 C-496.85 636.63 -497.57 635.63 -498.32 634.6 C-500 632 -500 632 -500 630 C-500.66 630 -501.32 630 -502 630 C-505 625.62 -505 625.62 -505 623 C-505.66 623 -506.32 623 -507 623 C-508.69 620.73 -508.69 620.73 -510.56 617.75 C-511.18 616.78 -511.8 615.8 -512.44 614.8 C-513.76 612.43 -514.54 610.64 -515 608 C-515.66 608 -516.32 608 -517 608 C-518.23 606.32 -518.23 606.32 -519.61 603.98 C-520.12 603.12 -520.63 602.26 -521.15 601.38 C-521.94 600.02 -521.94 600.02 -522.75 598.62 C-523.26 597.75 -523.78 596.88 -524.3 595.99 C-525.35 594.22 -526.39 592.45 -527.42 590.68 C-528.99 588.01 -530.59 585.37 -532.2 582.72 C-534.34 579.16 -536.31 575.56 -538.12 571.81 C-539.7 568.6 -541.28 565.44 -543.12 562.38 C-545.05 558.9 -546.49 555.44 -547.88 551.72 C-548.81 549.47 -549.82 547.37 -550.94 545.2 C-553 541.14 -554.54 537 -556 532.69 C-556.52 531.18 -557.04 529.67 -557.56 528.16 C-557.81 527.44 -558.05 526.72 -558.31 525.98 C-559.17 523.51 -560.12 521.07 -561.06 518.62 C-566.12 504.81 -569.73 489.92 -570.75 475.25 C-570.87 472.97 -570.87 472.97 -572 471 C-572.1 469.44 -572.13 467.87 -572.13 466.31 C-572.13 465.33 -572.14 464.36 -572.14 463.35 C-572.14 462.3 -572.13 461.24 -572.13 460.16 C-572.13 459.08 -572.13 458 -572.14 456.88 C-572.14 454.6 -572.13 452.31 -572.13 450.02 C-572.13 446.51 -572.13 443.01 -572.14 439.5 C-572.14 437.28 -572.13 435.06 -572.13 432.84 C-572.14 431.26 -572.14 431.26 -572.14 429.65 C-572.14 428.67 -572.13 427.7 -572.13 426.69 C-572.13 425.83 -572.13 424.97 -572.13 424.09 C-572 422 -572 422 -571 420 C-570.84 418.54 -570.72 417.09 -570.62 415.62 C-568.82 396.49 -560.98 375.82 -552 359 C-551.65 358.32 -551.29 357.64 -550.93 356.95 C-545.16 346.23 -538.5 335.94 -531.5 326 C-530.87 325.09 -530.87 325.09 -530.22 324.17 C-529.2 322.74 -528.11 321.36 -527 320 C-526.34 320 -525.68 320 -525 320 C-524.69 319.38 -524.38 318.76 -524.06 318.12 C-523.38 316.75 -522.69 315.38 -522 314 C-521.34 314 -520.68 314 -520 314 C-519.73 313.42 -519.47 312.83 -519.19 312.23 C-517.14 308.4 -514.07 305.47 -511.12 302.31 C-510.5 301.62 -509.87 300.93 -509.23 300.22 C-508.62 299.57 -508.01 298.91 -507.38 298.24 C-506.83 297.64 -506.28 297.04 -505.71 296.43 C-503.81 294.84 -502.42 294.4 -500 294 C-500 293.34 -500 292.68 -500 292 C-498.58 290.77 -498.58 290.77 -496.6 289.39 C-495.51 288.63 -495.51 288.63 -494.41 287.86 C-493.64 287.33 -492.86 286.8 -492.06 286.25 C-491.29 285.71 -490.51 285.17 -489.71 284.62 C-487.48 283.07 -485.24 281.53 -483 280 C-481.99 279.3 -480.98 278.6 -479.94 277.88 C-474.27 274 -474.27 274 -472 274 C-472 273.34 -472 272.68 -472 272 C-471.27 271.73 -470.54 271.46 -469.79 271.18 C-467.1 270.04 -464.78 268.74 -462.31 267.19 C-457.33 264.16 -452.26 261.51 -447 259 C-445.82 258.43 -444.64 257.86 -443.42 257.27 C-436.89 254.15 -430.39 251.26 -423.54 248.9 C-421 248 -418.54 246.98 -416.06 245.94 C-411.39 244.04 -406.67 242.83 -401.76 241.71 C-399.02 241.07 -399.02 241.07 -396.61 240.01 C-393.33 238.74 -390.08 238.14 -386.62 237.5 C-382.79 236.78 -379.07 236.02 -375.32 234.94 C-372.53 234.15 -370.06 233.67 -367.19 233.44 C-363.97 233.17 -363.97 233.17 -361 232 C-359.27 231.84 -357.54 231.72 -355.81 231.62 C-342.12 230.58 -328.18 227.32 -315.23 222.75 C-313.38 222.13 -311.51 221.57 -309.63 221.04 C-293.15 216.32 -273.45 209.08 -259.9 198.34 C-258 197 -258 197 -255 197 C-255 196.34 -255 195.68 -255 195 C-253.32 193.8 -251.58 192.69 -249.81 191.62 C-246.8 189.79 -244 188 -241.26 185.77 C-239 184 -239 184 -237 184 C-237 183.34 -237 182.68 -237 182 C-236.34 182 -235.68 182 -235 182 C-235 181.34 -235 180.68 -235 180 C-233.62 178.38 -233.62 178.38 -232 177 C-231.34 177 -230.68 177 -230 177 C-229.76 176.44 -229.52 175.88 -229.27 175.3 C-227.73 172.51 -225.81 170.46 -223.62 168.12 C-221.03 165.31 -218.59 162.62 -216.56 159.38 C-215.79 158.2 -215.79 158.2 -215 157 C-214.34 157 -213.68 157 -213 157 C-212.77 156.3 -212.55 155.6 -212.31 154.88 C-211 152 -209.37 149.98 -207.3 147.61 C-204.24 143.83 -202.1 139.37 -200 135 C-199.34 135 -198.68 135 -198 135 C-197.84 134.16 -197.84 134.16 -197.68 133.3 C-196.89 130.61 -195.68 128.62 -194.19 126.25 C-192.35 123.33 -190.68 120.4 -189.17 117.3 C-186.74 112.37 -183.91 107.7 -181.06 103 C-180.29 101.72 -180.29 101.72 -179.51 100.42 C-178.5 98.75 -177.48 97.08 -176.47 95.41 C-175.49 93.81 -174.53 92.2 -173.58 90.59 C-173.14 89.86 -172.7 89.13 -172.25 88.38 C-171.86 87.72 -171.47 87.07 -171.08 86.4 C-170.54 85.71 -170.54 85.71 -170 85 C-169.34 85 -168.68 85 -168 85 C-167.66 83.97 -167.66 83.97 -167.32 82.92 C-165.67 79.26 -163.43 76.43 -160.94 73.31 C-157.67 69.35 -157.67 69.35 -155 65 C-154.34 65 -153.68 65 -153 65 C-152.69 64.38 -152.38 63.76 -152.06 63.12 C-151.38 61.75 -150.69 60.38 -150 59 C-149.34 59 -148.68 59 -148 59 C-147.61 58.13 -147.61 58.13 -147.21 57.25 C-145.92 54.85 -144.45 53.08 -142.62 51.06 C-140.55 48.75 -138.59 46.47 -136.69 44 C-135.85 43.01 -135.85 43.01 -135 42 C-134.34 42 -133.68 42 -133 42 C-132.67 41.01 -132.34 40.02 -132 39 C-131.34 39 -130.68 39 -130 39 C-130 38.34 -130 37.68 -130 37 C-129.34 37 -128.68 37 -128 37 C-127.67 36.01 -127.34 35.02 -127 34 C-126.34 34 -125.68 34 -125 34 C-125 33.34 -125 32.68 -125 32 C-123.6 30.55 -123.6 30.55 -121.62 28.88 C-120.9 28.26 -120.18 27.64 -119.43 27.01 C-115.33 23.62 -111.19 20.28 -107 17 C-106.3 16.43 -105.61 15.86 -104.89 15.27 C-103 14 -103 14 -100 14 C-100 13.34 -100 12.68 -100 12 C-98.82 11.45 -97.64 10.89 -96.42 10.32 C-94.86 9.59 -93.31 8.86 -91.75 8.12 C-90.97 7.76 -90.2 7.4 -89.39 7.02 C-88.26 6.49 -88.26 6.49 -87.11 5.95 C-86.42 5.62 -85.73 5.3 -85.01 4.96 C-83.64 4.31 -82.28 3.63 -80.93 2.94 C-78.73 1.87 -76.5 1.19 -74.14 0.57 C-72.61 0.16 -71.09 -0.28 -69.58 -0.76 C-47.9 -7.06 -21.73 -4.97 0 0 Z M-364 481 C-364 481.66 -364 482.32 -364 483 C-364.99 483.33 -365.98 483.66 -367 484 C-367 484.66 -367 485.32 -367 486 C-367.66 486 -368.32 486 -369 486 C-371.43 492.08 -372.15 497.23 -369.62 503.31 C-368.46 505.24 -367.25 507.13 -366 509 C-365.34 509 -364.68 509 -364 509 C-363.67 509.99 -363.34 510.98 -363 512 C-362.34 512 -361.68 512 -361 512 C-361 512.66 -361 513.32 -361 514 C-360.34 514 -359.68 514 -359 514 C-358.67 514.99 -358.34 515.98 -358 517 C-357.34 517 -356.68 517 -356 517 C-356 517.66 -356 518.32 -356 519 C-355.34 519 -354.68 519 -354 519 C-353.67 519.99 -353.34 520.98 -353 522 C-352.34 522 -351.68 522 -351 522 C-351 522.66 -351 523.32 -351 524 C-350.34 524 -349.68 524 -349 524 C-348.67 524.99 -348.34 525.98 -348 527 C-347.34 527 -346.68 527 -346 527 C-346 527.66 -346 528.32 -346 529 C-345.34 529 -344.68 529 -344 529 C-343.67 529.99 -343.34 530.98 -343 532 C-342.34 532 -341.68 532 -341 532 C-341 532.66 -341 533.32 -341 534 C-340.34 534 -339.68 534 -339 534 C-338.67 534.99 -338.34 535.98 -338 537 C-337.34 537 -336.68 537 -336 537 C-336 537.66 -336 538.32 -336 539 C-335.34 539 -334.68 539 -334 539 C-333.67 539.99 -333.34 540.98 -333 542 C-332.34 542 -331.68 542 -331 542 C-331 542.66 -331 543.32 -331 544 C-330.34 544 -329.68 544 -329 544 C-328.67 544.99 -328.34 545.98 -328 547 C-327.34 547 -326.68 547 -326 547 C-326 547.66 -326 548.32 -326 549 C-325.34 549 -324.68 549 -324 549 C-323.67 549.99 -323.34 550.98 -323 552 C-322.34 552 -321.68 552 -321 552 C-321 552.66 -321 553.32 -321 554 C-320.34 554 -319.68 554 -319 554 C-318.67 554.99 -318.34 555.98 -318 557 C-317.34 557 -316.68 557 -316 557 C-316 557.66 -316 558.32 -316 559 C-315.34 559 -314.68 559 -314 559 C-313.67 559.99 -313.34 560.98 -313 562 C-312.34 562 -311.68 562 -311 562 C-311 562.66 -311 563.32 -311 564 C-310.34 564 -309.68 564 -309 564 C-308.67 564.99 -308.34 565.98 -308 567 C-307.34 567 -306.68 567 -306 567 C-306 567.66 -306 568.32 -306 569 C-305.34 569 -304.68 569 -304 569 C-303.67 569.99 -303.34 570.98 -303 572 C-302.34 572 -301.68 572 -301 572 C-301 572.66 -301 573.32 -301 574 C-300.34 574 -299.68 574 -299 574 C-298.67 574.99 -298.34 575.98 -298 577 C-297.34 577 -296.68 577 -296 577 C-296 577.66 -296 578.32 -296 579 C-295.34 579 -294.68 579 -294 579 C-293.6 579.89 -293.6 579.89 -293.19 580.79 C-291.97 583.05 -290.72 584.53 -288.9 586.35 C-288.26 586.99 -287.63 587.63 -286.97 588.29 C-286.28 588.98 -285.58 589.67 -284.86 590.38 C-283.76 591.49 -283.76 591.49 -282.63 592.62 C-280.2 595.05 -277.76 597.48 -275.32 599.91 C-273.63 601.6 -271.94 603.29 -270.25 604.98 C-266.7 608.53 -263.15 612.07 -259.6 615.61 C-255.04 620.14 -250.5 624.69 -245.95 629.23 C-242.46 632.73 -238.96 636.22 -235.47 639.71 C-233.79 641.38 -232.11 643.05 -230.44 644.73 C-228.09 647.07 -225.75 649.41 -223.4 651.75 C-222.71 652.44 -222.01 653.13 -221.3 653.85 C-220.34 654.8 -220.34 654.8 -219.35 655.78 C-218.8 656.33 -218.24 656.89 -217.67 657.46 C-213.15 661.63 -209.18 663.59 -203 664 C-196.84 663.04 -192.31 660.41 -188 656 C-184.47 650.93 -184.04 645.97 -185 640 C-189.02 631.08 -197.45 624.16 -204.29 617.39 C-205.64 616.04 -206.99 614.68 -208.35 613.33 C-212.01 609.68 -215.67 606.03 -219.34 602.39 C-223.19 598.56 -227.02 594.73 -230.86 590.9 C-238.12 583.65 -245.39 576.41 -252.67 569.17 C-265.7 556.2 -278.72 543.22 -291.74 530.23 C-296.31 525.68 -300.88 521.12 -305.45 516.57 C-308.29 513.75 -311.13 510.92 -313.97 508.08 C-315.29 506.77 -316.61 505.46 -317.93 504.15 C-319.73 502.36 -321.52 500.57 -323.32 498.78 C-323.84 498.26 -324.36 497.75 -324.9 497.22 C-327.17 494.94 -329.25 492.67 -331.23 490.14 C-331.81 489.43 -332.4 488.73 -333 488 C-333.66 488 -334.32 488 -335 488 C-335 487.34 -335 486.68 -335 486 C-336.68 484.48 -336.68 484.48 -338.81 483 C-339.52 482.48 -340.23 481.97 -340.96 481.44 C-345.14 478.49 -347.24 477.71 -352.38 477.69 C-353.5 477.67 -354.62 477.65 -355.77 477.64 C-359.3 478.03 -361.2 478.85 -364 481 Z " fill="#000000" transform="translate(572,415)"/>
<path d="M0 0 C3.59 1.61 6.09 4.27 8.82 7.02 C9.45 7.65 10.09 8.28 10.74 8.92 C12.83 10.99 14.91 13.08 16.99 15.16 C18.44 16.61 19.89 18.05 21.34 19.5 C24.38 22.52 27.41 25.56 30.43 28.59 C34.31 32.49 38.21 36.37 42.12 40.24 C45.12 43.22 48.1 46.2 51.09 49.2 C52.52 50.63 53.96 52.06 55.4 53.49 C57.41 55.48 59.4 57.49 61.4 59.5 C62 60.09 62.59 60.68 63.21 61.29 C67.18 65.35 67.18 65.35 67.65 68.46 C67.18 71.73 66.16 72.77 63.84 75.09 C63.07 75.87 62.3 76.65 61.51 77.45 C60.65 78.3 59.79 79.14 58.91 80.01 C58 80.92 57.1 81.83 56.18 82.76 C53.67 85.28 51.15 87.79 48.63 90.29 C45.91 92.99 43.21 95.7 40.5 98.41 C35.2 103.72 29.89 109.02 24.57 114.31 C18.39 120.47 12.21 126.65 6.04 132.82 C-4.97 143.83 -16 154.83 -27.03 165.82 C-37.74 176.5 -48.45 187.18 -59.15 197.88 C-59.8 198.54 -60.46 199.19 -61.14 199.87 C-61.8 200.53 -62.46 201.19 -63.14 201.87 C-64.46 203.19 -65.78 204.51 -67.11 205.84 C-68.09 206.82 -68.09 206.82 -69.09 207.82 C-79.27 217.99 -89.46 228.16 -99.65 238.33 C-103.34 242.02 -107.04 245.72 -110.74 249.41 C-116.6 255.26 -122.46 261.12 -128.33 266.96 C-131.02 269.64 -133.7 272.31 -136.38 274.99 C-139.28 277.89 -142.18 280.78 -145.09 283.67 C-145.94 284.52 -146.8 285.38 -147.68 286.26 C-148.45 287.03 -149.22 287.8 -150.02 288.59 C-150.69 289.25 -151.36 289.92 -152.05 290.61 C-153.72 292.02 -153.72 292.02 -155.72 292.02 C-155.72 292.68 -155.72 293.34 -155.72 294.02 C-156.38 294.02 -157.04 294.02 -157.72 294.02 C-158.05 295.01 -158.38 296 -158.72 297.02 C-159.38 297.02 -160.04 297.02 -160.72 297.02 C-160.72 297.68 -160.72 298.34 -160.72 299.02 C-161.38 299.02 -162.04 299.02 -162.72 299.02 C-163.05 300.01 -163.38 301 -163.72 302.02 C-164.38 302.02 -165.04 302.02 -165.72 302.02 C-165.72 302.68 -165.72 303.34 -165.72 304.02 C-166.38 304.02 -167.04 304.02 -167.72 304.02 C-168.05 305.01 -168.38 306 -168.72 307.02 C-169.38 307.02 -170.04 307.02 -170.72 307.02 C-170.72 307.68 -170.72 308.34 -170.72 309.02 C-171.38 309.02 -172.04 309.02 -172.72 309.02 C-173.05 310.01 -173.38 311 -173.72 312.02 C-174.38 312.02 -175.04 312.02 -175.72 312.02 C-175.72 312.68 -175.72 313.34 -175.72 314.02 C-176.38 314.02 -177.04 314.02 -177.72 314.02 C-178.05 315.01 -178.38 316 -178.72 317.02 C-179.38 317.02 -180.04 317.02 -180.72 317.02 C-180.72 317.68 -180.72 318.34 -180.72 319.02 C-181.38 319.02 -182.04 319.02 -182.72 319.02 C-183.05 320.01 -183.38 321 -183.72 322.02 C-184.38 322.02 -185.04 322.02 -185.72 322.02 C-185.72 322.68 -185.72 323.34 -185.72 324.02 C-186.38 324.02 -187.04 324.02 -187.72 324.02 C-188.05 325.01 -188.38 326 -188.72 327.02 C-189.38 327.02 -190.04 327.02 -190.72 327.02 C-190.72 327.68 -190.72 328.34 -190.72 329.02 C-191.38 329.02 -192.04 329.02 -192.72 329.02 C-193.05 330.01 -193.38 331 -193.72 332.02 C-194.38 332.02 -195.04 332.02 -195.72 332.02 C-195.72 332.68 -195.72 333.34 -195.72 334.02 C-196.38 334.02 -197.04 334.02 -197.72 334.02 C-198.05 335.01 -198.38 336 -198.72 337.02 C-199.38 337.02 -200.04 337.02 -200.72 337.02 C-200.72 337.68 -200.72 338.34 -200.72 339.02 C-201.38 339.02 -202.04 339.02 -202.72 339.02 C-203.05 340.01 -203.38 341 -203.72 342.02 C-204.38 342.02 -205.04 342.02 -205.72 342.02 C-205.72 342.68 -205.72 343.34 -205.72 344.02 C-206.38 344.02 -207.04 344.02 -207.72 344.02 C-208.05 345.01 -208.38 346 -208.72 347.02 C-209.38 347.02 -210.04 347.02 -210.72 347.02 C-210.72 347.68 -210.72 348.34 -210.72 349.02 C-211.38 349.02 -212.04 349.02 -212.72 349.02 C-213.05 350.01 -213.38 351 -213.72 352.02 C-214.38 352.02 -215.04 352.02 -215.72 352.02 C-215.72 352.68 -215.72 353.34 -215.72 354.02 C-216.38 354.02 -217.04 354.02 -217.72 354.02 C-218.05 355.01 -218.38 356 -218.72 357.02 C-219.38 357.02 -220.04 357.02 -220.72 357.02 C-220.72 357.68 -220.72 358.34 -220.72 359.02 C-221.38 359.02 -222.04 359.02 -222.72 359.02 C-223.05 360.01 -223.38 361 -223.72 362.02 C-224.38 362.02 -225.04 362.02 -225.72 362.02 C-225.72 362.68 -225.72 363.34 -225.72 364.02 C-226.38 364.02 -227.04 364.02 -227.72 364.02 C-228.05 365.01 -228.38 366 -228.72 367.02 C-229.38 367.02 -230.04 367.02 -230.72 367.02 C-230.72 367.68 -230.72 368.34 -230.72 369.02 C-231.38 369.02 -232.04 369.02 -232.72 369.02 C-233.05 370.01 -233.38 371 -233.72 372.02 C-234.38 372.02 -235.04 372.02 -235.72 372.02 C-235.72 372.68 -235.72 373.34 -235.72 374.02 C-236.38 374.02 -237.04 374.02 -237.72 374.02 C-238.05 375.01 -238.38 376 -238.72 377.02 C-239.38 377.02 -240.04 377.02 -240.72 377.02 C-240.72 377.68 -240.72 378.34 -240.72 379.02 C-242.29 380.57 -242.29 380.57 -244.4 382.34 C-247.66 385.11 -250.73 387.96 -253.72 391.02 C-278.72 416.02 -303.72 441.02 -328.72 466.02 C-329.48 466.79 -330.25 467.55 -331.03 468.34 C-332.82 470.12 -334.61 471.9 -336.4 473.67 C-342.36 479.53 -342.36 479.53 -347.9 485.77 C-350.59 489.02 -353.64 491.68 -356.84 494.41 C-361.2 498.16 -364.92 502.36 -368.58 506.77 C-370.44 508.73 -372.32 510.44 -374.37 512.19 C-380.05 517.09 -385.18 522.54 -390.36 527.97 C-391.12 528.75 -391.88 529.53 -392.67 530.33 C-393.35 531.04 -394.04 531.75 -394.74 532.48 C-396.72 534.02 -396.72 534.02 -400.72 534.02 C-401.13 533.15 -401.54 532.28 -401.97 531.38 C-406.35 522.29 -411.2 513.78 -417.45 505.81 C-418.72 504.02 -418.72 504.02 -418.72 502.02 C-419.38 502.02 -420.04 502.02 -420.72 502.02 C-422.23 500.45 -422.23 500.45 -423.97 498.34 C-426.22 495.67 -428.42 493.31 -431.15 491.15 C-432 490.45 -432.85 489.75 -433.72 489.02 C-433.72 488.36 -433.72 487.7 -433.72 487.02 C-434.56 486.62 -434.56 486.62 -435.42 486.21 C-437.87 484.94 -440.16 483.53 -442.47 482.02 C-443.27 481.51 -444.07 480.99 -444.89 480.46 C-445.49 479.99 -446.1 479.51 -446.72 479.02 C-446.72 478.36 -446.72 477.7 -446.72 477.02 C-447.3 476.89 -447.89 476.76 -448.49 476.63 C-452.05 475.66 -455.15 473.92 -458.4 472.21 C-459.09 471.87 -459.78 471.52 -460.49 471.17 C-465.55 468.52 -465.55 468.52 -466.42 465.89 C-466.52 465.27 -466.62 464.66 -466.72 464.02 C-465.73 463.69 -464.74 463.36 -463.72 463.02 C-463.72 462.36 -463.72 461.7 -463.72 461.02 C-463.06 461.02 -462.4 461.02 -461.72 461.02 C-461.39 460.03 -461.06 459.04 -460.72 458.02 C-460.06 458.02 -459.4 458.02 -458.72 458.02 C-458.72 457.36 -458.72 456.7 -458.72 456.02 C-458.06 456.02 -457.4 456.02 -456.72 456.02 C-456.39 455.03 -456.06 454.04 -455.72 453.02 C-455.06 453.02 -454.4 453.02 -453.72 453.02 C-453.72 452.36 -453.72 451.7 -453.72 451.02 C-453.06 451.02 -452.4 451.02 -451.72 451.02 C-451.39 450.03 -451.06 449.04 -450.72 448.02 C-450.06 448.02 -449.4 448.02 -448.72 448.02 C-448.72 447.36 -448.72 446.7 -448.72 446.02 C-448.06 446.02 -447.4 446.02 -446.72 446.02 C-446.39 445.03 -446.06 444.04 -445.72 443.02 C-445.06 443.02 -444.4 443.02 -443.72 443.02 C-443.72 442.36 -443.72 441.7 -443.72 441.02 C-443.06 441.02 -442.4 441.02 -441.72 441.02 C-441.39 440.03 -441.06 439.04 -440.72 438.02 C-440.06 438.02 -439.4 438.02 -438.72 438.02 C-438.72 437.36 -438.72 436.7 -438.72 436.02 C-438.06 436.02 -437.4 436.02 -436.72 436.02 C-436.39 435.03 -436.06 434.04 -435.72 433.02 C-435.06 433.02 -434.4 433.02 -433.72 433.02 C-433.72 432.36 -433.72 431.7 -433.72 431.02 C-433.06 431.02 -432.4 431.02 -431.72 431.02 C-431.39 430.03 -431.06 429.04 -430.72 428.02 C-430.06 428.02 -429.4 428.02 -428.72 428.02 C-428.72 427.36 -428.72 426.7 -428.72 426.02 C-428.06 426.02 -427.4 426.02 -426.72 426.02 C-426.39 425.03 -426.06 424.04 -425.72 423.02 C-425.06 423.02 -424.4 423.02 -423.72 423.02 C-423.72 422.36 -423.72 421.7 -423.72 421.02 C-423.06 421.02 -422.4 421.02 -421.72 421.02 C-421.39 420.03 -421.06 419.04 -420.72 418.02 C-420.06 418.02 -419.4 418.02 -418.72 418.02 C-418.72 417.36 -418.72 416.7 -418.72 416.02 C-418.06 416.02 -417.4 416.02 -416.72 416.02 C-416.39 415.03 -416.06 414.04 -415.72 413.02 C-415.06 413.02 -414.4 413.02 -413.72 413.02 C-413.72 412.36 -413.72 411.7 -413.72 411.02 C-413.06 411.02 -412.4 411.02 -411.72 411.02 C-411.39 410.03 -411.06 409.04 -410.72 408.02 C-410.06 408.02 -409.4 408.02 -408.72 408.02 C-408.72 407.36 -408.72 406.7 -408.72 406.02 C-408.06 406.02 -407.4 406.02 -406.72 406.02 C-406.39 405.03 -406.06 404.04 -405.72 403.02 C-405.06 403.02 -404.4 403.02 -403.72 403.02 C-403.72 402.36 -403.72 401.7 -403.72 401.02 C-403.06 401.02 -402.4 401.02 -401.72 401.02 C-401.39 400.03 -401.06 399.04 -400.72 398.02 C-400.06 398.02 -399.4 398.02 -398.72 398.02 C-398.72 397.36 -398.72 396.7 -398.72 396.02 C-398.06 396.02 -397.4 396.02 -396.72 396.02 C-396.39 395.03 -396.06 394.04 -395.72 393.02 C-395.06 393.02 -394.4 393.02 -393.72 393.02 C-393.72 392.36 -393.72 391.7 -393.72 391.02 C-393.06 391.02 -392.4 391.02 -391.72 391.02 C-391.39 390.03 -391.06 389.04 -390.72 388.02 C-390.06 388.02 -389.4 388.02 -388.72 388.02 C-388.72 387.36 -388.72 386.7 -388.72 386.02 C-388.06 386.02 -387.4 386.02 -386.72 386.02 C-386.39 385.03 -386.06 384.04 -385.72 383.02 C-385.06 383.02 -384.4 383.02 -383.72 383.02 C-383.72 382.36 -383.72 381.7 -383.72 381.02 C-383.06 381.02 -382.4 381.02 -381.72 381.02 C-381.39 380.03 -381.06 379.04 -380.72 378.02 C-380.06 378.02 -379.4 378.02 -378.72 378.02 C-378.72 377.36 -378.72 376.7 -378.72 376.02 C-378.06 376.02 -377.4 376.02 -376.72 376.02 C-376.39 375.03 -376.06 374.04 -375.72 373.02 C-375.06 373.02 -374.4 373.02 -373.72 373.02 C-373.72 372.36 -373.72 371.7 -373.72 371.02 C-373.06 371.02 -372.4 371.02 -371.72 371.02 C-371.39 370.03 -371.06 369.04 -370.72 368.02 C-370.06 368.02 -369.4 368.02 -368.72 368.02 C-368.72 367.36 -368.72 366.7 -368.72 366.02 C-368.06 366.02 -367.4 366.02 -366.72 366.02 C-366.39 365.03 -366.06 364.04 -365.72 363.02 C-365.06 363.02 -364.4 363.02 -363.72 363.02 C-363.72 362.36 -363.72 361.7 -363.72 361.02 C-363.06 361.02 -362.4 361.02 -361.72 361.02 C-361.39 360.03 -361.06 359.04 -360.72 358.02 C-360.06 358.02 -359.4 358.02 -358.72 358.02 C-358.72 357.36 -358.72 356.7 -358.72 356.02 C-358.06 356.02 -357.4 356.02 -356.72 356.02 C-356.39 355.03 -356.06 354.04 -355.72 353.02 C-355.06 353.02 -354.4 353.02 -353.72 353.02 C-353.72 352.36 -353.72 351.7 -353.72 351.02 C-353.06 351.02 -352.4 351.02 -351.72 351.02 C-351.39 350.03 -351.06 349.04 -350.72 348.02 C-350.06 348.02 -349.4 348.02 -348.72 348.02 C-348.72 347.36 -348.72 346.7 -348.72 346.02 C-348.06 346.02 -347.4 346.02 -346.72 346.02 C-346.39 345.03 -346.06 344.04 -345.72 343.02 C-345.06 343.02 -344.4 343.02 -343.72 343.02 C-343.72 342.36 -343.72 341.7 -343.72 341.02 C-343.06 341.02 -342.4 341.02 -341.72 341.02 C-341.39 340.03 -341.06 339.04 -340.72 338.02 C-340.06 338.02 -339.4 338.02 -338.72 338.02 C-338.72 337.36 -338.72 336.7 -338.72 336.02 C-338.06 336.02 -337.4 336.02 -336.72 336.02 C-336.39 335.03 -336.06 334.04 -335.72 333.02 C-335.06 333.02 -334.4 333.02 -333.72 333.02 C-333.72 332.36 -333.72 331.7 -333.72 331.02 C-333.06 331.02 -332.4 331.02 -331.72 331.02 C-331.39 330.03 -331.06 329.04 -330.72 328.02 C-330.06 328.02 -329.4 328.02 -328.72 328.02 C-328.72 327.36 -328.72 326.7 -328.72 326.02 C-328.06 326.02 -327.4 326.02 -326.72 326.02 C-326.39 325.03 -326.06 324.04 -325.72 323.02 C-325.06 323.02 -324.4 323.02 -323.72 323.02 C-323.72 322.36 -323.72 321.7 -323.72 321.02 C-323.06 321.02 -322.4 321.02 -321.72 321.02 C-321.39 320.03 -321.06 319.04 -320.72 318.02 C-320.06 318.02 -319.4 318.02 -318.72 318.02 C-318.72 317.36 -318.72 316.7 -318.72 316.02 C-318.06 316.02 -317.4 316.02 -316.72 316.02 C-316.39 315.03 -316.06 314.04 -315.72 313.02 C-315.06 313.02 -314.4 313.02 -313.72 313.02 C-313.72 312.36 -313.72 311.7 -313.72 311.02 C-313.06 311.02 -312.4 311.02 -311.72 311.02 C-311.39 310.03 -311.06 309.04 -310.72 308.02 C-310.06 308.02 -309.4 308.02 -308.72 308.02 C-308.72 307.36 -308.72 306.7 -308.72 306.02 C-308.06 306.02 -307.4 306.02 -306.72 306.02 C-306.39 305.03 -306.06 304.04 -305.72 303.02 C-305.06 303.02 -304.4 303.02 -303.72 303.02 C-303.72 302.36 -303.72 301.7 -303.72 301.02 C-303.06 301.02 -302.4 301.02 -301.72 301.02 C-301.39 300.03 -301.06 299.04 -300.72 298.02 C-300.06 298.02 -299.4 298.02 -298.72 298.02 C-298.72 297.36 -298.72 296.7 -298.72 296.02 C-298.06 296.02 -297.4 296.02 -296.72 296.02 C-296.39 295.03 -296.06 294.04 -295.72 293.02 C-295.06 293.02 -294.4 293.02 -293.72 293.02 C-293.72 292.36 -293.72 291.7 -293.72 291.02 C-293.06 291.02 -292.4 291.02 -291.72 291.02 C-291.39 290.03 -291.06 289.04 -290.72 288.02 C-290.06 288.02 -289.4 288.02 -288.72 288.02 C-288.72 287.36 -288.72 286.7 -288.72 286.02 C-288.06 286.02 -287.4 286.02 -286.72 286.02 C-286.39 285.03 -286.06 284.04 -285.72 283.02 C-285.06 283.02 -284.4 283.02 -283.72 283.02 C-283.72 282.36 -283.72 281.7 -283.72 281.02 C-283.06 281.02 -282.4 281.02 -281.72 281.02 C-281.39 280.03 -281.06 279.04 -280.72 278.02 C-280.06 278.02 -279.4 278.02 -278.72 278.02 C-278.72 277.36 -278.72 276.7 -278.72 276.02 C-278.06 276.02 -277.4 276.02 -276.72 276.02 C-276.39 275.03 -276.06 274.04 -275.72 273.02 C-275.06 273.02 -274.4 273.02 -273.72 273.02 C-273.72 272.36 -273.72 271.7 -273.72 271.02 C-273.06 271.02 -272.4 271.02 -271.72 271.02 C-271.39 270.03 -271.06 269.04 -270.72 268.02 C-270.06 268.02 -269.4 268.02 -268.72 268.02 C-268.72 267.36 -268.72 266.7 -268.72 266.02 C-268.06 266.02 -267.4 266.02 -266.72 266.02 C-266.39 265.03 -266.06 264.04 -265.72 263.02 C-265.06 263.02 -264.4 263.02 -263.72 263.02 C-263.72 262.36 -263.72 261.7 -263.72 261.02 C-263.06 261.02 -262.4 261.02 -261.72 261.02 C-261.39 260.03 -261.06 259.04 -260.72 258.02 C-260.06 258.02 -259.4 258.02 -258.72 258.02 C-258.72 257.36 -258.72 256.7 -258.72 256.02 C-258.06 256.02 -257.4 256.02 -256.72 256.02 C-256.39 255.03 -256.06 254.04 -255.72 253.02 C-255.06 253.02 -254.4 253.02 -253.72 253.02 C-253.72 252.36 -253.72 251.7 -253.72 251.02 C-253.06 251.02 -252.4 251.02 -251.72 251.02 C-251.39 250.03 -251.06 249.04 -250.72 248.02 C-250.06 248.02 -249.4 248.02 -248.72 248.02 C-248.72 247.36 -248.72 246.7 -248.72 246.02 C-248.06 246.02 -247.4 246.02 -246.72 246.02 C-246.39 245.03 -246.06 244.04 -245.72 243.02 C-245.06 243.02 -244.4 243.02 -243.72 243.02 C-243.72 242.36 -243.72 241.7 -243.72 241.02 C-243.06 241.02 -242.4 241.02 -241.72 241.02 C-241.39 240.03 -241.06 239.04 -240.72 238.02 C-240.06 238.02 -239.4 238.02 -238.72 238.02 C-238.72 237.36 -238.72 236.7 -238.72 236.02 C-238.06 236.02 -237.4 236.02 -236.72 236.02 C-236.39 235.03 -236.06 234.04 -235.72 233.02 C-235.06 233.02 -234.4 233.02 -233.72 233.02 C-233.72 232.36 -233.72 231.7 -233.72 231.02 C-233.06 231.02 -232.4 231.02 -231.72 231.02 C-231.39 230.03 -231.06 229.04 -230.72 228.02 C-230.06 228.02 -229.4 228.02 -228.72 228.02 C-228.72 227.36 -228.72 226.7 -228.72 226.02 C-228.06 226.02 -227.4 226.02 -226.72 226.02 C-226.39 225.03 -226.06 224.04 -225.72 223.02 C-225.06 223.02 -224.4 223.02 -223.72 223.02 C-223.72 222.36 -223.72 221.7 -223.72 221.02 C-223.06 221.02 -222.4 221.02 -221.72 221.02 C-221.39 220.03 -221.06 219.04 -220.72 218.02 C-220.06 218.02 -219.4 218.02 -218.72 218.02 C-218.72 217.36 -218.72 216.7 -218.72 216.02 C-218.06 216.02 -217.4 216.02 -216.72 216.02 C-216.39 215.03 -216.06 214.04 -215.72 213.02 C-215.06 213.02 -214.4 213.02 -213.72 213.02 C-213.72 212.36 -213.72 211.7 -213.72 211.02 C-213.06 211.02 -212.4 211.02 -211.72 211.02 C-211.39 210.03 -211.06 209.04 -210.72 208.02 C-210.06 208.02 -209.4 208.02 -208.72 208.02 C-208.72 207.36 -208.72 206.7 -208.72 206.02 C-208.06 206.02 -207.4 206.02 -206.72 206.02 C-206.39 205.03 -206.06 204.04 -205.72 203.02 C-205.06 203.02 -204.4 203.02 -203.72 203.02 C-203.72 202.36 -203.72 201.7 -203.72 201.02 C-203.06 201.02 -202.4 201.02 -201.72 201.02 C-201.39 200.03 -201.06 199.04 -200.72 198.02 C-200.06 198.02 -199.4 198.02 -198.72 198.02 C-198.72 197.36 -198.72 196.7 -198.72 196.02 C-198.06 196.02 -197.4 196.02 -196.72 196.02 C-196.39 195.03 -196.06 194.04 -195.72 193.02 C-195.06 193.02 -194.4 193.02 -193.72 193.02 C-193.72 192.36 -193.72 191.7 -193.72 191.02 C-193.06 191.02 -192.4 191.02 -191.72 191.02 C-191.39 190.03 -191.06 189.04 -190.72 188.02 C-190.06 188.02 -189.4 188.02 -188.72 188.02 C-188.72 187.36 -188.72 186.7 -188.72 186.02 C-188.06 186.02 -187.4 186.02 -186.72 186.02 C-186.39 185.03 -186.06 184.04 -185.72 183.02 C-185.06 183.02 -184.4 183.02 -183.72 183.02 C-183.72 182.36 -183.72 181.7 -183.72 181.02 C-183.06 181.02 -182.4 181.02 -181.72 181.02 C-181.39 180.03 -181.06 179.04 -180.72 178.02 C-180.06 178.02 -179.4 178.02 -178.72 178.02 C-178.72 177.36 -178.72 176.7 -178.72 176.02 C-178.06 176.02 -177.4 176.02 -176.72 176.02 C-176.39 175.03 -176.06 174.04 -175.72 173.02 C-175.06 173.02 -174.4 173.02 -173.72 173.02 C-173.72 172.36 -173.72 171.7 -173.72 171.02 C-173.06 171.02 -172.4 171.02 -171.72 171.02 C-171.39 170.03 -171.06 169.04 -170.72 168.02 C-170.06 168.02 -169.4 168.02 -168.72 168.02 C-168.72 167.36 -168.72 166.7 -168.72 166.02 C-168.06 166.02 -167.4 166.02 -166.72 166.02 C-166.39 165.03 -166.06 164.04 -165.72 163.02 C-165.06 163.02 -164.4 163.02 -163.72 163.02 C-163.72 162.36 -163.72 161.7 -163.72 161.02 C-163.06 161.02 -162.4 161.02 -161.72 161.02 C-161.41 160.23 -161.41 160.23 -161.1 159.43 C-159.11 155.98 -156.35 153.37 -153.55 150.57 C-152.91 149.93 -152.27 149.28 -151.61 148.62 C-149.47 146.46 -147.31 144.3 -145.16 142.14 C-143.62 140.59 -142.08 139.04 -140.54 137.49 C-136.36 133.28 -132.17 129.08 -127.98 124.88 C-125.36 122.26 -122.74 119.64 -120.13 117.01 C-111.95 108.81 -103.77 100.61 -95.59 92.42 C-94.66 91.48 -93.72 90.55 -92.76 89.59 C-92.3 89.12 -91.83 88.65 -91.35 88.17 C-84.24 81.06 -77.15 73.94 -70.06 66.81 C-61.83 58.53 -53.6 50.26 -45.34 42 C-40.98 37.63 -36.61 33.26 -32.26 28.87 C-28.17 24.75 -24.07 20.64 -19.95 16.54 C-18.44 15.03 -16.93 13.52 -15.43 12 C-13.39 9.93 -11.33 7.88 -9.27 5.84 C-8.67 5.23 -8.08 4.61 -7.46 3.98 C-3.41 0.03 -3.41 0.03 0 0 Z " fill="#000000" transform="translate(1020.717451095581,190.97703647613525)"/>
<path d="M0 0 C0.69 0.02 1.39 0.05 2.1 0.07 C3.8 0.13 5.49 0.22 7.19 0.31 C7.19 0.97 7.19 1.63 7.19 2.31 C7.85 2.31 8.51 2.31 9.19 2.31 C9.19 2.97 9.19 3.63 9.19 4.31 C10.18 4.64 11.17 4.97 12.19 5.31 C12.19 5.97 12.19 6.63 12.19 7.31 C13.15 7.71 13.15 7.71 14.12 8.12 C16.19 9.31 16.19 9.31 17.19 12.31 C20.7 13.54 20.7 13.54 24.19 14.31 C24.19 13.65 24.19 12.99 24.19 12.31 C24.85 12.31 25.51 12.31 26.19 12.31 C26.19 11.65 26.19 10.99 26.19 10.31 C26.85 10.31 27.51 10.31 28.19 10.31 C28.52 9.32 28.85 8.33 29.19 7.31 C29.85 7.31 30.51 7.31 31.19 7.31 C31.46 6.67 31.72 6.03 32 5.38 C33.19 3.31 33.19 3.31 36.19 2.31 C36.19 1.65 36.19 0.99 36.19 0.31 C44.02 0.13 51.85 -0.02 59.69 -0.1 C63.32 -0.14 66.96 -0.2 70.6 -0.29 C74.11 -0.38 77.62 -0.43 81.14 -0.45 C83.13 -0.47 85.11 -0.53 87.09 -0.59 C88.31 -0.59 89.54 -0.6 90.79 -0.6 C91.86 -0.61 92.93 -0.63 94.03 -0.65 C98.19 0.62 99.71 2.77 102.39 6.09 C105.23 9.61 108.46 12.72 111.65 15.91 C112.36 16.62 113.07 17.33 113.8 18.06 C116.12 20.39 118.45 22.71 120.77 25.03 C122.39 26.65 124.01 28.27 125.64 29.9 C129.02 33.28 132.41 36.67 135.79 40.05 C140.14 44.39 144.49 48.74 148.83 53.09 C152.17 56.44 155.52 59.78 158.86 63.12 C160.46 64.72 162.07 66.33 163.67 67.93 C165.9 70.17 168.14 72.4 170.37 74.62 C171.37 75.62 171.37 75.62 172.38 76.64 C173.29 77.55 173.29 77.55 174.22 78.47 C174.75 79 175.28 79.53 175.82 80.07 C177.19 81.43 177.19 81.43 179.19 82.31 C179.51 89.89 179.76 97.47 179.91 105.06 C179.99 108.58 180.08 112.1 180.24 115.62 C181.34 140.26 181.34 140.26 176.01 147.37 C172.75 150.91 169.21 153.69 165.19 156.31 C166.2 160.65 166.2 160.65 169.25 163.5 C169.89 163.77 170.53 164.04 171.19 164.31 C171.52 165.3 171.85 166.29 172.19 167.31 C172.81 167.62 173.42 167.93 174.06 168.25 C176.72 169.58 177.64 170.77 179.19 173.31 C179.96 177.95 180.31 183.06 178.17 187.36 C175.63 190.45 172.8 192.96 168.84 193.82 C164.28 194.12 161.3 194.05 157.42 191.48 C154.29 188.66 151.43 185.67 148.59 182.57 C147.23 181.05 147.23 181.05 145.19 179.31 C141 179.48 138.58 182.49 135.8 185.3 C135.3 185.8 134.8 186.3 134.28 186.81 C133.22 187.87 132.17 188.93 131.11 189.99 C129.51 191.62 127.88 193.23 126.26 194.83 C125.23 195.86 124.2 196.89 123.18 197.93 C122.69 198.41 122.21 198.88 121.7 199.38 C119.25 201.89 117.59 203.75 117.19 207.31 C117.85 207.31 118.51 207.31 119.19 207.31 C120.81 208.69 120.81 208.69 122.19 210.31 C122.19 210.97 122.19 211.63 122.19 212.31 C122.85 212.31 123.51 212.31 124.19 212.31 C125.81 213.69 125.81 213.69 127.19 215.31 C127.19 215.97 127.19 216.63 127.19 217.31 C127.85 217.31 128.51 217.31 129.19 217.31 C132.46 221.08 132.87 224.92 132.75 229.73 C131.75 234.34 128.67 237.3 125.19 240.31 C121.51 242.15 117.22 241.68 113.19 241.31 C110.06 239.94 110.06 239.94 108.19 238.31 C108.19 237.65 108.19 236.99 108.19 236.31 C107.55 236.04 106.91 235.78 106.25 235.5 C104.19 234.31 104.19 234.31 103.19 231.31 C102.53 230.98 101.87 230.65 101.19 230.31 C99.19 229.31 99.19 229.31 98.19 226.31 C94.91 226.89 93.32 227.83 91.02 230.22 C90.18 231.09 90.18 231.09 89.31 231.97 C88.74 232.58 88.16 233.19 87.56 233.81 C86.41 235.01 85.25 236.21 84.09 237.41 C83.58 237.94 83.07 238.47 82.54 239.02 C79.76 241.67 77.44 241.43 73.73 241.43 C72.59 241.43 71.45 241.43 70.27 241.43 C68.42 241.42 68.42 241.42 66.52 241.41 C65.26 241.41 64 241.41 62.7 241.41 C59.34 241.4 55.98 241.39 52.63 241.38 C49.2 241.37 45.78 241.37 42.35 241.36 C35.63 241.35 28.91 241.33 22.19 241.31 C21.86 240.32 21.53 239.33 21.19 238.31 C20.53 237.98 19.87 237.65 19.19 237.31 C17.19 236.31 17.19 236.31 16.19 233.31 C15.53 232.98 14.87 232.65 14.19 232.31 C12.19 231.31 12.19 231.31 11.19 228.31 C10.53 227.98 9.87 227.65 9.19 227.31 C7.19 226.31 7.19 226.31 6.19 223.31 C5.53 222.98 4.87 222.65 4.19 222.31 C2.19 221.31 2.19 221.31 1.19 218.31 C0.53 217.98 -0.13 217.65 -0.81 217.31 C-2.81 216.31 -2.81 216.31 -3.81 213.31 C-4.47 212.98 -5.13 212.65 -5.81 212.31 C-7.81 211.31 -7.81 211.31 -8.81 208.31 C-9.47 207.98 -10.13 207.65 -10.81 207.31 C-12.81 206.31 -12.81 206.31 -13.81 203.31 C-14.47 202.98 -15.13 202.65 -15.81 202.31 C-17.81 201.31 -17.81 201.31 -18.81 198.31 C-19.47 197.98 -20.13 197.65 -20.81 197.31 C-22.81 196.31 -22.81 196.31 -23.81 193.31 C-24.47 192.98 -25.13 192.65 -25.81 192.31 C-27.81 191.31 -27.81 191.31 -28.81 188.31 C-29.47 187.98 -30.13 187.65 -30.81 187.31 C-32.81 186.31 -32.81 186.31 -33.81 183.31 C-34.47 182.98 -35.13 182.65 -35.81 182.31 C-37.81 181.31 -37.81 181.31 -38.81 178.31 C-39.47 177.98 -40.13 177.65 -40.81 177.31 C-42.81 176.31 -42.81 176.31 -43.81 173.31 C-44.47 172.98 -45.13 172.65 -45.81 172.31 C-47.81 171.31 -47.81 171.31 -48.81 168.31 C-49.47 167.98 -50.13 167.65 -50.81 167.31 C-52.81 166.31 -52.81 166.31 -53.81 163.31 C-54.47 162.98 -55.13 162.65 -55.81 162.31 C-57.81 161.31 -57.81 161.31 -58.81 158.31 C-59.8 157.98 -60.79 157.65 -61.81 157.31 C-61.84 149.78 -61.85 142.26 -61.86 134.73 C-61.87 131.23 -61.88 127.74 -61.89 124.24 C-61.9 120.23 -61.91 116.21 -61.91 112.2 C-61.92 110.94 -61.92 109.68 -61.93 108.38 C-61.93 107.22 -61.93 106.06 -61.93 104.86 C-61.93 103.84 -61.93 102.81 -61.93 101.75 C-61.81 99.31 -61.81 99.31 -60.81 97.31 C-60.15 97.31 -59.49 97.31 -58.81 97.31 C-58.54 96.67 -58.28 96.03 -58 95.38 C-56.81 93.31 -56.81 93.31 -53.81 92.31 C-53.32 91.32 -53.32 91.32 -52.81 90.31 C-51.81 88.31 -51.81 88.31 -48.81 87.31 C-47.59 84.3 -47.59 84.3 -46.81 81.31 C-47.47 81.31 -48.13 81.31 -48.81 81.31 C-50.44 79.94 -50.44 79.94 -51.81 78.31 C-51.81 77.65 -51.81 76.99 -51.81 76.31 C-52.47 76.31 -53.13 76.31 -53.81 76.31 C-55.44 74.94 -55.44 74.94 -56.81 73.31 C-56.81 72.65 -56.81 71.99 -56.81 71.31 C-57.47 71.31 -58.13 71.31 -58.81 71.31 C-62.37 67.34 -62.37 63.06 -62.24 57.98 C-61.57 53.77 -59.94 52.15 -56.81 49.31 C-52.36 46.34 -48.04 46.8 -42.81 47.31 C-39.62 48.69 -39.62 48.69 -37.81 50.31 C-37.81 50.97 -37.81 51.63 -37.81 52.31 C-37.15 52.31 -36.49 52.31 -35.81 52.31 C-34.19 53.69 -34.19 53.69 -32.81 55.31 C-32.81 55.97 -32.81 56.63 -32.81 57.31 C-32.15 57.31 -31.49 57.31 -30.81 57.31 C-29.19 58.69 -29.19 58.69 -27.81 60.31 C-27.81 60.97 -27.81 61.63 -27.81 62.31 C-26.49 62.31 -25.17 62.31 -23.81 62.31 C-23.54 61.67 -23.28 61.03 -23 60.38 C-21.81 58.31 -21.81 58.31 -18.81 57.31 C-18.32 56.32 -18.32 56.32 -17.81 55.31 C-16.81 53.31 -16.81 53.31 -13.81 52.31 C-13.32 51.32 -13.32 51.32 -12.81 50.31 C-11.81 48.31 -11.81 48.31 -8.81 47.31 C-8.32 46.32 -8.32 46.32 -7.81 45.31 C-6.81 43.31 -6.81 43.31 -3.81 42.31 C-3.32 41.32 -3.32 41.32 -2.81 40.31 C-1.81 38.31 -1.81 38.31 1.19 37.31 C0.86 36.32 0.53 35.33 0.19 34.31 C-0.8 33.82 -0.8 33.82 -1.81 33.31 C-1.81 32.65 -1.81 31.99 -1.81 31.31 C-2.47 31.31 -3.13 31.31 -3.81 31.31 C-5.44 29.94 -5.44 29.94 -6.81 28.31 C-6.81 27.65 -6.81 26.99 -6.81 26.31 C-7.47 26.31 -8.13 26.31 -8.81 26.31 C-13.36 22.09 -14.57 18.82 -14.88 12.64 C-14.75 8.23 -13.43 6.09 -10.71 2.7 C-7.1 -0.27 -4.46 -0.28 0 0 Z " fill="#000000" transform="translate(1100.8125,-0.3125)"/>
<path d="M0 0 C0.97 0.37 1.95 0.75 2.95 1.13 C9.24 3.64 15.17 6.54 21 10 C21 10.66 21 11.32 21 12 C21.69 12.21 22.38 12.42 23.09 12.63 C26.93 14.44 29.57 16.97 32.62 19.88 C33.2 20.4 33.77 20.93 34.36 21.48 C37.19 24.13 39.92 26.7 42 30 C42 30.66 42 31.32 42 32 C42.66 32 43.32 32 44 32 C53.31 47.4 59.37 61.77 59.32 80.02 C59.31 82.23 59.34 84.44 59.36 86.64 C59.4 94.82 58.78 102.23 56 110 C55.6 111.12 55.2 112.23 54.79 113.38 C52.2 119.48 49.38 125.3 46 131 C45.34 131 44.68 131 44 131 C43.88 131.6 43.75 132.2 43.62 132.81 C43 135 43 135 41 138 C40.34 138 39.68 138 39 138 C38.79 138.54 38.59 139.07 38.38 139.62 C36.47 142.92 33.95 145.59 31 148 C30.34 148 29.68 148 29 148 C29 148.66 29 149.32 29 150 C22.66 155.46 15.6 159.59 8 163 C7.35 163.3 6.7 163.59 6.03 163.9 C-11.25 171.55 -34.59 173.32 -52.66 167.08 C-54.35 166.42 -56.04 165.72 -57.7 164.99 C-59.78 164.09 -61.85 163.38 -64 162.69 C-69.26 160.74 -73.54 157.32 -78 154 C-79 153.31 -79 153.31 -80.03 152.6 C-87.56 147.28 -95.74 140.27 -100 132 C-100 131.34 -100 130.68 -100 130 C-100.66 130 -101.32 130 -102 130 C-103.29 127.27 -104.58 124.54 -105.88 121.81 C-106.24 121.04 -106.6 120.27 -106.98 119.48 C-116.62 99.06 -117.83 76.32 -110.97 54.76 C-107.82 46.75 -103.39 39.37 -99 32 C-98.34 32 -97.68 32 -97 32 C-96.76 31.27 -96.52 30.55 -96.28 29.8 C-89.92 15.86 -70.3 5.52 -56.69 0.19 C-50.15 -1.92 -43.99 -3.34 -37.12 -3.69 C-36.4 -3.73 -35.68 -3.76 -34.93 -3.8 C-23.2 -4.31 -11.03 -4.43 0 0 Z " fill="#000000" transform="translate(534,690)"/>
</svg>
